<svg width="40" height="40" viewBox="0 0 40 40" fill="none" xmlns="http://www.w3.org/2000/svg">
<path d="M14.5929 8.69246C14.0182 8.11551 13.7308 7.42426 13.7308 6.61871C13.7308 5.81315 14.0175 5.12287 14.5908 4.54787C15.1642 3.97315 15.8554 3.68579 16.6646 3.68579C17.4738 3.68579 18.1657 3.97246 18.7404 4.54579C19.3151 5.11912 19.6025 5.80857 19.6025 6.61412C19.6025 7.41968 19.3158 8.11162 18.7425 8.68996C18.1692 9.26829 17.4779 9.55746 16.6687 9.55746C15.8596 9.55746 15.1676 9.26912 14.5929 8.69246ZM30.7808 29.1183C31.6778 28.2241 32.1263 27.1304 32.1263 25.837C32.1263 24.544 31.6792 23.4491 30.785 22.5525C29.8908 21.6555 28.7971 21.207 27.5038 21.207C26.2107 21.207 25.1158 21.6541 24.2192 22.5483C23.3222 23.4425 22.8737 24.5362 22.8737 25.8295C22.8737 27.1226 23.3208 28.2175 24.215 29.1141C25.1092 30.0111 26.2029 30.4595 27.4963 30.4595C28.7893 30.4595 29.8842 30.0125 30.7808 29.1183ZM36 35.7916L31.4529 31.2445C30.8704 31.6662 30.2454 31.9898 29.5779 32.2154C28.9107 32.4407 28.2181 32.5533 27.5 32.5533C25.6328 32.5533 24.046 31.8998 22.7396 30.5929C21.4332 29.2859 20.78 27.6983 20.78 25.83C20.78 23.9619 21.4335 22.3754 22.7404 21.0704C24.0474 19.7657 25.635 19.1133 27.5033 19.1133C29.3714 19.1133 30.9579 19.7665 32.2629 21.0729C33.5676 22.3793 34.22 23.9661 34.22 25.8333C34.22 26.5513 34.1074 27.244 33.8821 27.9112C33.6565 28.5787 33.3329 29.2037 32.9113 29.7862L37.4583 34.3333L36 35.7916ZM18.6346 36.25V30.3245C18.891 30.8637 19.1933 31.3654 19.5417 31.8295C19.89 32.2934 20.2857 32.7195 20.7288 33.1079V36.25H18.6346ZM12.6046 36.25V14.2541C10.9004 14.123 9.20778 13.94 7.52667 13.705C5.84583 13.47 4.17028 13.1502 2.5 12.7458L3.01292 10.6516C5.26653 11.1958 7.52444 11.5833 9.78667 11.8141C12.0489 12.045 14.3435 12.1604 16.6704 12.1604C18.9974 12.1604 21.2919 12.045 23.5542 11.8141C25.8164 11.5833 28.0754 11.1958 30.3313 10.6516L30.8333 12.7458C29.1631 13.1502 27.4875 13.47 25.8067 13.705C24.1256 13.94 22.4329 14.123 20.7288 14.2541V18.5587C19.7799 19.4326 19.0206 20.4704 18.4508 21.672C17.8811 22.8734 17.5801 24.1644 17.5479 25.545V25.5983C17.5479 25.6197 17.5508 25.6375 17.5567 25.6516H14.6987V36.25H12.6046Z" fill="white"/>
</svg>
