<svg width="40" height="40" viewBox="0 0 40 40" fill="none" xmlns="http://www.w3.org/2000/svg">
<path d="M18.3225 25.0108H21.6775V20.8442H25.8442V17.4892H21.6775V13.3225H18.3225V17.4892H14.1558V20.8442H18.3225V25.0108ZM20 35.7842C16.3839 34.7942 13.3965 32.6499 11.0379 29.3512C8.67931 26.0529 7.5 22.3889 7.5 18.3592V8.89333L20 4.21375L32.5 8.89333V18.3592C32.5 22.3889 31.3207 26.0529 28.9621 29.3512C26.6035 32.6499 23.6161 34.7942 20 35.7842ZM20 33.5896C23.0356 32.609 25.5288 30.6996 27.4796 27.8612C29.4304 25.0229 30.4058 21.8556 30.4058 18.3592V10.3429L20 6.43999L9.59417 10.3429V18.3592C9.59417 21.8556 10.5696 25.0229 12.5204 27.8612C14.4712 30.6996 16.9644 32.609 20 33.5896Z" fill="white"/>
</svg>
