<svg width="40" height="40" viewBox="0 0 40 40" fill="none" xmlns="http://www.w3.org/2000/svg">
<path d="M14.5532 32.1346L13.0619 30.6434L16.5019 27.1688C13.0014 26.7408 10.0703 25.8777 7.70859 24.5796C5.3472 23.2816 4.1665 21.7138 4.1665 19.8763C4.1665 17.8796 5.70331 16.1644 8.77692 14.7305C11.8508 13.2963 15.5918 12.5792 19.9998 12.5792C24.4193 12.5792 28.163 13.2963 31.2311 14.7305C34.2991 16.1644 35.8332 17.8796 35.8332 19.8763C35.8332 21.3008 35.0083 22.5977 33.3586 23.7671C31.7091 24.9366 29.5197 25.8389 26.7903 26.4742V24.2671C28.9705 23.7188 30.6737 23.017 31.8998 22.1617C33.1259 21.3067 33.739 20.5449 33.739 19.8763C33.739 18.9552 32.5647 17.8577 30.2161 16.5838C27.8675 15.3099 24.4621 14.673 19.9998 14.673C15.549 14.673 12.1464 15.3099 9.79192 16.5838C7.43775 17.8577 6.26067 18.9552 6.26067 19.8763C6.26067 20.8891 7.11998 21.8684 8.83859 22.8142C10.5572 23.7601 13.0989 24.5208 16.4636 25.0963L13.0619 21.7288L14.5532 20.2371L20.5019 26.1688L14.5532 32.1346Z" fill="white"/>
</svg>
