<svg width="40" height="40" viewBox="0 0 40 40" fill="none" xmlns="http://www.w3.org/2000/svg">
<path d="M11.4531 24.5404V22.7671H7.0835V20.6729H15.8227V16.0041H8.37183C8.0285 16.0041 7.72794 15.8789 7.47016 15.6283C7.21238 15.3778 7.0835 15.07 7.0835 14.705V8.40831C7.0835 8.04331 7.20697 7.74012 7.45391 7.49873C7.70086 7.25734 8.00113 7.13665 8.35475 7.13665H11.4531V5.37415H13.5472V7.13665H17.9168V9.23081H9.17766V13.9104H16.6285C16.9902 13.9104 17.2953 14.031 17.5439 14.2721C17.7925 14.5135 17.9168 14.8223 17.9168 15.1987V21.4958C17.9168 21.8494 17.7961 22.1497 17.5547 22.3966C17.3134 22.6436 17.0103 22.7671 16.6456 22.7671H13.5472V24.5404H11.4531ZM23.2502 34.3804L16.7439 27.8737L18.2181 26.3996L23.2502 31.4316L32.981 21.7008L34.4552 23.1754L23.2502 34.3804Z" fill="white"/>
</svg>
