<svg width="40" height="40" viewBox="0 0 40 40" fill="none" xmlns="http://www.w3.org/2000/svg">
<path d="M6.77359 32.5C6.0572 32.5 5.44359 32.2446 4.93275 31.7337C4.42192 31.2229 4.1665 30.6093 4.1665 29.8929V24.6325H6.26067V29.8929C6.26067 30.0212 6.314 30.1389 6.42067 30.2458C6.52762 30.3525 6.64525 30.4058 6.77359 30.4058H33.2261C33.3544 30.4058 33.4721 30.3525 33.579 30.2458C33.6857 30.1389 33.739 30.0212 33.739 29.8929V10.1071C33.739 9.97875 33.6857 9.86111 33.579 9.75417C33.4721 9.6475 33.3544 9.59417 33.2261 9.59417H6.77359C6.64525 9.59417 6.52762 9.6475 6.42067 9.75417C6.314 9.86111 6.26067 9.97875 6.26067 10.1071V15.4017H4.1665V10.1071C4.1665 9.39069 4.42192 8.77708 4.93275 8.26625C5.44359 7.75542 6.0572 7.5 6.77359 7.5H33.2261C33.9425 7.5 34.5561 7.75542 35.0669 8.26625C35.5778 8.77708 35.8332 9.39069 35.8332 10.1071V29.8929C35.8332 30.6093 35.5778 31.2229 35.0669 31.7337C34.5561 32.2446 33.9425 32.5 33.2261 32.5H6.77359ZM19.4698 26.5404L17.9786 25.0429L21.9548 21.0642H4.1665V18.97H21.9548L17.9786 15.0021L19.4698 13.4937L25.9936 20.0171L19.4698 26.5404Z" fill="white"/>
</svg>
