<svg width="40" height="40" viewBox="0 0 40 40" fill="none" xmlns="http://www.w3.org/2000/svg">
<path d="M18.9624 34.5833V31.1408C17.4591 30.9122 16.1965 30.3633 15.1745 29.4941C14.1528 28.6247 13.407 27.477 12.937 26.0512L14.8791 25.2308C15.3577 26.5213 16.0299 27.4982 16.8958 28.1612C17.7616 28.8243 18.8637 29.1558 20.202 29.1558C21.499 29.1558 22.6252 28.8329 23.5808 28.187C24.536 27.5409 25.0137 26.5754 25.0137 25.2904C25.0137 24.0876 24.6315 23.1405 23.867 22.4491C23.1023 21.758 21.6619 21.0677 19.5458 20.3783C17.4624 19.713 15.9555 18.8968 15.0249 17.9295C14.0944 16.9623 13.6291 15.7294 13.6291 14.2308C13.6291 12.6888 14.1737 11.429 15.2628 10.4512C16.3517 9.47371 17.5849 8.9351 18.9624 8.83538V5.41663H21.0566V8.83538C22.2638 8.96288 23.3001 9.3276 24.1653 9.92954C25.0309 10.5312 25.7155 11.3382 26.2191 12.3504L24.3087 13.237C23.9134 12.4337 23.3785 11.8201 22.7041 11.3962C22.0297 10.9726 21.1592 10.7608 20.0928 10.7608C18.8159 10.7608 17.7684 11.0748 16.9503 11.7029C16.1323 12.3312 15.7233 13.1682 15.7233 14.2137C15.7233 15.2479 16.1131 16.0883 16.8928 16.735C17.6728 17.3816 19.1697 18.0462 21.3833 18.7287C23.3422 19.3454 24.7859 20.179 25.7145 21.2295C26.6434 22.2801 27.1078 23.6018 27.1078 25.1945C27.1078 26.9118 26.5556 28.2838 25.4512 29.3108C24.347 30.338 22.8822 30.9559 21.0566 31.1645V34.5833H18.9624Z" fill="white"/>
</svg>
