<svg width="40" height="40" viewBox="0 0 40 40" fill="none" xmlns="http://www.w3.org/2000/svg">
<path d="M10.9167 26.5064C9.26507 26.5064 8.00548 26.2853 7.13798 25.843C6.27048 25.4008 5.46701 24.5654 4.72757 23.3368C4.28951 22.6101 3.93007 21.773 3.64923 20.8255C3.36812 19.8778 3.11868 18.9936 2.9009 18.173C2.59534 18.173 2.33993 18.0758 2.13465 17.8814C1.92965 17.6869 1.82715 17.4369 1.82715 17.1314V15.4105C1.82715 15.1497 1.91048 14.9264 2.07715 14.7405C2.24382 14.5547 2.45743 14.434 2.71798 14.3784C4.15604 14.0834 5.50173 13.8665 6.75506 13.7276C8.00812 13.5887 9.23937 13.5193 10.4488 13.5193C12.0044 13.5193 13.459 13.6422 14.8126 13.888C16.1662 14.1336 17.296 14.5578 18.2021 15.1605H21.8396C22.6666 14.543 23.781 14.1122 25.183 13.868C26.5847 13.6241 28.0546 13.5022 29.593 13.5022C30.7802 13.5022 31.9991 13.5746 33.2496 13.7193C34.4999 13.8637 35.8441 14.0834 37.2822 14.3784C37.5322 14.434 37.7431 14.5547 37.9151 14.7405C38.087 14.9264 38.173 15.1497 38.173 15.4105V17.1314C38.173 17.4369 38.0705 17.6869 37.8655 17.8814C37.6602 18.0758 37.4048 18.173 37.0992 18.173C36.8815 18.9936 36.632 19.8751 36.3509 20.8176C36.0701 21.7598 35.7106 22.5996 35.2726 23.3368C34.5717 24.5376 33.7778 25.3661 32.8909 25.8222C32.0042 26.2783 30.7351 26.5064 29.0834 26.5064C27.3762 26.5064 25.9506 26.1311 24.8067 25.3805C23.6628 24.6297 22.8031 23.4591 22.2276 21.8689C22.0667 21.4244 21.9459 20.98 21.8651 20.5355C21.7842 20.0911 21.6744 19.6466 21.5355 19.2022C21.4244 18.8475 21.2337 18.5804 20.9634 18.4009C20.6928 18.2212 20.3717 18.1314 20.0001 18.1314C19.6453 18.1314 19.3381 18.2254 19.0784 18.4134C18.819 18.6015 18.6198 18.8644 18.4809 19.2022C18.342 19.6466 18.2213 20.0883 18.1188 20.5272C18.016 20.9664 17.8952 21.4136 17.7563 21.8689C17.2841 23.5033 16.4556 24.6848 15.2709 25.4134C14.0862 26.1421 12.6348 26.5064 10.9167 26.5064ZM10.9167 24.9318C13.1626 24.9318 14.689 24.2347 15.4959 22.8405C16.3028 21.4461 16.7063 19.7643 16.7063 17.7951C16.7063 17.0793 16.4126 16.5719 15.8251 16.273C15.2373 15.9741 14.5431 15.7226 13.7426 15.5184C12.8415 15.284 11.8767 15.1504 10.8484 15.1176C9.81979 15.0848 8.82548 15.1379 7.86548 15.2768C7.04909 15.3993 6.3927 15.6543 5.89632 16.0418C5.39993 16.4293 5.15173 16.9432 5.15173 17.5834C5.15173 18.3848 5.21979 19.1519 5.3559 19.8847C5.49201 20.6178 5.69604 21.3015 5.96798 21.9359C6.48576 23.0698 7.08548 23.8526 7.76715 24.2843C8.44882 24.7159 9.49868 24.9318 10.9167 24.9318ZM29.0834 24.9318C30.5015 24.9318 31.557 24.7132 32.2501 24.2759C32.9431 23.8384 33.529 23.0584 34.0076 21.9359C34.2795 21.3084 34.4877 20.6236 34.6321 19.8814C34.7763 19.1394 34.8484 18.3596 34.8484 17.5418C34.8484 16.8793 34.6002 16.3529 34.1038 15.9626C33.6074 15.5723 32.9371 15.3298 32.093 15.2351C31.1435 15.1076 30.1572 15.0644 29.1338 15.1055C28.1102 15.1464 27.1515 15.284 26.2576 15.5184C25.457 15.7226 24.7628 15.9701 24.1751 16.2609C23.5876 16.5515 23.2938 17.0582 23.2938 17.7809C23.2938 19.7432 23.6973 21.4255 24.5042 22.828C25.3112 24.2305 26.8376 24.9318 29.0834 24.9318Z" fill="white"/>
</svg>
