<svg width="40" height="40" viewBox="0 0 40 40" fill="none" xmlns="http://www.w3.org/2000/svg">
<path d="M18.9744 34.1667V32.0725H31.5594C31.6986 32.0725 31.8189 32.0299 31.9203 31.9446C32.0216 31.8591 32.0723 31.7468 32.0723 31.608V19.545C32.0723 16.2681 30.8932 13.5087 28.5348 11.2667C26.1762 9.02476 23.3316 7.90379 20.0011 7.90379C16.6703 7.90379 13.8253 9.02476 11.4661 11.2667C9.10692 13.5087 7.92734 16.2681 7.92734 19.545V29.3588H7.08317C6.284 29.3588 5.59817 29.0806 5.02567 28.5242C4.45289 27.9675 4.1665 27.2896 4.1665 26.4905V23.2534C4.1665 22.7128 4.32039 22.2175 4.62817 21.7675C4.93595 21.3178 5.33762 20.9563 5.83317 20.683L5.91025 18.5546C6.04692 16.7405 6.51803 15.0599 7.32359 13.513C8.12914 11.966 9.1622 10.6193 10.4228 9.47296C11.6836 8.32657 13.1387 7.43337 14.7882 6.79337C16.4379 6.15337 18.1751 5.83337 19.9998 5.83337C21.8246 5.83337 23.5575 6.15337 25.1986 6.79337C26.8397 7.43337 28.2948 8.32226 29.564 9.46004C30.8332 10.5978 31.8662 11.9402 32.6632 13.4871C33.4601 15.0343 33.9355 16.7149 34.0894 18.5288L34.1665 20.6155C34.6515 20.8441 35.0505 21.171 35.3636 21.5963C35.6766 22.0216 35.8332 22.4959 35.8332 23.0192V26.7405C35.8332 27.2638 35.6766 27.7381 35.3636 28.1634C35.0505 28.5887 34.6515 28.9156 34.1665 29.1442V31.608C34.1665 32.3168 33.9105 32.9205 33.3986 33.4188C32.8866 33.9174 32.2736 34.1667 31.5594 34.1667H18.9744ZM14.4182 22.3875C14.1721 22.1489 14.049 21.8535 14.049 21.5013C14.049 21.1493 14.1737 20.853 14.4232 20.6121C14.6726 20.3716 14.9733 20.2513 15.3253 20.2513C15.6775 20.2513 15.9766 20.3732 16.2228 20.6171C16.4689 20.8613 16.5919 21.1595 16.5919 21.5117C16.5919 21.8637 16.4672 22.1573 16.2178 22.3925C15.968 22.6281 15.6672 22.7459 15.3153 22.7459C14.9633 22.7459 14.6643 22.6264 14.4182 22.3875ZM23.7769 22.3875C23.5308 22.1489 23.4078 21.8535 23.4078 21.5013C23.4078 21.1493 23.5326 20.853 23.7823 20.6121C24.0318 20.3716 24.3325 20.2513 24.6844 20.2513C25.0364 20.2513 25.3354 20.3732 25.5815 20.6171C25.8276 20.8613 25.9507 21.1595 25.9507 21.5117C25.9507 21.8637 25.826 22.1573 25.5765 22.3925C25.3271 22.6281 25.0264 22.7459 24.6744 22.7459C24.3222 22.7459 24.023 22.6264 23.7769 22.3875ZM10.6186 20.3334C10.4455 17.6134 11.2916 15.2859 13.1569 13.3509C15.0222 11.4162 17.3325 10.4488 20.0878 10.4488C22.3666 10.4488 24.3666 11.1716 26.0878 12.6171C27.8091 14.0627 28.8589 15.9071 29.2369 18.1505C26.8994 18.1227 24.7476 17.4935 22.7815 16.263C20.8151 15.0321 19.2987 13.373 18.2323 11.2855C17.8123 13.358 16.9272 15.1902 15.5769 16.7821C14.2264 18.3741 12.5736 19.5578 10.6186 20.3334Z" fill="white"/>
</svg>
