<svg width="199" height="24" viewBox="0 0 199 24" fill="none" xmlns="http://www.w3.org/2000/svg">
<path d="M3.22266 0.9375V18H0V0.9375H3.22266ZM10.1016 8.30859V10.8516H2.37891V8.30859H10.1016ZM11.0039 0.9375V3.48047H2.37891V0.9375H11.0039ZM20.25 14.9883V5.32031H23.3672V18H20.4375L20.25 14.9883ZM20.6484 12.3633L21.6094 12.3398C21.6094 13.1914 21.5156 13.9766 21.3281 14.6953C21.1406 15.4141 20.8477 16.0391 20.4492 16.5703C20.0586 17.0938 19.5625 17.5039 18.9609 17.8008C18.3594 18.0898 17.6484 18.2344 16.8281 18.2344C16.2031 18.2344 15.6328 18.1484 15.1172 17.9766C14.6016 17.7969 14.1562 17.5195 13.7812 17.1445C13.4141 16.7617 13.1289 16.2734 12.9258 15.6797C12.7227 15.0781 12.6211 14.3555 12.6211 13.5117V5.32031H15.7148V13.5352C15.7148 13.957 15.7617 14.3086 15.8555 14.5898C15.957 14.8711 16.0938 15.1016 16.2656 15.2812C16.4453 15.4531 16.6523 15.5781 16.8867 15.6562C17.1289 15.7266 17.3867 15.7617 17.6602 15.7617C18.4102 15.7617 19 15.6133 19.4297 15.3164C19.8672 15.0117 20.1797 14.6055 20.3672 14.0977C20.5547 13.582 20.6484 13.0039 20.6484 12.3633ZM29.3906 0V18H26.2852V0H29.3906ZM35.625 0V18H32.5195V0H35.625ZM42.293 16.5938L45.6914 5.32031H49.0078L43.9219 19.9219C43.8047 20.2344 43.6523 20.5742 43.4648 20.9414C43.2852 21.3086 43.043 21.6562 42.7383 21.9844C42.4336 22.3203 42.0508 22.5938 41.5898 22.8047C41.1367 23.0156 40.5859 23.1211 39.9375 23.1211C39.6562 23.1211 39.4062 23.1016 39.1875 23.0625C38.9688 23.0234 38.7383 22.9727 38.4961 22.9102V20.5898C38.5742 20.5977 38.6641 20.6016 38.7656 20.6016C38.875 20.6094 38.9688 20.6133 39.0469 20.6133C39.5 20.6133 39.875 20.5586 40.1719 20.4492C40.4688 20.3477 40.707 20.1797 40.8867 19.9453C41.0742 19.7188 41.2305 19.4219 41.3555 19.0547L42.293 16.5938ZM40.6172 5.32031L43.4883 14.6602L43.9922 17.9297L41.8594 18.3164L37.2773 5.32031H40.6172ZM59.7656 5.32031V18H56.6602V5.32031H59.7656ZM56.4492 2.00391C56.4492 1.54297 56.6055 1.16016 56.918 0.855469C57.2383 0.550781 57.668 0.398438 58.207 0.398438C58.7461 0.398438 59.1719 0.550781 59.4844 0.855469C59.8047 1.16016 59.9648 1.54297 59.9648 2.00391C59.9648 2.45703 59.8047 2.83594 59.4844 3.14062C59.1719 3.44531 58.7461 3.59766 58.207 3.59766C57.668 3.59766 57.2383 3.44531 56.918 3.14062C56.6055 2.83594 56.4492 2.45703 56.4492 2.00391ZM65.7539 8.02734V18H62.6602V5.32031H65.5664L65.7539 8.02734ZM65.2617 11.2031H64.3477C64.3555 10.2812 64.4805 9.44531 64.7227 8.69531C64.9648 7.94531 65.3047 7.30078 65.7422 6.76172C66.1875 6.22266 66.7148 5.80859 67.3242 5.51953C67.9336 5.23047 68.6133 5.08594 69.3633 5.08594C69.9727 5.08594 70.5234 5.17188 71.0156 5.34375C71.5078 5.51562 71.9297 5.78906 72.2812 6.16406C72.6406 6.53906 72.9141 7.03125 73.1016 7.64062C73.2969 8.24219 73.3945 8.98438 73.3945 9.86719V18H70.2773V9.84375C70.2773 9.26562 70.1914 8.80859 70.0195 8.47266C69.8555 8.13672 69.6133 7.89844 69.293 7.75781C68.9805 7.61719 68.5938 7.54688 68.1328 7.54688C67.6562 7.54688 67.2383 7.64453 66.8789 7.83984C66.5273 8.02734 66.2305 8.28906 65.9883 8.625C65.7539 8.96094 65.5742 9.34766 65.4492 9.78516C65.3242 10.2227 65.2617 10.6953 65.2617 11.2031ZM83.0977 14.5312C83.0977 14.2656 83.0273 14.0273 82.8867 13.8164C82.7461 13.6055 82.4805 13.4141 82.0898 13.2422C81.707 13.0625 81.1445 12.8945 80.4023 12.7383C79.7461 12.5977 79.1406 12.4219 78.5859 12.2109C78.0312 12 77.5547 11.7461 77.1562 11.4492C76.7578 11.1445 76.4453 10.7891 76.2188 10.3828C76 9.96875 75.8906 9.49219 75.8906 8.95312C75.8906 8.42969 76.0039 7.9375 76.2305 7.47656C76.457 7.00781 76.7852 6.59766 77.2148 6.24609C77.6445 5.88672 78.168 5.60547 78.7852 5.40234C79.4023 5.19141 80.0977 5.08594 80.8711 5.08594C81.9492 5.08594 82.875 5.26172 83.6484 5.61328C84.4297 5.96484 85.0273 6.44922 85.4414 7.06641C85.8555 7.67578 86.0625 8.36328 86.0625 9.12891H82.9688C82.9688 8.79297 82.8906 8.48828 82.7344 8.21484C82.5859 7.94141 82.3555 7.72266 82.043 7.55859C81.7305 7.38672 81.3359 7.30078 80.8594 7.30078C80.4297 7.30078 80.0664 7.37109 79.7695 7.51172C79.4805 7.65234 79.2617 7.83594 79.1133 8.0625C78.9648 8.28906 78.8906 8.53906 78.8906 8.8125C78.8906 9.01562 78.9297 9.19922 79.0078 9.36328C79.0938 9.51953 79.2305 9.66406 79.418 9.79688C79.6055 9.92969 79.8594 10.0508 80.1797 10.1602C80.5078 10.2695 80.9102 10.375 81.3867 10.4766C82.332 10.6641 83.1562 10.9141 83.8594 11.2266C84.5703 11.5312 85.125 11.9375 85.5234 12.4453C85.9219 12.9531 86.1211 13.6016 86.1211 14.3906C86.1211 14.9531 86 15.4688 85.7578 15.9375C85.5156 16.3984 85.1641 16.8008 84.7031 17.1445C84.2422 17.4883 83.6914 17.7578 83.0508 17.9531C82.4102 18.1406 81.6875 18.2344 80.8828 18.2344C79.7188 18.2344 78.7344 18.0273 77.9297 17.6133C77.125 17.1914 76.5156 16.6602 76.1016 16.0195C75.6875 15.3711 75.4805 14.6992 75.4805 14.0039H78.4453C78.4688 14.4961 78.6016 14.8906 78.8438 15.1875C79.0859 15.4844 79.3906 15.6992 79.7578 15.832C80.1328 15.957 80.5273 16.0195 80.9414 16.0195C81.4102 16.0195 81.8047 15.957 82.125 15.832C82.4453 15.6992 82.6875 15.5234 82.8516 15.3047C83.0156 15.0781 83.0977 14.8203 83.0977 14.5312ZM96.0234 14.9883V5.32031H99.1406V18H96.2109L96.0234 14.9883ZM96.4219 12.3633L97.3828 12.3398C97.3828 13.1914 97.2891 13.9766 97.1016 14.6953C96.9141 15.4141 96.6211 16.0391 96.2227 16.5703C95.832 17.0938 95.3359 17.5039 94.7344 17.8008C94.1328 18.0898 93.4219 18.2344 92.6016 18.2344C91.9766 18.2344 91.4062 18.1484 90.8906 17.9766C90.375 17.7969 89.9297 17.5195 89.5547 17.1445C89.1875 16.7617 88.9023 16.2734 88.6992 15.6797C88.4961 15.0781 88.3945 14.3555 88.3945 13.5117V5.32031H91.4883V13.5352C91.4883 13.957 91.5352 14.3086 91.6289 14.5898C91.7305 14.8711 91.8672 15.1016 92.0391 15.2812C92.2188 15.4531 92.4258 15.5781 92.6602 15.6562C92.9023 15.7266 93.1602 15.7617 93.4336 15.7617C94.1836 15.7617 94.7734 15.6133 95.2031 15.3164C95.6406 15.0117 95.9531 14.6055 96.1406 14.0977C96.3281 13.582 96.4219 13.0039 96.4219 12.3633ZM104.977 7.91016V18H101.883V5.32031H104.812L104.977 7.91016ZM108.832 5.23828L108.785 8.12109C108.613 8.08984 108.418 8.06641 108.199 8.05078C107.988 8.03516 107.789 8.02734 107.602 8.02734C107.125 8.02734 106.707 8.09375 106.348 8.22656C105.988 8.35156 105.688 8.53516 105.445 8.77734C105.211 9.01953 105.031 9.31641 104.906 9.66797C104.781 10.0117 104.711 10.4023 104.695 10.8398L104.027 10.7578C104.027 9.95312 104.109 9.20703 104.273 8.51953C104.438 7.83203 104.676 7.23047 104.988 6.71484C105.301 6.19922 105.691 5.80078 106.16 5.51953C106.637 5.23047 107.184 5.08594 107.801 5.08594C107.973 5.08594 108.156 5.10156 108.352 5.13281C108.555 5.15625 108.715 5.19141 108.832 5.23828ZM116.016 18.2344C115.055 18.2344 114.191 18.0781 113.426 17.7656C112.66 17.4531 112.008 17.0195 111.469 16.4648C110.938 15.9023 110.527 15.25 110.238 14.5078C109.957 13.7578 109.816 12.9531 109.816 12.0938V11.625C109.816 10.6484 109.957 9.76172 110.238 8.96484C110.52 8.16016 110.918 7.46875 111.434 6.89062C111.949 6.3125 112.566 5.86719 113.285 5.55469C114.004 5.24219 114.797 5.08594 115.664 5.08594C116.562 5.08594 117.355 5.23828 118.043 5.54297C118.73 5.83984 119.305 6.26172 119.766 6.80859C120.227 7.35547 120.574 8.01172 120.809 8.77734C121.043 9.53516 121.16 10.375 121.16 11.2969V12.5977H111.223V10.4648H118.113V10.2305C118.098 9.73828 118.004 9.28906 117.832 8.88281C117.66 8.46875 117.395 8.14062 117.035 7.89844C116.676 7.64844 116.211 7.52344 115.641 7.52344C115.18 7.52344 114.777 7.625 114.434 7.82812C114.098 8.02344 113.816 8.30469 113.59 8.67188C113.371 9.03125 113.207 9.46094 113.098 9.96094C112.988 10.4609 112.934 11.0156 112.934 11.625V12.0938C112.934 12.625 113.004 13.1172 113.145 13.5703C113.293 14.0234 113.508 14.418 113.789 14.7539C114.078 15.082 114.422 15.3398 114.82 15.5273C115.227 15.707 115.688 15.7969 116.203 15.7969C116.852 15.7969 117.438 15.6719 117.961 15.4219C118.492 15.1641 118.953 14.7852 119.344 14.2852L120.902 15.9023C120.637 16.293 120.277 16.668 119.824 17.0273C119.379 17.3867 118.84 17.6797 118.207 17.9062C117.574 18.125 116.844 18.2344 116.016 18.2344ZM130.84 15.3047V0H133.957V18H131.145L130.84 15.3047ZM122.695 11.8125V11.5664C122.695 10.5977 122.805 9.71875 123.023 8.92969C123.25 8.13281 123.578 7.44922 124.008 6.87891C124.438 6.30859 124.957 5.86719 125.566 5.55469C126.184 5.24219 126.883 5.08594 127.664 5.08594C128.422 5.08594 129.082 5.23828 129.645 5.54297C130.215 5.84766 130.699 6.28125 131.098 6.84375C131.504 7.40625 131.828 8.07422 132.07 8.84766C132.312 9.61328 132.488 10.457 132.598 11.3789V12.0469C132.488 12.9453 132.312 13.7695 132.07 14.5195C131.828 15.2695 131.504 15.9258 131.098 16.4883C130.699 17.043 130.215 17.4727 129.645 17.7773C129.074 18.082 128.406 18.2344 127.641 18.2344C126.867 18.2344 126.172 18.0742 125.555 17.7539C124.945 17.4336 124.426 16.9844 123.996 16.4062C123.574 15.8281 123.25 15.1484 123.023 14.3672C122.805 13.5859 122.695 12.7344 122.695 11.8125ZM125.801 11.5664V11.8125C125.801 12.3594 125.848 12.8711 125.941 13.3477C126.035 13.8242 126.188 14.2461 126.398 14.6133C126.609 14.9727 126.879 15.2539 127.207 15.457C127.543 15.6602 127.949 15.7617 128.426 15.7617C129.035 15.7617 129.535 15.6289 129.926 15.3633C130.324 15.0898 130.633 14.7188 130.852 14.25C131.07 13.7734 131.211 13.2383 131.273 12.6445V10.8047C131.242 10.3359 131.16 9.90234 131.027 9.50391C130.902 9.10547 130.723 8.76172 130.488 8.47266C130.262 8.18359 129.98 7.95703 129.645 7.79297C129.309 7.62891 128.91 7.54688 128.449 7.54688C127.973 7.54688 127.566 7.65234 127.23 7.86328C126.895 8.06641 126.621 8.35156 126.41 8.71875C126.199 9.08594 126.043 9.51172 125.941 9.99609C125.848 10.4805 125.801 11.0039 125.801 11.5664ZM145.828 7.75781V22.875H142.723V5.32031H145.594L145.828 7.75781ZM153.973 11.5312V11.7773C153.973 12.6992 153.863 13.5547 153.645 14.3438C153.434 15.125 153.121 15.8086 152.707 16.3945C152.293 16.9727 151.777 17.4258 151.16 17.7539C150.551 18.0742 149.848 18.2344 149.051 18.2344C148.27 18.2344 147.59 18.0859 147.012 17.7891C146.434 17.4844 145.945 17.0547 145.547 16.5C145.148 15.9453 144.828 15.3008 144.586 14.5664C144.352 13.8242 144.176 13.0156 144.059 12.1406V11.3555C144.176 10.4258 144.352 9.58203 144.586 8.82422C144.828 8.05859 145.148 7.39844 145.547 6.84375C145.945 6.28125 146.43 5.84766 147 5.54297C147.578 5.23828 148.254 5.08594 149.027 5.08594C149.832 5.08594 150.539 5.23828 151.148 5.54297C151.766 5.84766 152.285 6.28516 152.707 6.85547C153.129 7.42578 153.445 8.10547 153.656 8.89453C153.867 9.68359 153.973 10.5625 153.973 11.5312ZM150.867 11.7773V11.5312C150.867 10.9688 150.816 10.4492 150.715 9.97266C150.613 9.48828 150.457 9.06641 150.246 8.70703C150.035 8.33984 149.762 8.05469 149.426 7.85156C149.09 7.64844 148.684 7.54688 148.207 7.54688C147.73 7.54688 147.32 7.625 146.977 7.78125C146.633 7.9375 146.352 8.16016 146.133 8.44922C145.914 8.73828 145.742 9.08203 145.617 9.48047C145.5 9.87109 145.422 10.3047 145.383 10.7812V12.7266C145.453 13.3047 145.59 13.8242 145.793 14.2852C145.996 14.7461 146.293 15.1133 146.684 15.3867C147.082 15.6602 147.598 15.7969 148.23 15.7969C148.707 15.7969 149.113 15.6914 149.449 15.4805C149.785 15.2695 150.059 14.9805 150.27 14.6133C150.48 14.2383 150.633 13.8086 150.727 13.3242C150.82 12.8398 150.867 12.3242 150.867 11.7773ZM159.516 0V18H156.41V0H159.516ZM169.453 15.3047V9.45703C169.453 9.02734 169.379 8.65625 169.23 8.34375C169.082 8.03125 168.855 7.78906 168.551 7.61719C168.246 7.44531 167.859 7.35938 167.391 7.35938C166.977 7.35938 166.613 7.42969 166.301 7.57031C165.996 7.71094 165.762 7.91016 165.598 8.16797C165.434 8.41797 165.352 8.70703 165.352 9.03516H162.246C162.246 8.51172 162.371 8.01562 162.621 7.54688C162.871 7.07031 163.227 6.64844 163.688 6.28125C164.156 5.90625 164.715 5.61328 165.363 5.40234C166.02 5.19141 166.754 5.08594 167.566 5.08594C168.527 5.08594 169.383 5.25 170.133 5.57812C170.891 5.89844 171.484 6.38281 171.914 7.03125C172.352 7.67969 172.57 8.49609 172.57 9.48047V15.0117C172.57 15.6445 172.609 16.1875 172.688 16.6406C172.773 17.0859 172.898 17.4727 173.062 17.8008V18H169.91C169.762 17.6797 169.648 17.2734 169.57 16.7812C169.492 16.2812 169.453 15.7891 169.453 15.3047ZM169.887 10.2773L169.91 12.1172H167.953C167.469 12.1172 167.043 12.168 166.676 12.2695C166.309 12.3633 166.008 12.5039 165.773 12.6914C165.539 12.8711 165.363 13.0898 165.246 13.3477C165.129 13.5977 165.07 13.8828 165.07 14.2031C165.07 14.5156 165.141 14.7969 165.281 15.0469C165.43 15.2969 165.641 15.4961 165.914 15.6445C166.195 15.7852 166.523 15.8555 166.898 15.8555C167.445 15.8555 167.922 15.7461 168.328 15.5273C168.734 15.3008 169.051 15.0273 169.277 14.707C169.504 14.3867 169.625 14.082 169.641 13.793L170.531 15.1289C170.422 15.4492 170.258 15.7891 170.039 16.1484C169.82 16.5078 169.539 16.8438 169.195 17.1562C168.852 17.4688 168.438 17.7266 167.953 17.9297C167.469 18.1328 166.906 18.2344 166.266 18.2344C165.445 18.2344 164.711 18.0703 164.062 17.7422C163.414 17.4141 162.902 16.9648 162.527 16.3945C162.152 15.8242 161.965 15.1758 161.965 14.4492C161.965 13.7773 162.09 13.1836 162.34 12.668C162.59 12.1523 162.961 11.7188 163.453 11.3672C163.945 11.0078 164.555 10.7383 165.281 10.5586C166.016 10.3711 166.855 10.2773 167.801 10.2773H169.887ZM178.395 8.02734V18H175.301V5.32031H178.207L178.395 8.02734ZM177.902 11.2031H176.988C176.996 10.2812 177.121 9.44531 177.363 8.69531C177.605 7.94531 177.945 7.30078 178.383 6.76172C178.828 6.22266 179.355 5.80859 179.965 5.51953C180.574 5.23047 181.254 5.08594 182.004 5.08594C182.613 5.08594 183.164 5.17188 183.656 5.34375C184.148 5.51562 184.57 5.78906 184.922 6.16406C185.281 6.53906 185.555 7.03125 185.742 7.64062C185.938 8.24219 186.035 8.98438 186.035 9.86719V18H182.918V9.84375C182.918 9.26562 182.832 8.80859 182.66 8.47266C182.496 8.13672 182.254 7.89844 181.934 7.75781C181.621 7.61719 181.234 7.54688 180.773 7.54688C180.297 7.54688 179.879 7.64453 179.52 7.83984C179.168 8.02734 178.871 8.28906 178.629 8.625C178.395 8.96094 178.215 9.34766 178.09 9.78516C177.965 10.2227 177.902 10.6953 177.902 11.2031ZM195.738 14.5312C195.738 14.2656 195.668 14.0273 195.527 13.8164C195.387 13.6055 195.121 13.4141 194.73 13.2422C194.348 13.0625 193.785 12.8945 193.043 12.7383C192.387 12.5977 191.781 12.4219 191.227 12.2109C190.672 12 190.195 11.7461 189.797 11.4492C189.398 11.1445 189.086 10.7891 188.859 10.3828C188.641 9.96875 188.531 9.49219 188.531 8.95312C188.531 8.42969 188.645 7.9375 188.871 7.47656C189.098 7.00781 189.426 6.59766 189.855 6.24609C190.285 5.88672 190.809 5.60547 191.426 5.40234C192.043 5.19141 192.738 5.08594 193.512 5.08594C194.59 5.08594 195.516 5.26172 196.289 5.61328C197.07 5.96484 197.668 6.44922 198.082 7.06641C198.496 7.67578 198.703 8.36328 198.703 9.12891H195.609C195.609 8.79297 195.531 8.48828 195.375 8.21484C195.227 7.94141 194.996 7.72266 194.684 7.55859C194.371 7.38672 193.977 7.30078 193.5 7.30078C193.07 7.30078 192.707 7.37109 192.41 7.51172C192.121 7.65234 191.902 7.83594 191.754 8.0625C191.605 8.28906 191.531 8.53906 191.531 8.8125C191.531 9.01562 191.57 9.19922 191.648 9.36328C191.734 9.51953 191.871 9.66406 192.059 9.79688C192.246 9.92969 192.5 10.0508 192.82 10.1602C193.148 10.2695 193.551 10.375 194.027 10.4766C194.973 10.6641 195.797 10.9141 196.5 11.2266C197.211 11.5312 197.766 11.9375 198.164 12.4453C198.562 12.9531 198.762 13.6016 198.762 14.3906C198.762 14.9531 198.641 15.4688 198.398 15.9375C198.156 16.3984 197.805 16.8008 197.344 17.1445C196.883 17.4883 196.332 17.7578 195.691 17.9531C195.051 18.1406 194.328 18.2344 193.523 18.2344C192.359 18.2344 191.375 18.0273 190.57 17.6133C189.766 17.1914 189.156 16.6602 188.742 16.0195C188.328 15.3711 188.121 14.6992 188.121 14.0039H191.086C191.109 14.4961 191.242 14.8906 191.484 15.1875C191.727 15.4844 192.031 15.6992 192.398 15.832C192.773 15.957 193.168 16.0195 193.582 16.0195C194.051 16.0195 194.445 15.957 194.766 15.832C195.086 15.6992 195.328 15.5234 195.492 15.3047C195.656 15.0781 195.738 14.8203 195.738 14.5312Z" fill="black"/>
</svg>
