<svg width="40" height="40" viewBox="0 0 40 40" fill="none" xmlns="http://www.w3.org/2000/svg">
<path d="M0.833496 29.6476V27.8184C0.833496 26.7701 1.39475 25.9083 2.51725 25.233C3.63975 24.5577 5.10294 24.2201 6.90683 24.2201C7.19905 24.2201 7.49766 24.2298 7.80266 24.2493C8.10739 24.2684 8.41433 24.3026 8.7235 24.3518C8.4885 24.8245 8.31127 25.3048 8.19183 25.7926C8.07266 26.2804 8.01308 26.7801 8.01308 27.2918V29.6476H0.833496ZM10.8335 29.6476V27.3559C10.8335 26.5757 11.0525 25.8625 11.4906 25.2164C11.9286 24.57 12.56 24.0065 13.3847 23.5259C14.2095 23.0451 15.1839 22.6845 16.3081 22.4443C17.432 22.2037 18.6606 22.0834 19.9939 22.0834C21.3528 22.0834 22.5942 22.2037 23.7181 22.4443C24.842 22.6845 25.8163 23.0451 26.641 23.5259C27.466 24.0065 28.0932 24.57 28.5227 25.2164C28.9521 25.8625 29.1668 26.5757 29.1668 27.3559V29.6476H10.8335ZM31.9872 29.6476V27.2968C31.9872 26.7548 31.9336 26.2408 31.8264 25.7547C31.7192 25.2689 31.5492 24.8019 31.3164 24.3539C31.6434 24.3033 31.9546 24.2684 32.2502 24.2493C32.5457 24.2298 32.8356 24.2201 33.1197 24.2201C34.9261 24.2201 36.3856 24.5522 37.4981 25.2164C38.6106 25.8805 39.1668 26.7479 39.1668 27.8184V29.6476H31.9872ZM12.9597 27.5534H27.0493V27.2534C27.0138 26.3509 26.34 25.6126 25.0281 25.0384C23.7161 24.4646 22.0402 24.1776 20.0002 24.1776C17.9674 24.1776 16.2932 24.4646 14.9777 25.0384C13.6621 25.6126 12.9895 26.3566 12.9597 27.2705V27.5534ZM6.88016 22.8047C6.15544 22.8047 5.53544 22.5454 5.02016 22.0268C4.50461 21.5084 4.24683 20.8845 4.24683 20.1551C4.24683 19.4243 4.50613 18.8026 5.02475 18.2901C5.54308 17.7779 6.16697 17.5218 6.89641 17.5218C7.62725 17.5218 8.25155 17.7779 8.76933 18.2901C9.28711 18.8026 9.546 19.4298 9.546 20.1718C9.546 20.8857 9.29002 21.503 8.77808 22.0239C8.26614 22.5444 7.6335 22.8047 6.88016 22.8047ZM33.1077 22.8047C32.3907 22.8047 31.772 22.5437 31.2514 22.0218C30.7306 21.5001 30.4702 20.8794 30.4702 20.1597C30.4702 19.4258 30.7311 18.8026 31.2531 18.2901C31.7747 17.7779 32.3981 17.5218 33.1231 17.5218C33.8622 17.5218 34.4881 17.7779 35.0006 18.2901C35.5131 18.8026 35.7693 19.4283 35.7693 20.1672C35.7693 20.8908 35.5138 21.5114 35.0027 22.0289C34.4916 22.5461 33.8599 22.8047 33.1077 22.8047ZM20.006 20.8334C18.8054 20.8334 17.7832 20.4127 16.9393 19.5714C16.0954 18.7302 15.6735 17.7087 15.6735 16.5068C15.6735 15.2807 16.0941 14.253 16.9352 13.4239C17.7766 12.5944 18.7982 12.1797 20.0002 12.1797C21.226 12.1797 22.2536 12.5939 23.0831 13.4222C23.9122 14.2502 24.3268 15.2765 24.3268 16.5009C24.3268 17.7012 23.9128 18.7234 23.0847 19.5676C22.2564 20.4115 21.2302 20.8334 20.006 20.8334ZM20.0181 18.7397C20.645 18.7397 21.171 18.523 21.596 18.0897C22.0207 17.6566 22.2331 17.123 22.2331 16.4889C22.2331 15.8619 22.0199 15.3359 21.5935 14.9109C21.1674 14.4862 20.6395 14.2739 20.0097 14.2739C19.3864 14.2739 18.8568 14.4869 18.421 14.913C17.9852 15.3394 17.7672 15.8673 17.7672 16.4968C17.7672 17.1201 17.9838 17.6497 18.4168 18.0855C18.8502 18.5216 19.3839 18.7397 20.0181 18.7397Z" fill="white"/>
</svg>
