<svg width="40" height="40" viewBox="0 0 40 40" fill="none" xmlns="http://www.w3.org/2000/svg">
<path d="M18.205 25.1539L27.0896 16.2801L25.6175 14.8143L18.2671 22.1647L14.3908 18.2885L12.8742 19.8055L18.205 25.1539ZM20 35.7843C16.3839 34.7943 13.3965 32.65 11.0379 29.3514C8.67931 26.053 7.5 22.389 7.5 18.3593V8.89345L20 4.21387L32.5 8.89345V18.3593C32.5 22.389 31.3207 26.053 28.9621 29.3514C26.6035 32.65 23.6161 34.7943 20 35.7843ZM20 33.5897C23.0356 32.6091 25.5288 30.6997 27.4796 27.8614C29.4304 25.023 30.4058 21.8557 30.4058 18.3593V10.343L20 6.44012L9.59417 10.343V18.3593C9.59417 21.8557 10.5696 25.023 12.5204 27.8614C14.4712 30.6997 16.9644 32.6091 20 33.5897Z" fill="white"/>
</svg>
