<svg width="17" height="16" viewBox="0 0 17 16" fill="none" xmlns="http://www.w3.org/2000/svg">
<g clip-path="url(#clip0_1073_284)">
<path d="M0 1.85858C0 1.31985 0.191447 0.875409 0.574324 0.525252C0.957202 0.175079 1.45496 0 2.06757 0C2.66925 0 3.15604 0.17238 3.52799 0.517171C3.91087 0.872726 4.10232 1.33601 4.10232 1.90707C4.10232 2.42424 3.91635 2.8552 3.5444 3.2C3.16152 3.55555 2.6583 3.73333 2.03475 3.73333H2.01834C1.41666 3.73333 0.929864 3.55555 0.557915 3.2C0.185966 2.84444 0 2.3973 0 1.85858ZM0.21332 16V5.20403H3.85618V16H0.21332ZM5.87452 16H9.51737V9.9717C9.51737 9.59459 9.56114 9.30368 9.64865 9.09898C9.8018 8.73264 10.0343 8.42287 10.346 8.16968C10.6578 7.91648 11.0489 7.78989 11.5193 7.78989C12.7445 7.78989 13.3571 8.60335 13.3571 10.2303V16H17V9.81009C17 8.21547 16.6171 7.00605 15.8514 6.18181C15.0856 5.35757 14.0737 4.94545 12.8156 4.94545C11.4044 4.94545 10.305 5.54343 9.51737 6.73938V6.77171H9.50097L9.51737 6.73938V5.20403H5.87452C5.89639 5.54881 5.90734 6.62085 5.90734 8.42019C5.90734 10.2195 5.89639 12.7461 5.87452 16Z" fill="#0052FF"/>
</g>
<defs>
<clipPath id="clip0_1073_284">
<rect width="17" height="16" fill="white"/>
</clipPath>
</defs>
</svg>
