<svg width="40" height="40" viewBox="0 0 40 40" fill="none" xmlns="http://www.w3.org/2000/svg">
<path d="M6.71525 36.618C5.84942 35.7524 5.4165 34.6972 5.4165 33.4522C5.4165 32.2074 5.85095 31.154 6.71984 30.2917C7.589 29.4292 8.64275 28.998 9.88109 28.998C10.2416 28.998 10.5812 29.0377 10.8998 29.1172C11.2184 29.1966 11.5316 29.3111 11.8394 29.4605L15.719 24.643C15.1507 23.9944 14.7425 23.268 14.4944 22.4638C14.2466 21.6597 14.1915 20.8323 14.329 19.9817L8.71567 18.1101C8.31956 18.7831 7.78942 19.3152 7.12525 19.7063C6.46109 20.0972 5.70998 20.2926 4.87192 20.2926C3.64248 20.2926 2.59248 19.8584 1.72192 18.9901C0.851643 18.1215 0.416504 17.0684 0.416504 15.8309C0.416504 14.5931 0.851643 13.5409 1.72192 12.6742C2.59248 11.8076 3.64553 11.3742 4.88109 11.3742C6.11664 11.3742 7.16789 11.8081 8.03484 12.6759C8.90178 13.544 9.33525 14.5965 9.33525 15.8334C9.33525 15.9017 9.33261 15.9691 9.32734 16.0355C9.32206 16.1016 9.31942 16.1565 9.31942 16.2001L14.9444 18.1455C15.3811 17.3477 15.9443 16.6988 16.634 16.1988C17.3237 15.6988 18.1144 15.3623 19.0061 15.1892V9.21675C17.9336 8.9648 17.0879 8.42161 16.469 7.58717C15.8501 6.75272 15.5407 5.84911 15.5407 4.87633C15.5407 3.64411 15.9725 2.59272 16.8361 1.72217C17.7 0.851888 18.7554 0.416748 20.0023 0.416748C21.2493 0.416748 22.3039 0.851888 23.1661 1.72217C24.028 2.59272 24.459 3.64411 24.459 4.87633C24.459 5.84911 24.1454 6.75272 23.5182 7.58717C22.8907 8.42161 22.0491 8.9648 20.9936 9.21675V15.1892C21.8853 15.3623 22.6779 15.6988 23.3715 16.1988C24.0654 16.6988 24.6359 17.3477 25.0832 18.1455L30.6803 16.2001C30.6697 16.1548 30.6644 16.099 30.6644 16.0326V15.8334C30.6644 14.5965 31.0979 13.544 31.9648 12.6759C32.8318 11.8081 33.883 11.3742 35.1186 11.3742C36.3541 11.3742 37.4072 11.8061 38.2778 12.6697C39.148 13.5336 39.5832 14.589 39.5832 15.8359C39.5832 17.0829 39.148 18.1374 38.2778 18.9997C37.4072 19.8616 36.3572 20.2926 35.1278 20.2926C34.2897 20.2926 33.5343 20.0954 32.8615 19.7009C32.1887 19.3062 31.6629 18.7759 31.284 18.1101L25.6707 19.9817C25.8154 20.8323 25.7648 21.6599 25.519 22.4647C25.2732 23.2697 24.8604 23.9905 24.2807 24.6272L28.1603 29.4467C28.4586 29.3006 28.7694 29.1894 29.0928 29.113C29.4161 29.0363 29.754 28.998 30.1065 28.998C31.3623 28.998 32.4223 29.4292 33.2865 30.2917C34.151 31.154 34.5832 32.2074 34.5832 33.4522C34.5832 34.6972 34.1503 35.7524 33.2844 36.618C32.4189 37.4838 31.3636 37.9167 30.1186 37.9167C28.8739 37.9167 27.8204 37.4824 26.9582 36.6138C26.0957 35.7452 25.6644 34.692 25.6644 33.4543C25.6644 32.9256 25.7421 32.4372 25.8973 31.9888C26.0523 31.5402 26.2928 31.1098 26.6186 30.6976L22.739 25.8484C21.9071 26.3298 20.9897 26.5705 19.9869 26.5705C18.9841 26.5705 18.0668 26.3298 17.2348 25.8484L13.3811 30.7255C13.6966 31.1316 13.9346 31.5558 14.0948 31.998C14.2551 32.4402 14.3353 32.9256 14.3353 33.4543C14.3353 34.692 13.904 35.7452 13.0415 36.6138C12.1793 37.4824 11.1258 37.9167 9.88109 37.9167C8.63609 37.9167 7.58081 37.4838 6.71525 36.618ZM4.87859 18.1988C5.53859 18.1988 6.09734 17.9691 6.55484 17.5097C7.01262 17.0499 7.2415 16.4902 7.2415 15.8305C7.2415 15.1708 7.01164 14.612 6.55192 14.1542C6.09248 13.6967 5.53289 13.468 4.87317 13.468C4.21317 13.468 3.65442 13.6977 3.19692 14.1572C2.73942 14.6169 2.51067 15.1766 2.51067 15.8363C2.51067 16.4961 2.74039 17.0548 3.19984 17.5126C3.65928 17.9701 4.21886 18.1988 4.87859 18.1988ZM11.5548 35.1334C12.0126 34.674 12.2415 34.1144 12.2415 33.4547C12.2415 32.7947 12.0116 32.2359 11.5519 31.7784C11.0925 31.3206 10.5329 31.0917 9.87317 31.0917C9.21317 31.0917 8.65442 31.3216 8.19692 31.7813C7.73942 32.2408 7.51067 32.8004 7.51067 33.4601C7.51067 34.1201 7.74039 34.6788 8.19984 35.1363C8.65928 35.5938 9.21887 35.8226 9.87859 35.8226C10.5386 35.8226 11.0973 35.5929 11.5548 35.1334ZM21.679 6.55217C22.1365 6.09272 22.3653 5.53314 22.3653 4.87342C22.3653 4.21342 22.1355 3.65466 21.6761 3.19716C21.2164 2.73966 20.6566 2.51092 19.9969 2.51092C19.3372 2.51092 18.7785 2.74064 18.3207 3.20008C17.8632 3.65953 17.6344 4.21911 17.6344 4.87883C17.6344 5.53883 17.8641 6.09758 18.3236 6.55508C18.7833 7.01286 19.343 7.24175 20.0028 7.24175C20.6625 7.24175 21.2212 7.01189 21.679 6.55217ZM20.0086 24.4767C21.0205 24.4767 21.8793 24.1211 22.5848 23.4097C23.2904 22.6986 23.6432 21.8369 23.6432 20.8247C23.6432 19.8127 23.2893 18.954 22.5815 18.2484C21.874 17.5429 21.0134 17.1901 19.9998 17.1901C18.9934 17.1901 18.1347 17.544 17.4236 18.2517C16.7122 18.9592 16.3565 19.8198 16.3565 20.8334C16.3565 21.8398 16.7122 22.6986 17.4236 23.4097C18.1347 24.1211 18.9964 24.4767 20.0086 24.4767ZM31.8028 35.1334C32.2603 34.674 32.489 34.1144 32.489 33.4547C32.489 32.7947 32.2593 32.2359 31.7998 31.7784C31.3404 31.3206 30.7808 31.0917 30.1211 31.0917C29.4611 31.0917 28.9023 31.3216 28.4448 31.7813C27.9871 32.2408 27.7582 32.8004 27.7582 33.4601C27.7582 34.1201 27.988 34.6788 28.4478 35.1363C28.9072 35.5938 29.4668 35.8226 30.1265 35.8226C30.7865 35.8226 31.3453 35.5929 31.8028 35.1334ZM36.8028 17.5097C37.2603 17.0499 37.489 16.4902 37.489 15.8305C37.489 15.1708 37.2593 14.612 36.7998 14.1542C36.3404 13.6967 35.7808 13.468 35.1211 13.468C34.4611 13.468 33.9023 13.6977 33.4448 14.1572C32.9871 14.6169 32.7582 15.1766 32.7582 15.8363C32.7582 16.4961 32.988 17.0548 33.4478 17.5126C33.9072 17.9701 34.4668 18.1988 35.1265 18.1988C35.7865 18.1988 36.3453 17.9691 36.8028 17.5097Z" fill="white"/>
</svg>
