<svg width="40" height="40" viewBox="0 0 40 40" fill="none" xmlns="http://www.w3.org/2000/svg">
<path d="M27.7098 17.7101C27.9971 17.4226 28.1407 17.0748 28.1407 16.6667C28.1407 16.2587 27.9971 15.9109 27.7098 15.6234C27.4223 15.3362 27.0746 15.1926 26.6665 15.1926C26.2584 15.1926 25.9107 15.3362 25.6232 15.6234C25.3359 15.9109 25.1923 16.2587 25.1923 16.6667C25.1923 17.0748 25.3359 17.4226 25.6232 17.7101C25.9107 17.9973 26.2584 18.1409 26.6665 18.1409C27.0746 18.1409 27.4223 17.9973 27.7098 17.7101ZM13.3332 14.1776H21.6665V12.0834H13.3332V14.1776ZM8.12484 34.1667C7.24456 31.1281 6.36484 28.1047 5.48567 25.0963C4.60623 22.0877 4.1665 19.0001 4.1665 15.8334C4.1665 13.5129 4.97525 11.5438 6.59275 9.92633C8.21025 8.30883 10.1793 7.50008 12.4998 7.50008H21.2498C22.0126 6.49786 22.9278 5.69175 23.9953 5.08175C25.0625 4.47175 26.2307 4.16675 27.4998 4.16675C27.9593 4.16675 28.3519 4.32966 28.6778 4.6555C29.0036 4.98133 29.1665 5.37397 29.1665 5.83341C29.1665 5.94675 29.1509 6.05994 29.1198 6.173C29.089 6.28633 29.0565 6.39105 29.0223 6.48716C28.8684 6.88883 28.7375 7.30022 28.6294 7.72133C28.5216 8.14216 28.4293 8.5673 28.3523 8.99675L32.689 13.3334H35.8332V23.5159L31.2848 25.0097L28.5415 34.1667H20.8332V30.8334H15.8332V34.1667H8.12484ZM9.70067 32.0726H13.739V28.7392H22.9273V32.0726H26.9765L29.5769 23.4105L33.739 21.9905V15.4276H31.8244L26.239 9.84217C26.2504 9.21522 26.3115 8.61105 26.4223 8.02967C26.5332 7.448 26.6744 6.86661 26.8461 6.2855C25.9236 6.5305 25.0796 6.92911 24.314 7.48133C23.5482 8.03383 22.9523 8.73814 22.5265 9.59425H12.4998C10.7709 9.59425 9.29886 10.2019 8.08359 11.4172C6.86831 12.6324 6.26067 14.1045 6.26067 15.8334C6.26067 18.6267 6.64887 21.3559 7.42525 24.0209C8.20137 26.6859 8.95984 29.3698 9.70067 32.0726Z" fill="white"/>
</svg>
