<svg width="40" height="40" viewBox="0 0 40 40" fill="none" xmlns="http://www.w3.org/2000/svg">
<path d="M28.7467 11.2508C31.1433 13.6458 32.3417 16.5614 32.3417 19.9975C32.3417 23.4336 31.1442 26.35 28.7492 28.7467C26.3542 31.1433 23.4386 32.3417 20.0025 32.3417C16.5664 32.3417 13.65 31.1442 11.2533 28.7492C8.85667 26.3542 7.65833 23.4386 7.65833 20.0025C7.65833 16.5664 8.85583 13.65 11.2508 11.2533C13.6458 8.85667 16.5614 7.65833 19.9975 7.65833C23.4336 7.65833 26.35 8.85583 28.7467 11.2508ZM27.2467 27.2442C29.2475 25.2419 30.2479 22.8264 30.2479 19.9975C30.2479 17.1686 29.2467 14.7539 27.2442 12.7533C25.2419 10.7525 22.8264 9.75208 19.9975 9.75208C17.1686 9.75208 14.7539 10.7533 12.7533 12.7558C10.7525 14.7581 9.75208 17.1736 9.75208 20.0025C9.75208 22.8314 10.7533 25.2461 12.7558 27.2467C14.7581 29.2475 17.1736 30.2479 20.0025 30.2479C22.8314 30.2479 25.2461 29.2467 27.2467 27.2442ZM23.3846 24.4321C24.3937 23.7529 25.1501 22.8368 25.6538 21.6838H14.3463C14.8313 22.8368 15.5831 23.7529 16.6017 24.4321C17.62 25.1112 18.7528 25.4508 20 25.4508C21.2472 25.4508 22.3754 25.1112 23.3846 24.4321ZM14.7692 17.6492C15.0514 17.9272 15.4078 18.0663 15.8383 18.0663C16.2689 18.0663 16.6243 17.9263 16.9046 17.6463C17.1846 17.3663 17.3246 17.0125 17.3246 16.585C17.3246 16.1572 17.1829 15.8025 16.8996 15.5208C16.616 15.2392 16.2603 15.0983 15.8325 15.0983C15.405 15.0983 15.0504 15.2401 14.7688 15.5238C14.4871 15.8074 14.3463 16.1629 14.3463 16.5904C14.3463 17.0179 14.4872 17.3708 14.7692 17.6492ZM23.0983 17.6492C23.3803 17.9272 23.7367 18.0663 24.1675 18.0663C24.5981 18.0663 24.9535 17.9263 25.2337 17.6463C25.5138 17.3663 25.6538 17.0125 25.6538 16.585C25.6538 16.1572 25.5119 15.8025 25.2283 15.5208C24.945 15.2392 24.5894 15.0983 24.1617 15.0983C23.7342 15.0983 23.3796 15.2401 23.0979 15.5238C22.8162 15.8074 22.6754 16.1629 22.6754 16.5904C22.6754 17.0179 22.8164 17.3708 23.0983 17.6492ZM2.5 9.78V5.10708C2.5 4.39569 2.75667 3.78333 3.27 3.27C3.78333 2.75667 4.39569 2.5 5.10708 2.5H9.78V4.59417H5.10708C4.95736 4.59417 4.83444 4.64222 4.73833 4.73833C4.64222 4.83444 4.59417 4.95736 4.59417 5.10708V9.78H2.5ZM9.78 37.5H5.10708C4.39569 37.5 3.78333 37.2433 3.27 36.73C2.75667 36.2167 2.5 35.6043 2.5 34.8929V30.22H4.59417V34.8929C4.59417 35.0426 4.64222 35.1656 4.73833 35.2617C4.83444 35.3578 4.95736 35.4058 5.10708 35.4058H9.78V37.5ZM30.22 37.2604V35.1667H34.8929C35.0426 35.1667 35.1656 35.1168 35.2617 35.0171C35.3578 34.9174 35.4058 34.7962 35.4058 34.6538V29.9638H37.5V34.6538C37.5 35.3651 37.2433 35.9775 36.73 36.4908C36.2167 37.0039 35.6043 37.2604 34.8929 37.2604H30.22ZM35.4058 9.78V5.10708C35.4058 4.95736 35.3578 4.83444 35.2617 4.73833C35.1656 4.64222 35.0426 4.59417 34.8929 4.59417H30.22V2.5H34.8929C35.6043 2.5 36.2167 2.75667 36.73 3.27C37.2433 3.78333 37.5 4.39569 37.5 5.10708V9.78H35.4058Z" fill="white"/>
</svg>
