<svg width="40" height="40" viewBox="0 0 40 40" fill="none" xmlns="http://www.w3.org/2000/svg">
<path d="M29.25 19.125L24.2362 14.0833L25.7083 12.625L29.25 16.1667L36.3333 9.08334L37.8075 10.5833L29.25 19.125ZM10.9783 17.8617C9.90583 16.7895 9.36958 15.4471 9.36958 13.8346C9.36958 12.2221 9.90583 10.8814 10.9783 9.81251C12.0506 8.7439 13.3911 8.20959 15 8.20959C16.6089 8.20959 17.9494 8.7439 19.0217 9.81251C20.0942 10.8814 20.6304 12.2221 20.6304 13.8346C20.6304 15.4471 20.0942 16.7895 19.0217 17.8617C17.9494 18.9339 16.6089 19.47 15 19.47C13.3911 19.47 12.0506 18.9339 10.9783 17.8617ZM2.5 32.1796V28.8354C2.5 28.0079 2.72167 27.2464 3.165 26.5508C3.60833 25.8553 4.22708 25.3263 5.02125 24.9638C6.84542 24.1332 8.55903 23.5292 10.1621 23.1517C11.7649 22.7742 13.3775 22.5854 15 22.5854C16.6225 22.5854 18.2324 22.7742 19.8296 23.1517C21.4268 23.5292 23.1375 24.1332 24.9617 24.9638C25.7558 25.3449 26.3774 25.8785 26.8263 26.5646C27.2754 27.251 27.5 28.0079 27.5 28.8354V32.1796H2.5ZM4.59417 30.0854H25.4058V28.8354C25.4058 28.4338 25.2846 28.0525 25.0421 27.6917C24.7996 27.3308 24.4693 27.0447 24.0513 26.8333C22.386 26.0433 20.8494 25.487 19.4417 25.1642C18.0339 24.8411 16.5533 24.6796 15 24.6796C13.4467 24.6796 11.9614 24.8411 10.5442 25.1642C9.12722 25.487 7.58972 26.0433 5.93167 26.8333C5.50639 27.0447 5.17708 27.3308 4.94375 27.6917C4.71069 28.0525 4.59417 28.4338 4.59417 28.8354V30.0854ZM17.5175 16.3575C18.1967 15.6783 18.5363 14.839 18.5363 13.8396C18.5363 12.8404 18.1967 12.0013 17.5175 11.3221C16.8383 10.6429 15.9992 10.3033 15 10.3033C14.0008 10.3033 13.1617 10.6429 12.4825 11.3221C11.8033 12.0013 11.4638 12.8404 11.4638 13.8396C11.4638 14.839 11.8033 15.6783 12.4825 16.3575C13.1617 17.0367 14.0008 17.3763 15 17.3763C15.9992 17.3763 16.8383 17.0367 17.5175 16.3575Z" fill="white"/>
</svg>
