<svg width="40" height="40" viewBox="0 0 40 40" fill="none" xmlns="http://www.w3.org/2000/svg">
<path d="M19.6476 33.6913C19.8307 33.6913 20.0232 33.6501 20.2251 33.5676C20.427 33.4848 20.5886 33.3794 20.7097 33.2513L34.2255 19.718C34.613 19.3305 34.9093 18.9112 35.1143 18.4601C35.3195 18.0089 35.4222 17.5366 35.4222 17.043C35.4222 16.5371 35.3195 16.0428 35.1143 15.5601C34.9093 15.077 34.613 14.6446 34.2255 14.263L27.3559 7.39338C26.9743 7.00588 26.5579 6.71755 26.1068 6.52838C25.6559 6.33922 25.1777 6.24463 24.6722 6.24463C24.1783 6.24463 23.7032 6.33922 23.2468 6.52838C22.7904 6.71755 22.3737 7.00588 21.9968 7.39338L20.9005 8.48922L24.1251 11.7392C24.469 12.0889 24.7508 12.4971 24.9705 12.9638C25.1902 13.4302 25.3001 13.9241 25.3001 14.4455C25.3001 15.4099 24.9529 16.2348 24.2584 16.9201C23.564 17.6051 22.7382 17.9476 21.7809 17.9476C21.2184 17.9476 20.7201 17.8617 20.2859 17.6901C19.8518 17.5184 19.4591 17.2592 19.108 16.9126L15.9872 13.7938L8.61969 21.1613C8.4708 21.3102 8.36024 21.4778 8.28802 21.6642C8.2158 21.8506 8.17969 22.0403 8.17969 22.2334C8.17969 22.6056 8.30219 22.9139 8.54719 23.1584C8.79219 23.4026 9.09746 23.5246 9.46302 23.5246C9.66357 23.5246 9.85913 23.4787 10.0497 23.3867C10.2402 23.2948 10.3961 23.1884 10.5172 23.0676L16.0364 17.548L17.5109 19.0226L12.0172 24.5138C11.8683 24.6699 11.7577 24.842 11.6855 25.0301C11.6133 25.2181 11.5772 25.4094 11.5772 25.6038C11.5772 25.9535 11.7051 26.2564 11.9609 26.5126C12.217 26.7684 12.52 26.8963 12.8697 26.8963C13.0641 26.8963 13.2566 26.8551 13.4472 26.7726C13.6377 26.6898 13.7936 26.5844 13.9147 26.4563L19.6264 20.7534L21.1005 22.2276L15.4147 27.9113C15.2877 28.0396 15.1826 28.2031 15.0993 28.4017C15.0159 28.6006 14.9743 28.8005 14.9743 29.0013C14.9743 29.351 15.1023 29.6538 15.3584 29.9096C15.6145 30.1657 15.9175 30.2938 16.2672 30.2938C16.4616 30.2938 16.6472 30.2577 16.8239 30.1855C17.0005 30.1132 17.1633 30.0027 17.3122 29.8538L23.0234 24.1509L24.498 25.6251L18.7864 31.3367C18.6375 31.4853 18.5269 31.6591 18.4547 31.858C18.3825 32.0566 18.3464 32.2421 18.3464 32.4146C18.3464 32.7977 18.4709 33.1063 18.7201 33.3405C18.9695 33.5744 19.2787 33.6913 19.6476 33.6913ZM19.6409 35.785C18.7501 35.785 17.972 35.4599 17.3068 34.8096C16.6415 34.1594 16.2929 33.3481 16.2609 32.3759C15.3165 32.3212 14.5275 31.9903 13.8939 31.3834C13.2602 30.7767 12.9168 29.9762 12.8634 28.9817C11.8762 28.9178 11.0782 28.5746 10.4693 27.9521C9.8601 27.3296 9.53427 26.5403 9.49177 25.5842C8.51871 25.5273 7.70774 25.1903 7.05885 24.5734C6.40996 23.9562 6.08552 23.1671 6.08552 22.2063C6.08552 21.7491 6.17538 21.2948 6.3551 20.8434C6.53482 20.392 6.78968 19.998 7.11969 19.6613L15.9872 10.8026L20.4455 15.2609C20.6194 15.4403 20.8229 15.5849 21.0559 15.6946C21.289 15.8044 21.5336 15.8592 21.7897 15.8592C22.153 15.8592 22.4814 15.7174 22.7747 15.4338C23.068 15.1505 23.2147 14.8185 23.2147 14.438C23.2147 14.2321 23.1657 14.0262 23.0676 13.8201C22.9693 13.6139 22.8304 13.4203 22.6509 13.2392L16.8047 7.39338C16.4227 7.00588 16.0037 6.71755 15.5476 6.52838C15.0915 6.33922 14.6105 6.24463 14.1047 6.24463C13.6108 6.24463 13.1411 6.33922 12.6955 6.52838C12.2497 6.71755 11.8336 7.0045 11.4472 7.38922L5.75135 13.0963C5.37663 13.4707 5.09538 13.8864 4.9076 14.3434C4.7201 14.8003 4.61844 15.2988 4.6026 15.8388C4.57982 16.2896 4.6458 16.7299 4.80052 17.1596C4.95496 17.5896 5.15677 17.9838 5.40594 18.3421L3.86552 19.8717C3.45524 19.3403 3.12399 18.7146 2.87177 17.9946C2.61982 17.2746 2.49594 16.5421 2.5001 15.7971C2.50455 15.0002 2.65982 14.2387 2.96594 13.5126C3.27232 12.7862 3.70649 12.142 4.26844 11.5801L9.92969 5.9188C10.5236 5.33047 11.177 4.89158 11.8901 4.60213C12.6032 4.31269 13.3505 4.16797 14.1322 4.16797C14.9139 4.16797 15.6576 4.31269 16.3634 4.60213C17.0693 4.89158 17.7164 5.33047 18.3047 5.9188L19.4009 7.01505L20.4968 5.9188C21.0909 5.33047 21.7419 4.89158 22.4497 4.60213C23.1572 4.31269 23.9018 4.16797 24.6834 4.16797C25.4651 4.16797 26.2115 4.31269 26.9226 4.60213C27.6337 4.89158 28.2834 5.33047 28.8718 5.9188L35.6997 12.7467C36.288 13.3351 36.7379 14.0055 37.0493 14.758C37.3604 15.5102 37.5159 16.2749 37.5159 17.0521C37.5159 17.8294 37.3604 18.5709 37.0493 19.2767C36.7379 19.9826 36.288 20.6296 35.6997 21.218L22.1839 34.7255C21.835 35.0816 21.4432 35.3473 21.0084 35.5226C20.5737 35.6976 20.1179 35.785 19.6409 35.785Z" fill="white"/>
</svg>
