<svg width="168" height="80" viewBox="0 0 168 80" fill="none" xmlns="http://www.w3.org/2000/svg">
<path d="M167.143 0H0V80H167.143V0Z" fill="white"/>
<path d="M111.857 50.8999H100.014V54.2857H111.857V50.8999Z" fill="black"/>
<path d="M24.2285 64.043H24.9285V69.2001H24.2285V64.043Z" fill="black"/>
<path d="M28.2427 64.043H29.0713L31.6427 68.2002V64.043H32.3141V69.2001H31.5284L28.9284 65.043V69.2001H28.257V64.043H28.2427Z" fill="black"/>
<path d="M36.0712 67.5288C36.0855 67.8145 36.157 68.0574 36.2713 68.2431C36.4998 68.5859 36.8856 68.7573 37.457 68.7573C37.7141 68.7573 37.9427 68.7145 38.1427 68.6431C38.5427 68.5003 38.7427 68.2431 38.7427 67.8716C38.7427 67.5859 38.657 67.3859 38.4855 67.2717C38.3141 67.1574 38.0427 67.0573 37.6712 66.9716L36.9998 66.8145C36.557 66.7145 36.2427 66.6002 36.0569 66.4717C35.7427 66.2574 35.5856 65.9288 35.5856 65.5002C35.5856 65.0431 35.7427 64.6574 36.0569 64.3574C36.3712 64.0574 36.8142 63.9146 37.3856 63.9146C37.9142 63.9146 38.357 64.0431 38.7284 64.3002C39.0999 64.5573 39.2855 64.9716 39.2855 65.5431H38.6284C38.5999 65.2716 38.5284 65.0573 38.4141 64.9145C38.2141 64.6431 37.857 64.5145 37.3713 64.5145C36.9713 64.5145 36.6998 64.6002 36.5141 64.7717C36.3284 64.9431 36.257 65.1431 36.257 65.3716C36.257 65.6288 36.357 65.8145 36.557 65.9288C36.6856 66.0002 36.9999 66.1002 37.457 66.2145L38.157 66.386C38.4998 66.4717 38.757 66.5716 38.9427 66.7145C39.257 66.9574 39.4141 67.3003 39.4141 67.7574C39.4141 68.3288 39.2142 68.7288 38.8142 68.986C38.4142 69.2288 37.9427 69.3574 37.3998 69.3574C36.7712 69.3574 36.2856 69.2002 35.9284 68.8716C35.5713 68.5431 35.3999 68.1002 35.4142 67.5431H36.0712V67.5288Z" fill="black"/>
<path d="M43.3432 64.043V67.2287C43.3432 67.6002 43.4146 67.9144 43.5574 68.1573C43.7717 68.5287 44.1146 68.7144 44.6146 68.7144C45.2146 68.7144 45.6146 68.5144 45.8289 68.1144C45.9432 67.9002 46.0003 67.6002 46.0003 67.2287V64.043H46.7003V66.9287C46.7003 67.5573 46.6146 68.043 46.4432 68.3859C46.1289 69.0145 45.5289 69.3144 44.6575 69.3144C43.786 69.3144 43.186 69.0002 42.886 68.3859C42.7146 68.043 42.6289 67.5573 42.6289 66.9287V64.043H43.3289H43.3432Z" fill="black"/>
<path d="M50.0425 64.043H52.3854C52.7711 64.043 53.0853 64.1001 53.3425 64.2144C53.8139 64.4287 54.0568 64.843 54.0568 65.4287C54.0568 65.743 53.9996 65.9858 53.871 66.1858C53.7425 66.3858 53.571 66.543 53.3425 66.6573C53.5425 66.743 53.6996 66.843 53.7996 66.9858C53.8996 67.1144 53.9568 67.3287 53.971 67.6287L53.9996 68.3144C53.9996 68.5144 54.0282 68.6572 54.0425 68.7572C54.0853 68.9144 54.1567 69.0287 54.271 69.0716V69.1859H53.4139C53.4139 69.1859 53.3711 69.0859 53.3568 69.0145C53.3425 68.943 53.3282 68.8144 53.3282 68.6144L53.2853 67.7573C53.271 67.4144 53.1425 67.2001 52.9139 67.0858C52.7853 67.0287 52.5854 66.9858 52.2996 66.9858H50.7568V69.2001H50.0568V64.043H50.0425ZM52.2996 66.4001C52.6139 66.4001 52.871 66.3287 53.0567 66.2001C53.2425 66.0716 53.3282 65.8287 53.3282 65.4858C53.3282 65.1144 53.1996 64.8716 52.9424 64.7287C52.7996 64.6573 52.6139 64.6287 52.3854 64.6287H50.7282V66.3858H52.2996V66.4001Z" fill="black"/>
<path d="M58.8144 64.043H59.6001L61.4715 69.2001H60.7L60.1715 67.6573H58.1286L57.5715 69.2001H56.8572L58.8001 64.043H58.8144ZM59.9715 67.0858L59.1858 64.8145L58.3572 67.0858H59.9715Z" fill="black"/>
<path d="M64.3 64.043H65.1286L67.7001 68.2002V64.043H68.3715V69.2001H67.5857L64.9857 65.043V69.2001H64.3143V64.043H64.3Z" fill="black"/>
<path d="M75.3001 64.4142C75.6572 64.757 75.8572 65.1427 75.8857 65.5856H75.2001C75.1286 65.257 74.9715 64.9856 74.7429 64.7999C74.5143 64.5999 74.2001 64.5142 73.7858 64.5142C73.2858 64.5142 72.8857 64.6856 72.5857 65.0427C72.2857 65.3999 72.1286 65.9428 72.1286 66.6856C72.1286 67.2856 72.2715 67.7856 72.5429 68.157C72.8144 68.5284 73.2286 68.7142 73.7858 68.7142C74.2858 68.7142 74.6715 68.5141 74.9429 68.1284C75.0858 67.9141 75.1857 67.6428 75.2572 67.3142H75.9429C75.8858 67.8571 75.6857 68.3141 75.3429 68.6713C74.9429 69.1141 74.4001 69.3285 73.7001 69.3285C73.1144 69.3285 72.6143 69.1427 72.2143 68.7856C71.6857 68.2999 71.4143 67.5713 71.4143 66.5713C71.4143 65.8142 71.6144 65.1856 72.0144 64.6999C72.4429 64.1713 73.0429 63.8999 73.7858 63.8999C74.4286 63.8999 74.9286 64.0713 75.2858 64.4142H75.3001Z" fill="black"/>
<path d="M79.0996 64.0426H82.8425V64.6712H79.7854V66.2284H82.6139V66.8284H79.7854V68.5713H82.8997V69.1855H79.1139V64.0283L79.0996 64.0426Z" fill="black"/>
<path d="M90.2428 64.0432H92.5428C92.9999 64.0432 93.3714 64.1718 93.6428 64.4289C93.9142 64.686 94.0572 65.0432 94.0572 65.5146C94.0572 65.9146 93.9286 66.2717 93.6857 66.5575C93.4286 66.8575 93.0571 67.0003 92.5428 67.0003H90.9285V69.1718H90.2285V64.0146L90.2428 64.0432ZM92.9571 64.7574C92.8 64.686 92.6001 64.6432 92.3286 64.6432H90.9571V66.4289H92.3286C92.6429 66.4289 92.8857 66.3575 93.0857 66.2289C93.2857 66.1003 93.3715 65.8575 93.3715 65.5289C93.3715 65.1432 93.2286 64.886 92.9571 64.7574Z" fill="black"/>
<path d="M98.1139 64.043H98.8997L100.771 69.2001H99.9997L99.4711 67.6573H97.4282L96.871 69.2001H96.1567L98.0996 64.043H98.1139ZM99.2711 67.0858L98.4853 64.8145L97.6568 67.0858H99.2711Z" fill="black"/>
<path d="M103.685 64.043H106.028C106.414 64.043 106.728 64.1001 106.985 64.2144C107.457 64.4287 107.7 64.843 107.7 65.4287C107.7 65.743 107.643 65.9858 107.514 66.1858C107.385 66.3858 107.214 66.543 106.985 66.6573C107.185 66.743 107.342 66.843 107.442 66.9858C107.542 67.1144 107.6 67.3287 107.614 67.6287L107.642 68.3144C107.642 68.5144 107.671 68.6572 107.685 68.7572C107.728 68.9144 107.8 69.0287 107.914 69.0716V69.1859H107.057C107.057 69.1859 107.014 69.0859 107 69.0145C106.985 68.943 106.971 68.8144 106.971 68.6144L106.928 67.7573C106.914 67.4144 106.785 67.2001 106.557 67.0858C106.428 67.0287 106.228 66.9858 105.942 66.9858H104.4V69.2001H103.7V64.043H103.685ZM105.942 66.4001C106.257 66.4001 106.514 66.3287 106.7 66.2001C106.885 66.0716 106.971 65.8287 106.971 65.4858C106.971 65.1144 106.842 64.8716 106.585 64.7287C106.442 64.6573 106.257 64.6287 106.028 64.6287H104.371V66.3858H105.942V66.4001Z" fill="black"/>
<path d="M114.586 64.043V64.6572H112.857V69.2001H112.157V64.6572H110.428V64.043H114.6H114.586Z" fill="black"/>
<path d="M117.4 64.043H118.228L120.8 68.2002V64.043H121.471V69.2001H120.685L118.085 65.043V69.2001H117.414V64.043H117.4Z" fill="black"/>
<path d="M124.843 64.0426H128.585V64.6712H125.528V66.2284H128.357V66.8284H125.528V68.5713H128.642V69.1855H124.857V64.0283L124.843 64.0426Z" fill="black"/>
<path d="M131.829 64.043H134.171C134.557 64.043 134.872 64.1001 135.129 64.2144C135.6 64.4287 135.843 64.843 135.843 65.4287C135.843 65.743 135.786 65.9858 135.657 66.1858C135.529 66.3858 135.357 66.543 135.129 66.6573C135.329 66.743 135.486 66.843 135.586 66.9858C135.686 67.1144 135.743 67.3287 135.757 67.6287L135.786 68.3144C135.786 68.5144 135.814 68.6572 135.829 68.7572C135.872 68.9144 135.943 69.0287 136.057 69.0716V69.1859H135.2C135.2 69.1859 135.157 69.0859 135.143 69.0145C135.129 68.943 135.114 68.8144 135.114 68.6144L135.071 67.7573C135.057 67.4144 134.929 67.2001 134.7 67.0858C134.571 67.0287 134.372 66.9858 134.086 66.9858H132.543V69.2001H131.843V64.043H131.829ZM134.1 66.4001C134.414 66.4001 134.671 66.3287 134.857 66.2001C135.043 66.0716 135.129 65.8287 135.129 65.4858C135.129 65.1144 135 64.8716 134.743 64.7287C134.6 64.6573 134.414 64.6287 134.186 64.6287H132.529V66.3858H134.1V66.4001Z" fill="black"/>
<path d="M139.571 67.5288C139.586 67.8145 139.657 68.0574 139.771 68.2431C140 68.5859 140.385 68.7573 140.957 68.7573C141.214 68.7573 141.443 68.7145 141.643 68.6431C142.043 68.5003 142.243 68.2431 142.243 67.8716C142.243 67.5859 142.157 67.3859 141.986 67.2717C141.814 67.1574 141.543 67.0573 141.171 66.9716L140.5 66.8145C140.057 66.7145 139.743 66.6002 139.557 66.4717C139.243 66.2574 139.086 65.9288 139.086 65.5002C139.086 65.0431 139.243 64.6574 139.557 64.3574C139.871 64.0574 140.314 63.9146 140.886 63.9146C141.414 63.9146 141.857 64.0431 142.228 64.3002C142.6 64.5573 142.786 64.9716 142.786 65.5431H142.128C142.1 65.2716 142.028 65.0573 141.914 64.9145C141.714 64.6431 141.357 64.5145 140.871 64.5145C140.471 64.5145 140.2 64.6002 140.014 64.7717C139.828 64.9431 139.757 65.1431 139.757 65.3716C139.757 65.6288 139.857 65.8145 140.057 65.9288C140.185 66.0002 140.5 66.1002 140.957 66.2145L141.657 66.386C142 66.4717 142.257 66.5716 142.443 66.7145C142.757 66.9574 142.914 67.3003 142.914 67.7574C142.914 68.3288 142.714 68.7288 142.314 68.986C141.914 69.2431 141.443 69.3574 140.9 69.3574C140.271 69.3574 139.786 69.2002 139.428 68.8716C139.071 68.5431 138.9 68.1002 138.914 67.5431H139.571V67.5288Z" fill="black"/>
<path d="M43.8141 18.3145L23.0283 54.3001H32.6284L35.8283 48.7572H54.9854L43.7998 29.3859L31.0141 51.5287H27.8141L43.7998 23.8573L59.7855 51.5287H53.3854L54.9854 54.3001H64.5855L43.7998 18.3145H43.8141ZM37.4283 46.0001L43.8141 34.943L50.1998 46.0001H37.4283Z" fill="black"/>
<path d="M73.1141 25.7144H69.3569V54.2858H73.1141V25.7144Z" fill="black"/>
<path d="M96.8284 25.7144H93.0713V54.2858H96.8284V25.7144Z" fill="black"/>
<path d="M111.857 25.7144H100.014V29.1001H111.857V25.7144Z" fill="black"/>
<path d="M111.857 38.2998H100.014V41.6856H111.857V38.2998Z" fill="black"/>
<path d="M144.114 54.2858L133.071 39.0858L142.786 25.7144H138.143L117.385 54.2858H122.028L130.743 42.2715L139.471 54.2858H144.114Z" fill="black"/>
<path d="M118.028 18.3853H113.385L126.1 35.8852L128.428 32.6853L118.028 18.3853Z" fill="black"/>
<path d="M85.6996 27.8427C84.1425 26.4141 82.0997 25.6855 79.5711 25.6855H76.8711V29.0141H78.2997C79.7854 29.0141 80.9425 29.2141 81.7997 29.6141C83.3425 30.3713 84.114 31.7998 84.114 33.8998C84.114 35.7713 83.5711 37.0712 82.4997 37.8141C81.4282 38.557 80.0282 38.9284 78.2997 38.9284H76.8711V42.1998H79.5711C82.4283 42.1998 84.5569 41.3712 85.9426 39.7141C87.3283 38.0569 88.0283 36.1141 88.0283 33.8855C88.0283 31.2855 87.2568 29.2712 85.6996 27.8427Z" fill="black"/>
</svg>
