<svg width="209" height="80" viewBox="0 0 209 80" fill="none" xmlns="http://www.w3.org/2000/svg">
<path d="M208.571 0H0V80H208.571V0Z" fill="white"/>
<path d="M72.1999 39.7858L76.4142 38.8715C76.6999 38.6429 77.9142 33.9287 78.2142 33.1001C78.5571 32.1715 78.9428 30.9429 79.8428 30.4715C81.1 29.8143 84.0285 29.7286 84.3428 31.5144C84.4428 32.0858 84.4999 33.1858 84.5285 33.8286C84.6856 36.6144 84.5999 39.5858 84.8142 42.3572C84.8142 42.5286 84.8571 43.0144 85.1143 43.0144C86.3143 38.5715 87.5142 34.0715 89.3428 29.843C89.7428 28.9144 90.5571 26.9287 91.1571 26.2144C91.6999 25.5572 94.1285 25.6858 94.6714 26.3286C95.4428 27.2715 94.2857 28.9286 93.9285 29.8572C92.3571 34.0001 90.9285 38.1858 89.7999 42.4715C89.0142 45.4429 88.5999 51.5143 84.7142 52.0715C81.4856 52.5286 81.4713 50.2001 81.0428 47.7429C80.7142 45.7858 80.6428 43.7858 80.3428 41.8286L79.0856 44.6858C78.3142 46.8001 77.1285 53.4001 75.7856 54.6144C74.5571 55.7287 71.8857 54.5429 72.4857 52.6429L75.1143 43.0858C75.0857 42.7429 73.3428 42.9858 73.0285 43.0572C72.4857 43.1572 71.9571 43.2001 71.8857 43.8144C71.7 45.4287 71.9428 47.5715 71.8857 49.2572C71.8857 49.6001 71.7428 49.9286 71.7286 50.2715C71.6714 52.3 72.0714 56.2286 70.9714 57.8858C69.8714 59.5572 67.0714 59.2858 66.6286 57.4429C66.2714 55.9429 66.7 53.4858 66.7429 51.9C66.8 49.6286 66.7571 47.343 66.8857 45.0715L62.6857 45.9429C61.5428 47.1858 61.6999 50.2287 59.3571 49.8858C58.4999 49.7572 57.9286 49.1429 57.1857 48.9429C56.1143 49.2858 55.1 49.7715 54.1 50.2715C52.0285 51.3143 49.8857 53.0144 47.9142 53.9287C46.5857 54.543 45.3857 54.2 44.2 53.4C43.8857 53.1857 42.9285 52.2 42.9285 51.8857V49.3143C42.3571 50.0286 42.1143 50.9001 41.5143 51.6572C37.2857 56.9858 26.2857 54.3286 24.0857 48.4C21.7857 42.2 24.7857 30.6001 30.8857 27.2143C36.0857 24.3429 42.7571 27.0001 42.0285 33.5001C41.7999 35.4715 40.7 36.9858 39.5428 38.5001C41.9285 39.9715 43.0857 42.4429 43.3572 45.1857L45.7 35.4001C45.7285 34.8429 44.9857 34.8144 44.6142 34.3001C44.0142 33.5001 43.8714 32.4287 44.6 31.6572C45.1572 31.0715 46.6857 30.8001 46.8428 30.6001C47.0999 30.3001 46.9429 29.4286 47.7 29.0429C48.9 28.4143 49.9285 29.4858 50.9 29.4715C52.7428 29.4287 55.2572 28.1286 57.3714 28.2858C59.2857 28.4286 60.7857 31.7429 58.1714 32.4858C56.3857 32.9858 54.1714 33.1429 52.2857 33.6572C51.9572 33.7429 51.1286 33.9286 50.9143 34.0429C50.4143 34.3286 50.1857 37.0001 49.9429 37.6858C50.1 37.8429 53.4286 36.6429 54.2286 36.8286C54.6286 36.9286 55.5143 37.9572 55.6714 38.3286C56.1143 39.3572 55.5857 40.2715 54.6714 40.7286C53.7143 41.1858 49.1857 42.3144 48.8428 42.8287L47.8857 48.5572C48.9429 47.9715 49.9714 47.3429 51.0571 46.8143C51.5428 46.5858 54.0857 45.6715 54.2 45.5429C54.4571 45.2857 54.2714 44.6287 54.4571 44.1858C54.9714 42.9715 57.6142 43.0858 58.7285 42.8144C58.9571 42.0286 59.2143 41.2144 59.5143 40.4429C60.8714 37.0144 63.0714 32.8001 65.0857 29.7143C65.5285 29.0429 65.9714 28.4144 66.7857 28.1858C68.0571 27.8144 70.7856 27.9572 71.5856 29.1858C71.7142 29.3715 72.1142 30.4286 72.1142 30.5715V39.7572L72.1999 39.7858ZM34.8571 30.7144C32.7143 31.1572 30.2143 35.5858 29.6857 37.5858C28.6428 41.5144 29.1 50.7572 35.0857 49.7429C38.5 49.1572 39.4714 42.4286 35.7571 41.3572C34.8143 41.0858 33.2429 41.4858 33.4571 39.9001C33.7714 37.6429 36.1 35.1715 37.0143 33.1572C37.8571 31.2858 36.7857 30.3144 34.8571 30.7144ZM64.4143 41.5429L67.2857 40.9715C67.3572 39.6144 67.5428 38.2858 67.5 36.9144C67.5 36.6858 67.5143 35.6286 67.2714 35.5286L64.4143 41.5429Z" fill="black"/>
<path d="M161.057 39.7856L164.857 39.0284L166.786 29.4284C167.028 27.8999 170.728 28.1713 170.971 29.3427C171.071 29.8427 170.629 30.757 171.629 30.9141C172.943 30.857 174.357 30.5855 175.671 30.5284C177.714 30.457 182.214 30.2284 183.871 31.157C187.729 33.3284 182.271 36.657 180.586 38.0999C177.271 40.9713 173.671 43.9427 170.814 47.2856C169.143 49.257 167.157 53.4712 163.986 52.0569C161.8 51.0855 163.328 47.4713 163.657 45.6999C163.843 44.6713 163.871 43.5999 164.143 42.5856C163.471 42.9142 160.786 42.9713 160.657 43.6998L160.929 49.5712C160.357 52.2141 161.857 58.2284 158.314 59.1427C157.071 59.4712 155.957 59.3712 155.857 57.8712C155.643 54.8141 156.157 51.1998 156.243 48.0998C156.271 46.9999 156.214 45.8856 156.243 44.7856L151.986 45.4427C150.829 47.4856 150.786 50.7284 147.571 49.9999C145.786 49.5856 145.757 48.0141 146.257 46.5427C145.4 46.8284 144.129 46.6284 143.314 46.8998C142.871 47.0427 141.643 49.4427 141.171 50.057C139.1 52.8141 134.043 55.4855 131.957 51.3712C129.729 46.9855 132.343 37.857 133.286 33.057C133.671 31.0856 133.286 28.757 136.2 29.057C139.9 29.4427 137.929 33.7427 137.5 35.9284C136.686 40.0284 136.343 44.3284 135.986 48.4998C136.014 48.7284 136.743 48.5713 136.957 48.4427C138.871 47.357 141.686 38.8998 142.414 36.5713C143.1 34.3713 143.514 31.4998 144.3 29.4998C144.743 28.3713 145.657 28.1998 146.8 28.1713C149.629 28.0998 149.186 30.1427 148.671 32.0998C147.757 35.5713 145.914 39.1999 145.129 42.657C145.071 42.9141 145.128 42.8569 145.343 42.8712C145.728 42.8855 147.514 42.5998 147.771 42.357C148.143 42.0141 149.229 39.4284 149.6 38.7427C151.3 35.5855 153.086 32.357 155.043 29.357C155.429 28.7713 156.057 27.7284 156.8 27.5856C157.443 27.4713 159.843 27.5141 160.371 27.8141C160.686 27.9998 161.114 28.6284 161.114 28.9713V39.7713L161.057 39.7856ZM177.657 34.3427L170.457 34.8427L169 42.6998C170.4 41.2427 171.686 39.6712 173.186 38.2855C174.486 37.0712 176.214 35.957 177.443 34.757C177.586 34.6141 177.714 34.5713 177.671 34.3141L177.657 34.3427ZM156.5 40.4427V35.3713L153.557 41.1712C154 41.2569 156.4 40.757 156.5 40.4427Z" fill="black"/>
<path d="M98.0572 39.0428C101.529 38.8713 105.214 38.1857 108.7 38.4571C110.557 38.5999 111.629 39.1714 112.886 40.5142C112.929 40.0857 113.129 39.6285 113.3 39.2428C114.686 36.2285 119.2 29.1142 122.086 27.6142C125.429 25.8856 127.7 27.8285 128.586 31.0571C130.157 36.7999 130.043 44.0999 126.571 49.1285C127.071 50.5142 128 51.8428 128.029 53.3714C128.057 55.3999 124.886 56.8714 123.929 54.8142C123.5 53.8857 124.014 52.3999 122.514 52.3999C122.2 52.3999 121.914 52.5571 121.629 52.5571C116.357 52.6856 111.214 50.2571 112.157 44.1857C109.071 46 105.814 47.5142 102.771 49.4142C101.029 50.4999 95.7715 54.6999 94.3 54.8999C91.7286 55.2571 90.0429 52.7142 91.9572 50.8C93.9 48.8428 97.7001 47.3571 99.8715 45.4856L102.471 43.5285C100.043 43.2856 97.5286 44.4428 95.1143 43.8285C93.7429 43.4714 90.8 41.6713 91.0428 40.0428C91.2143 38.8571 93.8572 36.3142 94.8286 35.4571C97.8572 32.7285 104.443 27.9571 108.043 26.1999C109.286 25.5856 110.486 25.4142 111.457 26.6142C112.086 27.3857 112.714 29.3571 112.014 30.1856C109.214 31.9571 106.186 33.3142 103.357 35.0428C102.257 35.7142 99.2858 37.4999 98.5143 38.2714C98.2858 38.4857 98.0429 38.7142 98.0572 39.0714V39.0428ZM124 31.4285C120.7 35.2999 116.3 40.4999 117.043 45.9999C117.129 46.5856 117.657 48.1142 118.129 48.4428C118.8 48.9142 121.143 48.7999 121.386 48.0713C121.729 47.0428 119.6 45.2428 120.957 43.9713C121.614 43.3571 123.686 43.1285 124.271 43.8999C125.743 41.8714 125.671 38.3571 125.529 35.8856C125.486 35.2285 124.986 31.2571 124 31.4285Z" fill="black"/>
<path d="M42.7858 59.5005C43.5573 60.4433 42.6287 61.729 41.443 61.8147C39.0144 62.0005 33.943 60.7577 31.2858 60.3577C29.5858 60.1005 26.0144 60.0148 24.6716 59.329C23.3716 58.6719 23.2573 56.6005 23.4858 55.3005C23.743 53.8433 26.343 54.629 27.4144 54.829C31.0144 55.4719 35.7287 56.7147 39.2001 57.8862C39.8573 58.1005 42.4573 59.0862 42.8001 59.5005H42.7858Z" fill="black"/>
</svg>
