<svg width="153" height="32" viewBox="0 0 153 32" fill="none" xmlns="http://www.w3.org/2000/svg">
<path d="M14.3794 24.2124C19.0347 24.2124 22.8085 20.4404 22.8085 15.7876C22.8085 11.1347 19.0347 7.36279 14.3794 7.36279C9.72406 7.36279 5.9502 11.1347 5.9502 15.7876C5.9502 20.4404 9.72406 24.2124 14.3794 24.2124Z" fill="white"/>
<path d="M44.6957 5.02651C41.0832 5.02651 35.5582 3.32739 35.5582 3.32739C35.5582 3.32739 34.354 6.44244 34.354 10.6902C34.354 14.938 37.8957 26.1239 45.0498 28.9557C45.0498 28.9557 55.2498 22.5132 55.2498 11.2566C55.2498 4.53093 54.2582 3.32739 54.2582 3.32739C54.2582 3.32739 48.3082 5.02651 44.6957 5.02651Z" fill="white"/>
<path d="M65.7334 13.7345V1.55747H70.3376C72.5334 1.41588 74.7292 2.33623 74.7292 4.74331C74.7292 6.08844 73.8084 7.0088 72.6042 7.43358C74.1626 7.78756 75.2959 8.8495 75.2959 10.6194C75.2959 13.0265 72.2501 13.9468 70.4084 13.8053H65.7334V13.7345ZM70.4084 6.44243C71.5417 6.44243 72.1084 6.01765 72.1084 5.0265C72.1084 4.03535 71.4709 3.61057 70.4084 3.61057H68.3542V6.51322H70.4084V6.44243ZM70.4084 11.6814C71.6126 11.6814 72.4626 11.469 72.4626 10.053C72.4626 8.63712 71.6126 8.42473 70.4084 8.42473H68.3542V11.6814H70.4084ZM79.4751 1.55747V13.7345H76.9251V1.55747H79.4751ZM87.1959 12.6725C86.6292 13.4513 85.8501 13.9468 84.5751 13.9468C83.7251 13.9468 82.0959 13.3097 81.8126 12.1061C81.6709 11.6106 81.6709 11.0442 81.6709 10.761V5.23889H84.2209V10.3362C84.2209 11.2566 84.5042 12.3185 85.7084 12.3185C86.4876 12.3185 87.1959 11.6106 87.1959 10.3362V5.23889H89.7459V12.1769C89.7459 12.6725 89.8167 13.1681 89.8167 13.6637H87.2667L87.1959 12.6725ZM94.2084 10.1946C94.2084 11.3274 94.3501 12.3185 95.6959 12.3185C96.5459 12.3185 97.0417 11.9645 97.2542 11.1858H99.5209C99.3084 13.3097 97.6792 13.9468 95.6959 13.9468C92.7917 13.9468 91.5876 12.3185 91.5876 9.48667C91.5876 6.938 93.0751 4.9557 95.6959 4.9557C97.2542 4.9557 98.6001 5.52207 99.3084 7.0088C99.5209 7.50437 99.6626 7.99995 99.7334 8.49552C99.8042 8.9911 99.8042 9.55747 99.8042 10.1238H94.2084V10.1946ZM97.1834 8.49552C97.1834 7.57517 96.9001 6.72561 95.6959 6.72561C94.5626 6.72561 94.2792 7.57517 94.2084 8.49552H97.1834ZM108.375 5.45127C108.375 4.17694 107.596 3.11499 106.038 3.11499C104.196 3.11499 103.7 5.87605 103.7 7.57517C103.7 9.27428 104.196 12.0353 106.038 12.0353C107.596 12.0353 108.375 10.9734 108.375 9.69906H111.138C110.996 12.7433 108.8 13.8761 106.038 13.8761C102.496 13.8761 100.938 11.115 100.938 7.50437C100.938 3.96455 102.496 1.13269 106.038 1.13269C108.871 1.13269 111.067 2.26543 111.138 5.30968H108.375V5.45127ZM114.821 5.23889L114.892 6.79641C115.458 5.45127 116.521 5.09729 117.796 5.16809V7.43358H116.663C116.238 7.43358 115.671 7.71676 115.458 8.07074C115.175 8.56632 115.104 8.9911 115.104 9.55747V13.7345H112.554V6.938C112.554 6.58402 112.483 5.87605 112.483 5.23889H114.821ZM123.321 14.0176C120.558 14.0176 118.858 12.1769 118.858 9.48667C118.858 6.79641 120.488 4.9557 123.321 4.9557C126.083 4.9557 127.783 6.79641 127.783 9.48667C127.783 12.1769 126.083 14.0176 123.321 14.0176ZM123.321 12.3185C124.879 12.3185 125.163 10.8318 125.163 9.48667C125.163 8.14154 124.879 6.65481 123.321 6.65481C121.763 6.65481 121.479 8.14154 121.479 9.48667C121.55 10.8318 121.763 12.3185 123.321 12.3185ZM133.875 7.50437C133.875 6.938 133.308 6.65481 132.742 6.65481C132.033 6.65481 131.75 6.8672 131.75 7.43358C131.75 8.77871 136.638 7.99995 136.638 11.1858C136.638 13.0265 134.371 13.9468 132.813 13.9468C130.829 13.9468 129.129 13.1681 129.058 11.2566H131.396C131.467 11.8938 132.033 12.3185 132.813 12.3185C133.521 12.3185 134.017 12.0353 134.017 11.3982C134.017 10.6902 132.813 10.407 132.317 10.3362C130.688 9.98225 129.2 9.55747 129.2 7.64596C129.2 5.87605 131.325 5.09729 132.813 5.09729C134.583 5.09729 136.142 5.73446 136.213 7.64596H133.875V7.50437ZM142.304 7.50437C142.304 6.938 141.738 6.65481 141.171 6.65481C140.463 6.65481 140.179 6.8672 140.179 7.43358C140.179 8.77871 145.067 7.99995 145.067 11.1858C145.067 13.0265 142.8 13.9468 141.242 13.9468C139.258 13.9468 137.558 13.1681 137.488 11.2566H139.825C139.896 11.8938 140.463 12.3185 141.242 12.3185C141.95 12.3185 142.446 12.0353 142.446 11.3982C142.446 10.6902 141.242 10.407 140.746 10.3362C139.117 9.98225 137.629 9.55747 137.629 7.64596C137.629 5.87605 139.754 5.09729 141.242 5.09729C143.013 5.09729 144.571 5.73446 144.642 7.64596H142.304V7.50437ZM65.7334 30.3008V18.1238H70.3376C72.5334 17.9822 74.7292 18.9026 74.7292 21.3097C74.7292 22.6548 73.8084 23.5752 72.6042 23.9999C74.1626 24.3539 75.2959 25.4159 75.2959 27.1858C75.2959 29.5929 72.2501 30.5132 70.4084 30.3716H65.7334V30.3008ZM70.4084 23.0088C71.5417 23.0088 72.1084 22.584 72.1084 21.5929C72.1084 20.6017 71.4709 20.1769 70.4084 20.1769H68.3542V23.0796L70.4084 23.0088ZM70.4084 28.2477C71.6126 28.2477 72.4626 28.0353 72.4626 26.6194C72.4626 25.2035 71.6126 24.9911 70.4084 24.9911H68.3542V28.2477H70.4084ZM79.4751 18.1238V30.3008H76.9251V18.1238H79.4751ZM87.1959 29.2389C86.6292 30.0176 85.8501 30.5132 84.5751 30.5132C83.7251 30.5132 82.0959 29.8761 81.8126 28.6017C81.6709 28.1061 81.6709 27.5398 81.6709 27.2566V21.7345H84.2209V26.9026C84.2209 27.823 84.5042 28.8849 85.7084 28.8849C86.4876 28.8849 87.1959 28.1769 87.1959 26.9026V21.8053H89.7459V28.7433C89.7459 29.2389 89.8167 29.7345 89.8167 30.23H87.2667L87.1959 29.2389ZM94.2084 26.761C94.2084 27.8938 94.3501 28.8849 95.6959 28.8849C96.5459 28.8849 97.0417 28.5309 97.2542 27.7522H99.5209C99.3084 29.8761 97.6792 30.5132 95.6959 30.5132C92.7917 30.5132 91.5876 28.8849 91.5876 26.053C91.5876 23.5044 93.0751 21.5221 95.6959 21.5221C97.2542 21.5221 98.6001 22.0884 99.3084 23.5752C99.5209 24.0707 99.6626 24.5663 99.7334 25.0619C99.8042 25.5575 99.8042 26.1238 99.8042 26.6902L94.2084 26.761ZM97.1834 25.0619C97.1834 24.1415 96.9001 23.292 95.6959 23.292C94.5626 23.292 94.2792 24.1415 94.2084 25.0619H97.1834ZM108.021 21.5929C107.95 20.3893 107.242 19.7522 105.967 19.7522C104.975 19.7522 104.054 20.2477 104.054 21.3097C104.054 22.6548 105.258 22.7964 106.321 23.0088C108.163 23.5044 110.925 23.9999 110.925 26.4778C110.925 29.5221 108.304 30.584 105.683 30.584C102.921 30.584 100.938 29.5221 101.008 26.407H103.7C103.629 27.7522 104.408 28.6725 105.754 28.6725C106.817 28.6725 108.163 28.3185 108.163 27.0442C108.163 25.6283 106.392 25.4867 105.4 25.2035C103.7 24.7787 101.363 23.9999 101.363 21.8053C101.363 19.0442 103.913 17.7699 106.463 17.7699C108.8 17.7699 110.642 19.0442 110.642 21.5221L108.021 21.5929ZM112.696 30.3008V18.1238H115.246V22.8672C115.742 22.0884 116.592 21.5929 117.867 21.5929C118.717 21.5929 120.346 22.23 120.629 23.4336C120.771 23.9291 120.771 24.4955 120.771 24.7787V30.3008H118.292V25.2035C118.292 24.2831 118.008 23.292 116.804 23.292C116.025 23.292 115.317 23.9999 115.317 25.2035V30.3008H112.696ZM125.658 18.1238V20.3185H122.967V18.1238H125.658ZM125.517 21.8053V30.3008H122.967V21.8053H125.517ZM129.979 26.761C129.979 27.8938 130.121 28.8849 131.467 28.8849C132.317 28.8849 132.813 28.5309 133.025 27.7522H135.292C135.079 29.8761 133.45 30.5132 131.467 30.5132C128.563 30.5132 127.358 28.8849 127.358 26.053C127.358 23.5044 128.846 21.5221 131.467 21.5221C133.025 21.5221 134.371 22.0884 135.079 23.5752C135.292 24.0707 135.433 24.5663 135.504 25.0619C135.575 25.5575 135.575 26.1238 135.575 26.6902L129.979 26.761ZM132.883 25.0619C132.883 24.1415 132.6 23.292 131.396 23.292C130.263 23.292 129.979 24.1415 129.908 25.0619H132.883ZM139.613 18.1238V30.3008H137.063V18.1238H139.613ZM147.688 18.1238H150.238V28.6725C150.238 29.2389 150.308 29.8053 150.308 30.3716H147.758C147.758 29.9469 147.688 29.5929 147.688 29.1681C147.121 30.1592 146.2 30.6548 145.067 30.6548C142.588 30.6548 141.383 28.3185 141.383 26.1238C141.383 23.8584 142.729 21.5929 145.35 21.5929C146.2 21.5929 147.121 22.0884 147.617 22.7964L147.688 18.1238ZM145.846 28.8849C147.192 28.8849 147.688 27.2566 147.688 26.053C147.688 24.9203 147.263 23.2212 145.846 23.2212C144.217 23.2212 144.004 24.7079 144.004 26.053C144.004 27.3274 144.217 28.8849 145.846 28.8849ZM146.271 13.7345C145.846 13.7345 145.492 13.3805 145.492 12.9557C145.492 12.5309 145.846 12.1769 146.271 12.1769C146.696 12.1769 147.05 12.5309 147.05 12.9557C147.05 13.3805 146.767 13.7345 146.271 13.7345ZM146.271 11.9645C145.775 11.9645 145.35 12.3893 145.35 12.8849C145.35 13.3805 145.775 13.8053 146.271 13.8053C146.767 13.8053 147.192 13.3805 147.192 12.8849C147.192 12.3893 146.767 11.9645 146.271 11.9645Z" fill="#0052FF"/>
<path d="M146.271 12.885H146.058V12.531H146.342C146.483 12.531 146.625 12.531 146.625 12.6726C146.625 12.885 146.412 12.885 146.271 12.885ZM146.767 12.6726C146.767 12.4602 146.696 12.3894 146.412 12.3894H145.917V13.4514H146.058V12.9558H146.271L146.625 13.4514H146.767L146.483 12.9558C146.625 12.9558 146.767 12.885 146.767 12.6726ZM151.725 30.2301C151.3 30.2301 150.946 29.8761 150.946 29.4514C150.946 29.0266 151.3 28.6726 151.725 28.6726C152.15 28.6726 152.504 29.0266 152.504 29.4514C152.504 29.8761 152.15 30.2301 151.725 30.2301ZM151.725 28.4602C151.229 28.4602 150.804 28.885 150.804 29.3806C150.804 29.8761 151.229 30.3009 151.725 30.3009C152.221 30.3009 152.646 29.8761 152.646 29.3806C152.646 28.885 152.221 28.4602 151.725 28.4602Z" fill="#0052FF"/>
<path d="M151.654 29.3806H151.441V29.0266H151.725C151.866 29.0266 152.008 29.0266 152.008 29.1682C152.008 29.3806 151.866 29.3806 151.654 29.3806ZM152.221 29.1682C152.221 28.9558 152.15 28.885 151.866 28.885H151.371V29.947H151.512V29.4514H151.725L152.008 29.947H152.15L151.866 29.4514C152.079 29.4514 152.221 29.3806 152.221 29.1682Z" fill="#0052FF"/>
<path d="M27.2 27.1858C26.2791 27.1858 25.5708 27.8938 25.5708 28.8141C25.5708 29.7345 26.2791 30.4424 27.2 30.4424C28.05 30.4424 28.8291 29.7345 28.8291 28.8141C28.8291 27.8938 28.1208 27.1858 27.2 27.1858ZM27.2 30.1592C26.4208 30.1592 25.8541 29.5929 25.8541 28.8141C25.8541 28.0353 26.4208 27.469 27.2 27.469C27.9791 27.469 28.5458 28.0353 28.5458 28.8141C28.5458 29.5929 28.05 30.1592 27.2 30.1592Z" fill="#0052FF"/>
<path d="M28.0499 28.3894C28.0499 28.0354 27.9083 27.8938 27.4124 27.8938H26.6333V29.7345H26.8458V28.9558H27.2708L27.7666 29.7345H28.0499L27.4833 28.9558C27.8374 28.885 28.0499 28.7434 28.0499 28.3894ZM27.1999 28.6726H26.8458V28.1062H27.3416C27.5541 28.1062 27.7666 28.1062 27.7666 28.3894C27.8374 28.7434 27.4124 28.6726 27.1999 28.6726ZM14.4499 17.9823C14.3791 17.9823 14.3791 17.9823 14.3083 18.0531L11.6166 22.1593C12.4666 22.5133 13.3874 22.7257 14.3791 22.7257C15.3708 22.7257 16.2916 22.5133 17.1416 22.1593L14.4499 18.0531C14.5208 17.9823 14.4499 17.9823 14.4499 17.9823ZM11.8291 14.5841L7.7916 14.2301C7.64994 14.7257 7.5791 15.292 7.5791 15.8584C7.5791 17.5575 8.2166 19.1151 9.20827 20.3186L12.0416 14.9381C12.1833 14.7965 12.1124 14.6549 11.8291 14.5841Z" fill="#0052FF"/>
<path d="M20.825 9.41589V1.41589H8.00417V9.41589H0V22.2301H8.00417V30.2301H20.825V22.2301H28.8292V9.41589H20.825ZM14.45 7.92917C17.6375 7.92917 20.4 9.76988 21.6042 12.5309H15.9375C15.1583 12.5309 14.8042 12.0354 14.7333 11.6814C14.7333 11.2566 14.8042 11.115 15.1583 10.6194C15.5833 10.0531 15.3 9.06191 14.3792 8.99111C13.4583 8.99111 13.175 10.0531 13.6 10.6194C13.9542 11.115 14.025 11.2566 14.025 11.6814C14.025 12.0354 13.6708 12.5309 12.8208 12.5309H7.15417C8.5 9.84067 11.2625 7.92917 14.45 7.92917ZM6.51667 15.8584C6.51667 14.8672 6.72917 13.9469 7.0125 13.0973L12.325 13.5929C13.3167 13.7345 13.4583 14.7256 13.175 15.292L9.5625 22.1593C7.72083 20.6725 6.51667 18.407 6.51667 15.8584ZM18.7708 22.5132C17.4958 23.3628 16.0083 23.7876 14.3792 23.7876C12.75 23.7876 11.2625 23.292 9.9875 22.5132L13.8833 16.7787C14.1667 16.3539 14.5917 16.4247 14.875 16.7787L18.7708 22.5132ZM19.3375 22.0885L15.725 15.292C15.4417 14.7256 15.5833 13.7345 16.575 13.5929L21.8875 13.0973C22.2417 13.9469 22.3833 14.938 22.3833 15.8584C22.3833 18.407 21.1792 20.6725 19.3375 22.0885Z" fill="#0052FF"/>
<path d="M19.621 11.3982C18.771 10.407 17.6376 9.62827 16.3626 9.27429C16.7876 9.91146 16.4335 10.8318 16.0793 11.2566C16.0085 11.3274 16.0793 11.3982 16.0793 11.3982H19.621ZM17.071 14.584C16.7876 14.584 16.7876 14.7256 16.8585 14.8672L19.6918 20.2477C20.6835 19.0442 21.321 17.4867 21.321 15.7876C21.321 15.2212 21.2501 14.6548 21.1085 14.1592L17.071 14.584ZM12.5376 9.34509C11.2626 9.69907 10.1293 10.4778 9.2793 11.469H12.821C12.8918 11.469 12.8918 11.3982 12.821 11.3274C12.4668 10.8318 12.1126 9.98226 12.5376 9.34509Z" fill="#0052FF"/>
<path d="M54.6126 1.41589C51.4959 2.97342 48.3792 3.82297 44.7667 3.82297C41.1542 3.82297 38.0376 2.97342 34.9209 1.41589C32.8667 5.45129 32.5834 11.9646 34.3542 17.4159C36.0542 22.6548 39.3834 27.469 44.7667 30.4424C50.2209 27.469 53.4792 22.6548 55.1793 17.4159C57.0209 11.9646 56.6667 5.45129 54.6126 1.41589ZM53.1959 16.7787C51.6376 21.2389 49.3001 25.2035 44.8376 27.9646C40.3751 25.2035 37.9667 21.2389 36.4792 16.7787C35.1334 12.8141 34.7792 8.14156 36.2667 4.53094C38.5334 5.3097 39.8084 5.52209 41.0126 5.73448C42.1459 5.94687 43.1376 6.01766 44.8376 6.01766C46.4667 6.01766 47.5292 5.87607 48.6626 5.73448C49.8667 5.52209 51.2126 5.3097 53.4084 4.53094C54.8251 8.14156 54.5417 12.8141 53.1959 16.7787Z" fill="#0052FF"/>
<path d="M48.6625 6.72566C47.3875 6.86725 46.0417 7.00884 44.7667 7.00884C43.4917 7.00884 42.2167 6.86725 40.8709 6.72566C39.5959 6.51327 38.3209 6.23008 36.975 5.8761C36.0542 8.56636 36.1959 11.9646 36.975 14.938C38.3209 20.6018 41.7917 24.9203 44.7667 26.8319C47.8125 24.9203 51.2125 20.6018 52.5584 14.938C53.2667 11.8938 53.4792 8.56636 52.5584 5.8761C51.2125 6.23008 50.0084 6.58406 48.6625 6.72566ZM44.0584 24.2124C43.9875 24.4956 44.1292 24.6372 44.1292 24.7788C44.0584 24.9911 43.9167 24.9203 43.8459 24.7788C43.7042 24.5664 43.6334 24.4248 43.6334 24.0708C43.5625 23.5044 43.8459 23.292 43.9875 23.1504C44.1292 23.0088 44.2709 22.938 44.2709 22.938L44.3417 23.8584C44.2 23.8584 44.0584 23.9292 44.0584 24.2124ZM45.2625 25.1327C45.2625 25.2743 45.1917 25.4159 44.9084 25.4159C44.6959 25.4159 44.5542 25.3451 44.5542 25.0619C44.4834 23.9292 44.4834 21.8761 44.4834 21.8761C44.4834 21.8761 44.7667 21.9469 44.9792 22.0885C45.05 22.0885 45.1917 22.2301 45.3334 22.3717C45.3334 22.4425 45.4042 22.4425 45.4042 22.5133C45.3334 23.292 45.2625 24.7788 45.2625 25.1327ZM46.1834 23.0088C45.9 23.2212 45.6167 23.292 45.6167 23.292V22.4425C45.6167 22.4425 45.6875 22.3717 45.6875 22.2301C45.6167 22.0885 45.05 21.6637 44.7667 21.5221C44.4125 21.3805 43.9875 21.2389 43.7042 21.1681C42.9959 20.8849 42.7125 20.2478 42.9959 19.5398C43.0667 19.2566 43.4209 19.115 43.5625 19.0442C43.7042 18.9734 43.9875 18.9026 43.9875 18.9026L44.0584 19.8938C44.0584 19.8938 43.9875 19.8938 43.9167 20.0354C43.8459 20.177 43.9875 20.3186 44.0584 20.3186C44.5542 20.531 45.1917 20.8142 45.6875 21.0973C46.325 21.4513 46.5375 21.7345 46.5375 22.2301C46.6084 22.5841 46.3959 22.8673 46.1834 23.0088ZM44.4125 18.4071C44.9084 18.4779 45.05 18.4779 45.475 18.5487L45.4042 20.531L44.9792 20.3186L44.5542 20.1062L44.4125 18.4071ZM47.2459 18.8319C47.175 19.1858 46.9625 19.469 46.6084 19.6814C46.2542 19.8938 45.8292 19.8938 45.8292 19.8938V18.6903C45.8292 18.6903 45.9 18.6903 45.9709 18.6195C46.0417 18.5487 46.0417 18.4779 46.0417 18.4071C46.0417 18.3363 45.9709 18.2655 45.9 18.1947C45.7584 18.1239 45.6167 18.1239 45.5459 18.1239L43.8459 17.9115C42.8542 17.7699 42.075 17.1327 42.1459 16.1416C42.2167 15.5044 42.8542 15.292 43.35 15.0796L43.7042 15.7876C43.775 16.0708 43.8459 16.2124 43.8459 16.2124C43.8459 16.2124 43.6334 16.2832 43.6334 16.4248C43.6334 16.5664 43.8459 16.6372 43.9167 16.6372C44.625 16.708 45.6167 16.8496 46.1125 17.0619C46.4667 17.2035 46.75 17.3451 46.9625 17.6283C47.2459 18.1239 47.3167 18.4779 47.2459 18.8319ZM43.9875 14.2301C43.9875 14.2301 44.2 14.2301 44.8375 14.3009C45.2625 14.3009 45.6167 14.4425 45.6167 14.4425L45.5459 16.5664C45.05 16.4956 44.7667 16.4248 44.3417 16.354C44.2 15.5752 43.9875 15.292 43.7042 14.7257C43.6334 14.5841 43.7042 14.5133 43.7042 14.5133C43.775 14.4425 44.0584 14.3717 44.0584 14.3717L43.9875 14.2301ZM45.9 16.354C45.9 16.354 45.9709 15.3628 45.9709 14.8672C46.2542 14.7965 46.325 14.5133 46.1834 14.3009C46.1125 14.1593 45.9 14.0885 45.8292 14.0885C45.2625 13.9469 44.7667 13.9469 44.2 13.8761C43.7042 13.8053 43.2792 13.7345 42.8542 13.6637C41.9334 13.4513 41.0834 12.9557 40.6584 12.1062C40.1625 11.0442 40.5875 9.69911 41.65 9.20353C42.4292 8.77875 43.2792 8.84955 44.0584 9.20353C44.3417 9.27433 44.4834 9.55751 44.625 9.7699C44.6959 9.8407 44.8375 9.9115 44.9084 10.0531C44.9792 10.1239 44.8375 10.1239 44.8375 10.1239C44.6959 10.1947 44.0584 10.1947 43.9167 10.1239H43.0667C43.2792 10.2655 43.5625 10.4071 43.8459 10.5487C43.9875 10.6195 44.1292 10.6195 44.2709 10.6903C44.3417 10.6903 44.4834 10.7611 44.4834 10.8319C44.4834 10.9026 44.3417 10.9026 44.2 10.9734C43.9875 11.0442 43.7042 11.0442 43.4209 10.9734C42.9959 10.9026 42.7834 10.6195 42.5 10.7611C42.2875 10.9026 42.2875 11.115 42.3584 11.3982C42.4292 11.823 42.8542 11.9646 43.2084 12.1062C44.4125 12.531 45.7584 12.2478 46.8917 12.8849C47.3167 13.0973 47.8834 13.5929 47.9542 14.0885C48.3084 16.0708 45.9 16.354 45.9 16.354ZM48.025 9.7699C47.9542 9.98229 47.8834 9.98229 47.7417 10.1239C47.4584 10.4071 47.0334 10.6903 46.6084 11.0442C46.325 11.2566 46.1125 11.3982 45.9 11.7522C45.8292 11.823 45.7584 11.9646 45.7584 11.9646C45.05 11.823 44.4125 11.823 43.8459 11.6814V11.115C43.8459 11.115 44.4834 11.115 44.5542 10.6903C44.5542 10.6903 44.5542 10.5487 44.4834 10.4779C44.4125 10.4071 44.2 10.3363 44.1292 10.3363C44.625 10.4071 45.1209 10.6195 45.6167 10.8319C45.6167 10.7611 45.5459 10.5487 45.5459 10.5487C45.475 10.4779 45.4042 10.4071 45.1917 10.3363C44.9084 10.2655 44.1292 10.1947 44.1292 10.1947H44.7667C44.9084 10.1947 45.1209 10.1239 45.1209 10.0531C45.1917 9.98229 45.1209 9.8407 44.9792 9.69911L44.7667 9.48672C44.6959 9.34512 44.5542 9.20353 44.4834 9.06194C44.3417 8.84955 43.775 8.63716 43.775 8.63716C43.775 8.63716 43.7042 8.28318 43.8459 8.14159C43.9167 7.99999 44.2 7.99999 44.2709 8.07079C44.625 8.28318 45.1209 8.49557 45.6167 8.63716C45.7584 8.70796 45.7584 8.70796 45.7584 8.92035C45.8292 9.27433 45.6875 9.7699 45.7584 9.98229C45.7584 10.0531 45.9 10.0531 45.9 10.0531C46.3959 9.7699 46.6792 9.34512 47.175 9.13274C47.5292 8.99114 48.1667 9.27433 48.025 9.7699ZM54.7542 27.2566C53.9042 27.2566 53.1959 27.9646 53.1959 28.8142C53.1959 29.6637 53.9042 30.3717 54.7542 30.3717C55.6042 30.3717 56.3125 29.6637 56.3125 28.8142C56.3125 27.9646 55.6042 27.2566 54.7542 27.2566ZM54.7542 30.1593C53.975 30.1593 53.4084 29.5929 53.4084 28.8142C53.4084 28.0354 53.975 27.469 54.7542 27.469C55.5334 27.469 56.1 28.0354 56.1 28.8142C56.1 29.5929 55.5334 30.1593 54.7542 30.1593Z" fill="#0052FF"/>
<path d="M55.6044 28.3893C55.6044 28.0353 55.4628 27.8938 54.9669 27.8938H54.1878V29.7345H54.4003V28.9557H54.7544L55.2503 29.7345H55.5336L54.9669 28.9557C55.3211 28.8849 55.6044 28.7433 55.6044 28.3893ZM54.7544 28.7433H54.4003V28.1769H54.8961C55.1086 28.1769 55.3211 28.1769 55.3211 28.4601C55.3211 28.7433 54.9669 28.7433 54.7544 28.7433ZM43.2794 9.27428C43.4211 9.41588 43.4211 9.55747 43.6336 9.55747C43.7753 9.55747 43.8461 9.48667 43.9169 9.41588H44.0586C43.8461 9.20349 43.3503 9.20349 42.9961 9.13269C43.1378 9.27428 43.2086 9.20349 43.2794 9.27428Z" fill="#0052FF"/>
</svg>
