<svg width="74" height="40" viewBox="0 0 74 40" fill="none" xmlns="http://www.w3.org/2000/svg">
<path d="M41.5978 36.4807C41.0793 36.4807 40.7574 36.7611 40.5464 37.0693V35.2615H39.7759V39.9268H40.5464V38.0214C40.5464 37.5027 40.8551 37.1812 41.3036 37.1812C41.7655 37.1812 42.0186 37.475 42.0186 38.0081V39.9279H42.7892V37.7842C42.7881 36.985 42.3539 36.4807 41.5978 36.4807Z" fill="#0052FF"/>
<path d="M45.1854 36.4829C44.2184 36.4829 43.5322 37.2677 43.5322 38.2342V38.2486C43.5322 39.285 44.2883 39.9999 45.2698 39.9999C45.886 39.9999 46.3346 39.7472 46.6565 39.3692L46.208 38.9624C45.9415 39.2284 45.6762 39.3692 45.2976 39.3692C44.8068 39.3692 44.4149 39.0611 44.3305 38.5146H46.7964C46.7964 38.4448 46.8109 38.375 46.8109 38.304C46.7975 37.3231 46.2646 36.4829 45.1854 36.4829ZM44.3028 38.0092C44.3727 37.4904 44.7091 37.1269 45.171 37.1269C45.6751 37.1269 45.9693 37.5193 46.0259 38.0092H44.3028Z" fill="#0052FF"/>
<path d="M46.5583 32.1792C46.5583 31.5341 46.3207 31.4931 46.3207 31.4931H45.971C45.3826 31.4931 44.7941 30.9045 44.7941 30.316V24.376C44.7941 21.9807 46.223 20.5376 48.0728 20.5376C49.656 20.5376 50.8185 21.4199 50.8185 23.3396V30.3171C50.8185 30.9056 50.23 31.4942 49.6416 31.4942H49.3196C49.3196 31.4942 49.0809 31.5507 49.0809 32.1526C49.0809 32.7544 49.3196 33.0637 49.3196 33.0637H56.2266C56.2266 33.0637 56.4642 32.7977 56.4642 32.2091C56.4642 31.6072 56.2266 31.4942 56.2266 31.4942H55.8758C55.2873 31.4942 54.6989 30.9056 54.6989 30.3171V23.2C54.6989 19.8371 52.5971 18.1978 49.5428 18.1978C47.2867 18.1978 45.5635 19.2485 44.5132 20.8036C44.5132 20.8036 44.5132 19.2629 44.5132 19.08C44.5132 18.5757 44.0369 18.4072 43.4485 18.6322C43.0565 18.7863 41.0947 19.4868 39.4271 19.4868C39.3293 19.6132 39.1895 19.8648 39.1895 20.2716C39.1895 20.6362 39.2738 20.818 39.4271 21.0563H39.7768C40.3652 21.0563 40.9537 21.6449 40.9537 22.2335V30.3171C40.9537 30.9056 40.3652 31.4942 39.7768 31.4942H39.4271C39.4271 31.4942 39.1895 31.5363 39.1895 32.167C39.1895 32.7977 39.4271 33.0781 39.4271 33.0781H46.3341C46.3341 33.0759 46.5583 32.8376 46.5583 32.1792Z" fill="#0052FF"/>
<path d="M33.7955 19.2772C32.7452 18.5911 31.4417 18.1843 29.9984 18.1843C26.3833 18.1843 23.7353 20.6084 23.7353 23.6344C23.7353 25.4976 24.7579 27.0106 26.1591 27.9494L23.7076 31.003C23.7076 31.003 23.3989 31.5639 23.3989 32.138C23.3989 32.6989 23.7487 33.0769 23.7487 33.0769H25.4862C24.2116 33.8339 23.6232 35.0942 23.6232 36.1726C23.6232 38.2742 25.4585 39.9978 29.5776 39.9978C33.7111 39.9978 37.5638 37.812 37.5638 34.3659C37.5638 31.9142 36.106 30.2604 32.4632 30.2604H26.9574L28.0365 28.8029C28.6527 29.0135 29.1435 29.0966 30.0117 29.0966C33.599 29.0966 36.2748 26.6448 36.2748 23.6465C36.2748 22.7077 36.0083 21.8387 35.5597 21.0828H37.6893C37.8014 20.8866 37.9268 20.6206 37.9268 20.1717C37.9268 19.8214 37.8003 19.4435 37.7026 19.2894L33.7955 19.2772ZM28.0232 33.0769H31.2874C33.2348 33.0769 33.9077 34.1698 33.9077 35.2771C33.9077 36.6781 32.5631 38.1068 30.1527 38.1068C27.8833 38.1068 26.5943 37.0838 26.5943 35.5708C26.5943 34.5477 27.1683 33.5247 28.0232 33.0769ZM29.9984 27.291C28.373 27.291 27.3226 25.9177 27.3226 23.6488C27.3226 21.3788 28.373 20.0065 29.9984 20.0065C31.6094 20.0065 32.6464 21.3799 32.6464 23.6488C32.6608 25.9177 31.6094 27.291 29.9984 27.291Z" fill="#0052FF"/>
<path d="M12.9325 28.1867C12.4562 28.0182 12.0775 28.1723 12.0775 28.1723C10.9984 30.05 10.018 30.9178 8.49026 30.9178C5.74455 30.9178 3.97922 28.4239 3.97922 25.4678C3.97922 22.7223 5.21273 20.0178 8.04282 20.0178C9.82259 20.0178 11.1949 21.1251 11.1949 22.8198L11.2371 23.3519C11.2371 23.3519 11.1816 23.5902 11.9232 23.5902C12.666 23.5902 12.8625 23.3519 12.8625 23.3519L12.7082 19.5135C12.7082 19.5135 12.6938 19.4159 12.6382 19.345C12.5816 19.2751 12.4983 19.2186 12.4983 19.2186C11.3636 18.5746 9.83591 18.1956 8.04282 18.1956C3.89595 18.21 0 21.012 0 26.083C0 30.6219 3.41853 33.4805 7.34224 33.4805C11.0272 33.4805 12.7371 31.1683 13.5076 28.5913C13.5076 28.5935 13.2966 28.3131 12.9325 28.1867Z" fill="#0052FF"/>
<path d="M18.1737 17.1604C19.5049 17.1604 20.5975 16.0531 20.5975 14.6809C20.5975 13.3087 19.5183 12.2014 18.1737 12.2014C16.8425 12.2014 15.75 13.3087 15.75 14.6809C15.7633 16.0542 16.8425 17.1604 18.1737 17.1604Z" fill="#0052FF"/>
<path d="M20.1053 21.7146C20.1053 21.1261 20.6937 20.5375 21.2822 20.5375H21.6319C21.6319 20.5375 21.8706 20.3979 21.8706 19.8226C21.8706 19.2484 21.6319 18.968 21.6319 18.968H14.7249C14.7249 18.968 14.4873 19.3183 14.4873 19.8791C14.4873 20.44 14.7249 20.5519 14.7249 20.5519H15.0746C15.6631 20.5519 16.2515 21.1405 16.2515 21.7291V27.5859V30.3458C16.2515 30.9344 15.6631 31.5229 15.0746 31.5229H14.7249C14.7249 31.5229 14.4873 31.6349 14.4873 32.1957C14.4873 32.7566 14.7249 33.1068 14.7249 33.1068H21.6319C21.6319 33.1068 21.8706 32.8131 21.8706 32.2523C21.8706 31.6914 21.6319 31.5373 21.6319 31.5373H21.2822C20.6937 31.5373 20.1053 30.9488 20.1053 30.3602V28.3429V21.7146Z" fill="#0052FF"/>
<path d="M64.7323 36.4963C64.1861 36.4963 63.8219 36.6083 63.4433 36.7768L63.6531 37.393C63.9607 37.2667 64.2416 37.1824 64.6202 37.1824C65.1531 37.1824 65.4473 37.4352 65.4473 37.8974V37.9672C65.1809 37.883 64.9288 37.8275 64.508 37.8275C63.7242 37.8275 63.1357 38.1778 63.1357 38.9348V38.9492C63.1357 39.622 63.6964 39.9856 64.3404 39.9856C64.8445 39.9856 65.2097 39.775 65.4329 39.4957V39.9158H66.2034V37.9129C66.2168 37.0284 65.726 36.4963 64.7323 36.4963ZM65.4607 38.7098C65.4607 39.1299 65.0821 39.4247 64.5647 39.4247C64.2005 39.4247 63.9063 39.243 63.9063 38.9348V38.9204C63.9063 38.5979 64.1872 38.4017 64.6768 38.4017C64.971 38.4017 65.2519 38.4582 65.4473 38.5413L65.4607 38.7098Z" fill="#0052FF"/>
<path d="M67.8975 37.3099V36.5529H67.127V39.9291H67.8975V38.64C67.8975 37.7433 68.3738 37.3088 69.0466 37.3088H69.0888V36.4963C68.5004 36.4697 68.1073 36.8056 67.8975 37.3099Z" fill="#0052FF"/>
<path d="M73.6871 30.9755C73.6871 30.5277 73.4495 30.3869 73.4495 30.3869H73.0986C72.5102 30.3869 71.9362 29.7983 71.9362 29.2098V18.9127C71.9362 18.9127 71.9084 18.6045 71.5853 18.6045H70.6893C70.5217 18.6045 70.3818 18.7442 70.3818 18.7442L69.1349 20.3691C68.995 20.5653 68.8263 20.3691 68.8263 20.3691C68.0002 19.3882 66.5991 18.1833 64.0765 18.1833C60.2938 18.1833 56.7065 20.9289 56.7065 25.9732C56.7065 30.6806 59.8031 33.4683 63.6136 33.4683C65.7852 33.4683 67.1587 32.5572 68.2367 31.1561V32.893C68.2367 32.893 68.2512 33.2854 68.6986 33.3829C69.105 33.4672 69.4136 33.3408 69.4136 33.3408L73.4495 31.6172C73.4495 31.6483 73.6871 31.4377 73.6871 30.9755ZM64.3841 31.5496C61.7772 31.5496 60.6991 28.9715 60.6991 25.848C60.6991 22.7101 61.7772 20.1463 64.3841 20.1463C66.9899 20.1463 68.0691 22.7245 68.0691 25.848C68.0691 28.9859 66.9899 31.5496 64.3841 31.5496Z" fill="#0052FF"/>
<path d="M48.9286 36.4963C48.3824 36.4963 48.0182 36.6083 47.6396 36.7768L47.8494 37.393C48.1581 37.2667 48.4379 37.1824 48.8165 37.1824C49.3494 37.1824 49.6436 37.4352 49.6436 37.8974V37.9672C49.3772 37.883 49.1251 37.8275 48.7054 37.8275C47.9205 37.8275 47.332 38.1778 47.332 38.9348V38.9492C47.332 39.622 47.8927 39.9856 48.5367 39.9856C49.0407 39.9856 49.3916 39.775 49.6292 39.4957V39.9158H50.3997V37.9129C50.4142 37.0284 49.9234 36.4963 48.9286 36.4963ZM49.6714 38.7098C49.6714 39.1299 49.2928 39.4247 48.7743 39.4247C48.4101 39.4247 48.1303 39.243 48.1303 38.9348V38.9204C48.1303 38.5979 48.4101 38.4017 48.9009 38.4017C49.1951 38.4017 49.4749 38.4582 49.6714 38.5413V38.7098Z" fill="#0052FF"/>
<path d="M71.1215 36.4829C70.1544 36.4829 69.4683 37.2677 69.4683 38.2342V38.2486C69.4683 39.285 70.2244 39.9999 71.1914 39.9999C71.8076 39.9999 72.2562 39.7472 72.5781 39.3692L72.1296 38.9624C71.8631 39.2284 71.5967 39.3692 71.2192 39.3692C70.7295 39.3692 70.3365 39.0611 70.2521 38.5146H72.718C72.718 38.4448 72.7314 38.375 72.7314 38.304C72.7325 37.3231 72.1851 36.4829 71.1215 36.4829ZM70.2388 38.0092C70.3087 37.4904 70.6451 37.1269 71.1081 37.1269C71.6266 37.1269 71.9064 37.5193 71.963 38.0092H70.2388Z" fill="#0052FF"/>
<path d="M61.3237 39.3273C60.7353 39.3273 60.3145 38.8374 60.3145 38.2344V38.22C60.3145 37.6315 60.7208 37.1415 61.2815 37.1415C61.6746 37.1415 61.9266 37.31 62.1509 37.5616L62.6272 37.0429C62.3196 36.6926 61.9122 36.4688 61.2826 36.4688C60.2734 36.4688 59.5317 37.2668 59.5317 38.2344V38.2488C59.5317 39.2021 60.2745 39.9857 61.2693 39.9857C61.9277 39.9857 62.3207 39.7197 62.6427 39.355L62.1808 38.8928C61.9544 39.1589 61.689 39.3273 61.3237 39.3273Z" fill="#0052FF"/>
<path d="M52.1519 35.2615H51.3813V39.9268H52.1519V35.2615Z" fill="#0052FF"/>
<path d="M54.0844 35.6272H53.3139V36.5516H52.8931V37.21H53.3139V38.989C53.3139 39.7316 53.7202 39.9832 54.2809 39.9832C54.5607 39.9832 54.785 39.9134 54.9815 39.8148V39.1841C54.8272 39.2539 54.6728 39.296 54.5052 39.296C54.2387 39.296 54.0844 39.1697 54.0844 38.8759V37.2222H54.9948V36.5638H54.0844V35.6272Z" fill="#0052FF"/>
<path d="M57.5997 36.4807C57.0812 36.4807 56.7592 36.7611 56.5493 37.0693V35.2615H55.7788V39.9268H56.5493V38.0214C56.5493 37.5027 56.858 37.1812 57.3054 37.1812C57.7673 37.1812 58.0338 37.475 58.0338 38.0081V39.9279H58.8043V37.7842C58.8043 36.985 58.3557 36.4807 57.5997 36.4807Z" fill="#0052FF"/>
<path fill-rule="evenodd" clip-rule="evenodd" d="M16.3812 6.20596C16.3812 4.65087 17.0962 3.24985 18.1887 2.31103C19.2957 3.24985 19.9963 4.65087 19.9818 6.20596C19.9818 7.76106 19.2812 9.16208 18.1743 10.1009C17.0818 9.16208 16.3812 7.77547 16.3812 6.20596ZM21.8737 2.22679C21.4252 3.31968 21.5096 4.4968 22.0003 5.47663C23.0506 5.14079 23.9477 4.36934 24.3963 3.27756C24.8448 2.18467 24.7604 1.00754 24.2697 0.0277101C23.2327 0.363557 22.3356 1.1339 21.8737 2.22679ZM11.9812 3.24985C12.4297 4.34273 13.3257 5.12749 14.3772 5.46333C14.8812 4.48239 14.9656 3.30527 14.5171 2.21349C14.0552 1.10619 13.1725 0.335847 12.1211 0C11.617 0.979831 11.5326 2.15696 11.9812 3.24985ZM5.70482 10.9699C6.79733 11.4177 7.97422 11.3346 8.9557 10.8435C8.61929 9.79277 7.84876 8.89607 6.75625 8.44827C5.66374 7.99937 4.48685 8.0703 3.50537 8.57463C3.84067 9.62429 4.6112 10.521 5.70482 10.9699ZM29.5935 8.50369C28.5009 8.95149 27.716 9.84819 27.3796 10.899C28.3599 11.4033 29.5368 11.4875 30.6305 11.0386C31.723 10.5897 32.5079 9.69412 32.8443 8.64335C31.8773 8.13902 30.7004 8.04148 29.5935 8.50369ZM26.6368 12.903C25.0813 12.903 23.6801 13.6035 22.742 14.6964C23.6801 15.8036 25.068 16.5042 26.6368 16.5042C28.2056 16.5042 29.5935 15.8036 30.5316 14.7108C29.5935 13.6179 28.1923 12.903 26.6368 12.903ZM22.8963 7.43851C21.7894 8.54581 21.2986 10.0167 21.4107 11.4598C22.8541 11.5862 24.3385 11.0951 25.4455 9.98895C26.5524 8.88166 27.0432 7.4108 26.931 5.96766C25.4877 5.85571 24.0032 6.33232 22.8963 7.43851ZM9.72512 12.903C8.16963 12.903 6.76846 13.6179 5.83028 14.7097C6.76846 15.8169 8.16963 16.5175 9.72512 16.5031C11.2806 16.4886 12.6818 15.8025 13.62 14.6952C12.6818 13.6035 11.295 12.903 9.72512 12.903ZM13.4667 7.43851C12.3598 6.33121 10.8743 5.85571 9.43201 5.96766C9.31987 7.4108 9.81061 8.89607 10.9176 9.98895C12.0245 11.0818 13.51 11.5718 14.9523 11.4598C15.0633 10.0167 14.5737 8.5314 13.4667 7.43851Z" fill="#0052FF"/>
</svg>
