<svg width="189" height="48" viewBox="0 0 189 48" fill="none" xmlns="http://www.w3.org/2000/svg">
<path d="M176.705 13.5991H176.15H175.996L174.943 16.1896L173.89 13.5991H173.734H173.178H173.006V17.2513H173.734V14.8931L174.748 17.2513H175.141L176.15 14.8983V17.2513H176.877V13.5991H176.705Z" fill="white"/>
<path d="M172.37 13.5991H169.422V14.2252H170.532V17.2513H171.262V14.2252H172.37V13.5991Z" fill="white"/>
<path d="M59.4054 14.7417C57.8934 13.7896 56.1103 13.3043 54.1082 13.3043C52.1061 13.3043 50.3126 13.787 48.6859 14.7391C47.0618 15.6913 45.7557 16.9904 44.7964 18.6052C43.8397 20.2226 43.3522 22.0357 43.3522 23.9948C43.3522 25.9539 43.8371 27.7696 44.7964 29.3844C45.7531 30.9991 47.0618 32.3009 48.6859 33.2504C50.3126 34.2026 52.1348 34.6852 54.1082 34.6852C56.0817 34.6852 57.7396 34.2391 59.2907 33.3574C60.7063 32.5539 61.8924 31.5052 62.8127 30.2322C62.9091 30.0965 62.9508 29.9296 62.9221 29.7678C62.8935 29.6061 62.8048 29.4652 62.6641 29.3661C62.5311 29.2722 62.3695 29.2357 62.2079 29.2644C62.041 29.2931 61.8976 29.387 61.7986 29.5278C61.04 30.6157 60.0259 31.5287 58.7876 32.2461C57.4164 33.0391 55.8392 33.4409 54.1004 33.4409C52.3616 33.4409 50.8053 32.9922 49.6244 32.1078C48.4356 31.2183 47.5362 30.0704 46.9471 28.6931C46.4153 27.4487 46.1207 26.16 46.0686 24.8583C46.0686 24.7904 46.092 24.7252 46.1389 24.6757C46.1911 24.6235 46.2615 24.5948 46.3319 24.5948H63.5947C63.9049 24.5948 64.1656 24.3652 64.2047 24.0626V24.047C64.21 24.0183 64.2126 23.9896 64.2126 23.9609C64.2073 22.0174 63.7824 20.2174 62.9456 18.6104C62.1036 16.9931 60.9096 15.6939 59.3976 14.7391H59.4028L59.4054 14.7417ZM54.0639 14.5513C55.8783 14.5513 57.3277 15 58.3809 15.8791C59.4393 16.7687 60.2188 17.9061 60.6932 19.2652C61.1234 20.4965 61.3736 21.7826 61.4414 23.0817C61.4466 23.1522 61.4206 23.2174 61.371 23.2696C61.3189 23.3217 61.2485 23.353 61.1781 23.353H46.3397C46.2667 23.353 46.1963 23.3217 46.1468 23.2722C46.0972 23.22 46.0712 23.1574 46.0764 23.0896C46.1285 21.7904 46.4179 20.507 46.934 19.2757C47.505 17.9139 48.3991 16.7739 49.5879 15.8844C50.7714 15 52.2756 14.5513 54.0639 14.5513Z" fill="white"/>
<path d="M84.343 15.6235C83.4645 14.7209 82.4321 14.1026 81.2747 13.7817C80.1302 13.4661 79.0093 13.3043 77.9378 13.3043C76.6839 13.3043 75.4821 13.5626 74.3612 14.0687C73.2428 14.5748 72.2574 15.24 71.431 16.0461C71.0191 16.4504 70.649 16.8704 70.3309 17.2957C70.2292 17.4313 70.0859 17.3974 70.0442 17.3844C69.9529 17.3557 69.8565 17.2722 69.8565 17.1313V14.1678C69.8565 13.8313 69.5801 13.5574 69.2438 13.5574H67.9691C67.6302 13.5574 67.3564 13.8313 67.3564 14.1678V33.8165C67.3564 34.153 67.6328 34.427 67.9691 34.427H69.2438C69.5827 34.427 69.8565 34.153 69.8565 33.8165V24.3757C69.8565 23.2748 69.8982 22.3461 69.9842 21.6157C70.0676 20.8957 70.2501 20.2226 70.529 19.6122C70.8914 18.7513 71.4336 17.9296 72.1323 17.16C72.8335 16.3957 73.6677 15.7618 74.6193 15.2739C75.5656 14.7887 76.5953 14.5461 77.6798 14.5461C78.2637 14.5461 78.9285 14.6374 79.6584 14.82C80.3779 15 81.0765 15.3548 81.7413 15.8765C82.4008 16.3957 82.9509 17.1652 83.3654 18.1591C83.7851 19.1583 83.9989 20.5174 83.9989 22.1974V33.8165C83.9989 34.153 84.2752 34.427 84.6115 34.427H85.8863C86.2252 34.427 86.4989 34.153 86.4989 33.8165V22.1974C86.4989 20.7052 86.3451 19.4374 86.0401 18.4278C85.7325 17.4104 85.1616 16.4661 84.343 15.6209V15.6235Z" fill="white"/>
<path d="M101.629 24.3965C100.482 23.8565 99.2544 23.2957 97.9666 22.727C97.2549 22.4165 96.4885 22.067 95.6908 21.6835C94.9009 21.3052 94.1788 20.8774 93.5453 20.4157C92.9249 19.9644 92.466 19.4583 92.1767 18.9157C91.9003 18.3965 91.8977 17.7965 92.1636 17.1365C92.3774 16.6017 92.9144 16.0304 93.7565 15.4409C94.5959 14.8513 95.7559 14.5513 97.2028 14.5513C99.6897 14.5513 101.833 15.3809 103.569 17.0217C103.816 17.2565 104.194 17.2513 104.432 17.0165L104.45 16.9983C104.57 16.8809 104.632 16.7217 104.627 16.5548C104.622 16.3852 104.549 16.2235 104.421 16.1087C103.54 15.3078 102.508 14.6504 101.356 14.1522C100.049 13.5887 98.6496 13.3043 97.2002 13.3043C95.9228 13.3043 94.6793 13.5235 93.5062 13.9565C92.3253 14.3922 91.3477 15.0104 90.6021 15.7957C89.8409 16.5965 89.4551 17.5278 89.4551 18.5661C89.4551 19.7218 89.8696 20.7078 90.6907 21.4904C91.4885 22.2548 92.4869 22.9252 93.6626 23.4887C94.8279 24.0444 95.9801 24.5713 97.0881 25.0513C98.3993 25.62 99.4968 26.1261 100.347 26.5644C101.181 26.9922 101.825 27.4539 102.252 27.9339C102.664 28.3983 102.875 28.9852 102.875 29.6791C102.875 30.0965 102.664 30.6 102.242 31.1791C101.814 31.7687 101.176 32.2957 100.341 32.7548C99.5099 33.2087 98.4384 33.4383 97.1558 33.4383C95.8733 33.4383 94.6741 33.1931 93.5244 32.7026C92.5025 32.2696 91.5641 31.6774 90.7403 30.9444C90.4952 30.7252 90.1224 30.7331 89.893 30.96L89.8618 30.9887C89.7444 31.1061 89.6767 31.2678 89.6819 31.4348C89.6819 31.5991 89.7523 31.753 89.8722 31.8626C91.8977 33.733 94.3613 34.6774 97.1976 34.6774C98.7382 34.6774 100.151 34.3696 101.402 33.7618C102.651 33.1565 103.668 32.4 104.426 31.5157C105.196 30.6183 105.587 29.7104 105.587 28.8157C105.587 27.8009 105.206 26.9322 104.458 26.2304C103.73 25.5522 102.776 24.9287 101.619 24.3835L101.624 24.3913L101.629 24.3965Z" fill="white"/>
<path d="M126.924 13.5626H125.649C125.31 13.5626 125.037 13.8365 125.037 14.173V23.6139C125.037 24.7096 125.003 25.6304 124.93 26.3557C124.859 27.06 124.685 27.7409 124.406 28.3748C124.041 29.2096 123.501 30.0287 122.8 30.8087C122.099 31.5887 121.264 32.2278 120.313 32.7157C119.367 33.2009 118.321 33.4435 117.208 33.4435C116.619 33.4435 115.954 33.3496 115.23 33.1696C114.51 32.9922 113.811 32.6374 113.147 32.1131C112.487 31.5939 111.937 30.827 111.523 29.8304C111.103 28.8313 110.889 27.4722 110.889 25.7922V14.173C110.889 13.8365 110.613 13.5626 110.276 13.5626H109.002C108.663 13.5626 108.389 13.8365 108.389 14.173V25.7922C108.389 27.287 108.551 28.5574 108.869 29.5644C109.189 30.5817 109.752 31.5235 110.545 32.3687C111.423 33.2713 112.464 33.8896 113.634 34.2104C114.792 34.5261 115.907 34.6852 116.95 34.6852C118.23 34.6852 119.44 34.427 120.55 33.9209C121.653 33.4174 122.633 32.7496 123.46 31.9435C123.871 31.5391 124.244 31.1191 124.56 30.6939C124.638 30.5844 124.76 30.5765 124.846 30.6052C124.938 30.6365 125.034 30.7174 125.034 30.8583V33.8191C125.034 34.1557 125.31 34.4296 125.647 34.4296H126.921C127.26 34.4296 127.534 34.1557 127.534 33.8191V14.173C127.534 13.8365 127.258 13.5626 126.921 13.5626H126.927H126.924Z" fill="white"/>
<path d="M144.466 13.9304C144.077 13.7217 143.666 13.5704 143.248 13.4818C142.704 13.3644 142.135 13.307 141.557 13.307C140.503 13.307 139.474 13.5339 138.493 13.9878C137.519 14.4365 136.648 15.0391 135.905 15.7774C135.563 16.1165 135.253 16.4765 134.982 16.8418C134.896 16.9565 134.771 16.9696 134.682 16.9383C134.64 16.9252 134.505 16.8652 134.505 16.6931V14.1757C134.505 13.8391 134.229 13.5652 133.892 13.5652H132.659C132.32 13.5652 132.047 13.8391 132.047 14.1757V33.8244C132.047 34.1609 132.323 34.4348 132.659 34.4348H133.892C134.231 34.4348 134.505 34.1609 134.505 33.8244V23.9583C134.505 22.86 134.57 21.8557 134.695 20.9687C134.82 20.0948 135.039 19.3409 135.35 18.7304C135.655 18.0678 136.1 17.4026 136.674 16.7635C137.245 16.127 137.936 15.5922 138.733 15.1774C139.523 14.7652 140.386 14.5565 141.299 14.5565C141.77 14.5565 142.271 14.6061 142.792 14.7026C143.16 14.7731 143.522 14.8983 143.869 15.0731C144.02 15.1487 144.197 15.1644 144.356 15.107C144.515 15.0522 144.641 14.9374 144.711 14.7835L144.74 14.7235C144.873 14.4313 144.753 14.087 144.468 13.9331L144.466 13.9304Z" fill="white"/>
<path d="M165.678 13.5626H164.403C164.065 13.5626 163.791 13.8365 163.791 14.173V16.4843C163.791 16.6148 163.705 16.6957 163.624 16.7244C163.546 16.7557 163.428 16.7557 163.337 16.6591C162.5 15.7748 161.507 15.0365 160.389 14.4548C158.908 13.6904 157.274 13.3018 155.535 13.3018C153.564 13.3018 151.739 13.7844 150.112 14.7365C148.488 15.6887 147.18 16.9878 146.223 18.6026C145.266 20.22 144.779 22.0304 144.779 23.9922C144.779 25.9539 145.264 27.767 146.223 29.3817C147.18 30.9965 148.488 32.2983 150.112 33.2478C151.739 34.2 153.561 34.6826 155.535 34.6826C157.276 34.6826 158.908 34.2939 160.389 33.5296C161.507 32.9531 162.498 32.2096 163.34 31.3252C163.428 31.2313 163.546 31.2313 163.627 31.26C163.705 31.2913 163.791 31.3722 163.791 31.5V33.8113C163.791 34.1478 164.067 34.4217 164.403 34.4217H165.678C166.017 34.4217 166.291 34.1478 166.291 33.8113V14.1652C166.291 13.8287 166.014 13.5548 165.678 13.5548V13.5626ZM155.535 14.5513C157.412 14.5513 159.083 15.0104 160.493 15.913C161.877 16.8 162.975 17.9296 163.752 19.2783C163.775 19.3174 163.786 19.3644 163.786 19.4139V28.6226C163.786 28.6722 163.775 28.7165 163.749 28.7583C162.967 30.0783 161.87 31.1948 160.488 32.0791C159.075 32.9844 157.406 33.4409 155.53 33.4409C154.132 33.4409 152.915 33.1591 151.914 32.6087C150.907 32.0557 150.065 31.3148 149.411 30.4148C148.754 29.5096 148.264 28.487 147.954 27.3731C147.644 26.2539 147.487 25.1218 147.487 23.9974C147.487 22.8731 147.644 21.7409 147.954 20.6218C148.261 19.5052 148.746 18.48 149.39 17.5774C150.032 16.6774 150.871 15.9391 151.89 15.3861C152.904 14.8331 154.13 14.5539 155.527 14.5539L155.535 14.5513Z" fill="white"/>
<path d="M16.9999 10.6982C18.0205 10.6982 18.8478 9.87033 18.8478 8.8491C18.8478 7.82787 18.0205 7 16.9999 7C15.9794 7 15.1521 7.82787 15.1521 8.8491C15.1521 9.87033 15.9794 10.6982 16.9999 10.6982Z" fill="white" fill-opacity="0.85"/>
<path d="M9.42388 12.7304C10.4444 12.7304 11.2717 11.9025 11.2717 10.8813C11.2717 9.86004 10.4444 9.03217 9.42388 9.03217C8.40335 9.03217 7.57605 9.86004 7.57605 10.8813C7.57605 11.9025 8.40335 12.7304 9.42388 12.7304Z" fill="white" fill-opacity="0.75"/>
<path d="M3.87859 18.2795C4.89911 18.2795 5.72641 17.4516 5.72641 16.4304C5.72641 15.4092 4.89911 14.5813 3.87859 14.5813C2.85806 14.5813 2.03076 15.4092 2.03076 16.4304C2.03076 17.4516 2.85806 18.2795 3.87859 18.2795Z" fill="white" fill-opacity="0.65"/>
<path d="M1.84783 25.8608C2.86835 25.8608 3.69565 25.033 3.69565 24.0117C3.69565 22.9905 2.86835 22.1626 1.84783 22.1626C0.8273 22.1626 0 22.9905 0 24.0117C0 25.033 0.8273 25.8608 1.84783 25.8608Z" fill="white" fill-opacity="0.55"/>
<path d="M3.87859 33.4421C4.89911 33.4421 5.72641 32.6143 5.72641 31.593C5.72641 30.5718 4.89911 29.7439 3.87859 29.7439C2.85806 29.7439 2.03076 30.5718 2.03076 31.593C2.03076 32.6143 2.85806 33.4421 3.87859 33.4421Z" fill="white" fill-opacity="0.45"/>
<path d="M9.42388 38.9913C10.4444 38.9913 11.2717 38.1634 11.2717 37.1422C11.2717 36.121 10.4444 35.2931 9.42388 35.2931C8.40335 35.2931 7.57605 36.121 7.57605 37.1422C7.57605 38.1634 8.40335 38.9913 9.42388 38.9913Z" fill="white" fill-opacity="0.35"/>
<path d="M16.9999 41.0235C18.0205 41.0235 18.8478 40.1956 18.8478 39.1744C18.8478 38.1531 18.0205 37.3253 16.9999 37.3253C15.9794 37.3253 15.1521 38.1531 15.1521 39.1744C15.1521 40.1956 15.9794 41.0235 16.9999 41.0235Z" fill="white" fill-opacity="0.25"/>
<path d="M24.5761 38.9913C25.5966 38.9913 26.4239 38.1634 26.4239 37.1422C26.4239 36.121 25.5966 35.2931 24.5761 35.2931C23.5556 35.2931 22.7283 36.121 22.7283 37.1422C22.7283 38.1634 23.5556 38.9913 24.5761 38.9913Z" fill="white" fill-opacity="0.15"/>
<path d="M30.1232 33.4421C31.1437 33.4421 31.971 32.6143 31.971 31.593C31.971 30.5718 31.1437 29.7439 30.1232 29.7439C29.1027 29.7439 28.2754 30.5718 28.2754 31.593C28.2754 32.6143 29.1027 33.4421 30.1232 33.4421Z" fill="white" fill-opacity="0.1"/>
<path d="M32.1521 25.8608C33.1727 25.8608 34 25.033 34 24.0117C34 22.9905 33.1727 22.1626 32.1521 22.1626C31.1316 22.1626 30.3043 22.9905 30.3043 24.0117C30.3043 25.033 31.1316 25.8608 32.1521 25.8608Z" fill="white"/>
<path d="M30.1232 18.2795C31.1437 18.2795 31.971 17.4516 31.971 16.4304C31.971 15.4092 31.1437 14.5813 30.1232 14.5813C29.1027 14.5813 28.2754 15.4092 28.2754 16.4304C28.2754 17.4516 29.1027 18.2795 30.1232 18.2795Z" fill="white" fill-opacity="0.97"/>
<path d="M24.5761 12.7304C25.5966 12.7304 26.4239 11.9025 26.4239 10.8813C26.4239 9.86004 25.5966 9.03217 24.5761 9.03217C23.5556 9.03217 22.7283 9.86004 22.7283 10.8813C22.7283 11.9025 23.5556 12.7304 24.5761 12.7304Z" fill="white" fill-opacity="0.9"/>
</svg>
