<svg width="212" height="54" viewBox="0 0 212 54" fill="none" xmlns="http://www.w3.org/2000/svg">
<path d="M211.669 15.2988H211.047H210.874L209.693 18.2131L208.511 15.2988H208.336H207.713H207.52V19.4075H208.336V16.7545L209.473 19.4075H209.915L211.047 16.7604V19.4075H211.862V15.2988H211.669Z" fill="black"/>
<path d="M206.807 15.2988H203.5V16.0032H204.745V19.4075H205.564V16.0032H206.807V15.2988Z" fill="black"/>
<path d="M80.095 16.5844C78.399 15.5132 76.3989 14.9673 74.1531 14.9673C71.9074 14.9673 69.8956 15.5102 68.0709 16.5814C66.2492 17.6526 64.7842 19.1141 63.7081 20.9308C62.635 22.7503 62.0881 24.79 62.0881 26.994C62.0881 29.1981 62.632 31.2407 63.7081 33.0573C64.7813 34.8739 66.2492 36.3384 68.0709 37.4066C69.8956 38.4778 71.9396 39.0208 74.1531 39.0208C76.3667 39.0208 78.2264 38.5189 79.9663 37.527C81.5541 36.6231 82.8846 35.4433 83.9168 34.0111C84.025 33.8585 84.0718 33.6707 84.0396 33.4887C84.0075 33.3068 83.908 33.1483 83.7501 33.0367C83.601 32.9311 83.4197 32.89 83.2384 32.9223C83.0513 32.9546 82.8905 33.0602 82.7793 33.2187C81.9284 34.4425 80.7909 35.4697 79.402 36.2768C77.8639 37.1689 76.0948 37.6209 74.1444 37.6209C72.194 37.6209 70.4482 37.1161 69.1236 36.1212C67.7902 35.1204 66.7814 33.8291 66.1205 32.2796C65.524 30.8797 65.1936 29.4299 65.1351 27.9654C65.1351 27.8891 65.1614 27.8158 65.214 27.76C65.2725 27.7013 65.3515 27.669 65.4304 27.669H84.7941C85.142 27.669 85.4345 27.4108 85.4783 27.0703V27.0527C85.4842 27.0205 85.4871 26.9882 85.4871 26.9559C85.4812 24.7695 85.0046 22.7445 84.066 20.9366C83.1215 19.1171 81.7822 17.6555 80.0862 16.5814H80.0921L80.095 16.5844ZM74.1034 16.3701C76.1386 16.3701 77.7644 16.8749 78.9458 17.8639C80.133 18.8647 81.0073 20.1443 81.5395 21.6733C82.022 23.0585 82.3027 24.5053 82.3787 25.9669C82.3846 26.0461 82.3553 26.1195 82.2998 26.1782C82.2413 26.2369 82.1623 26.2721 82.0834 26.2721H65.4392C65.3573 26.2721 65.2784 26.2369 65.2228 26.1811C65.1673 26.1224 65.138 26.052 65.1439 25.9757C65.2023 24.5141 65.5269 23.0702 66.1059 21.685C66.7463 20.1531 67.7493 18.8706 69.0827 17.8698C70.4102 16.8749 72.0975 16.3701 74.1034 16.3701Z" fill="black"/>
<path d="M108.067 17.5763C107.082 16.5609 105.924 15.8653 104.626 15.5044C103.342 15.1492 102.084 14.9673 100.883 14.9673C99.4761 14.9673 98.1281 15.2578 96.8707 15.8272C95.6163 16.3965 94.5109 17.1449 93.584 18.0517C93.122 18.5066 92.7067 18.9791 92.35 19.4575C92.236 19.6101 92.0751 19.572 92.0283 19.5573C91.926 19.525 91.8178 19.4311 91.8178 19.2726V15.9387C91.8178 15.5601 91.5078 15.252 91.1306 15.252H89.7007C89.3206 15.252 89.0135 15.5601 89.0135 15.9387V38.0435C89.0135 38.4221 89.3235 38.7302 89.7007 38.7302H91.1306C91.5108 38.7302 91.8178 38.4221 91.8178 38.0435V27.4225C91.8178 26.184 91.8646 25.1393 91.9611 24.3175C92.0547 23.5075 92.2593 22.7503 92.5722 22.0636C92.9787 21.0951 93.5869 20.1707 94.3706 19.3049C95.1572 18.445 96.0929 17.7319 97.1602 17.1831C98.2217 16.6372 99.3767 16.3642 100.593 16.3642C101.248 16.3642 101.994 16.467 102.813 16.6724C103.62 16.8749 104.403 17.274 105.149 17.861C105.889 18.445 106.506 19.3108 106.971 20.4289C107.441 21.553 107.681 23.082 107.681 24.972V38.0435C107.681 38.4221 107.991 38.7302 108.368 38.7302H109.798C110.178 38.7302 110.485 38.4221 110.485 38.0435V24.972C110.485 23.2933 110.313 21.867 109.971 20.7312C109.626 19.5866 108.985 18.5242 108.067 17.5734V17.5763Z" fill="black"/>
<path d="M127.457 27.446C126.171 26.8385 124.793 26.2075 123.349 25.5677C122.551 25.2185 121.691 24.8252 120.796 24.3938C119.91 23.9683 119.1 23.487 118.389 22.9675C117.694 22.4598 117.179 21.8904 116.854 21.28C116.544 20.696 116.541 20.021 116.84 19.2785C117.079 18.6769 117.682 18.0341 118.626 17.3709C119.568 16.7076 120.869 16.3701 122.492 16.3701C125.282 16.3701 127.685 17.3034 129.633 19.1494C129.911 19.4135 130.335 19.4076 130.601 19.1435L130.621 19.1229C130.756 18.9909 130.826 18.8119 130.82 18.624C130.814 18.4333 130.732 18.2513 130.589 18.1222C129.601 17.2212 128.443 16.4816 127.15 15.9211C125.685 15.2872 124.115 14.9673 122.489 14.9673C121.056 14.9673 119.661 15.2138 118.346 15.701C117.021 16.1911 115.924 16.8866 115.088 17.77C114.234 18.671 113.802 19.7187 113.802 20.8868C113.802 22.1869 114.266 23.2962 115.188 24.1766C116.082 25.0365 117.202 25.7908 118.521 26.4247C119.828 27.0498 121.121 27.6426 122.363 28.1826C123.834 28.8224 125.065 29.3917 126.019 29.8848C126.954 30.3661 127.677 30.8856 128.156 31.4256C128.618 31.9479 128.855 32.6083 128.855 33.3889C128.855 33.8585 128.618 34.4249 128.144 35.0764C127.665 35.7397 126.948 36.3325 126.013 36.849C125.08 37.3597 123.878 37.618 122.439 37.618C121.001 37.618 119.656 37.3421 118.366 36.7903C117.22 36.3032 116.167 35.637 115.243 34.8123C114.968 34.5658 114.55 34.5746 114.293 34.8299L114.258 34.8622C114.126 34.9943 114.05 35.1762 114.056 35.364C114.056 35.5489 114.135 35.7221 114.269 35.8453C116.541 37.9496 119.305 39.012 122.486 39.012C124.214 39.012 125.799 38.6657 127.203 37.9819C128.604 37.301 129.744 36.4499 130.595 35.455C131.457 34.4455 131.896 33.4241 131.896 32.4175C131.896 31.2759 131.469 30.2986 130.63 29.5091C129.814 28.7461 128.744 28.0447 127.446 27.4313L127.451 27.4401L127.457 27.446Z" fill="black"/>
<path d="M155.83 15.2578H154.4C154.02 15.2578 153.713 15.566 153.713 15.9445V26.5655C153.713 27.7981 153.675 28.8341 153.593 29.65C153.514 30.4424 153.318 31.2083 153.005 31.9215C152.596 32.8606 151.991 33.7822 151.204 34.6597C150.418 35.5372 149.482 36.2562 148.415 36.805C147.353 37.3509 146.181 37.6238 144.932 37.6238C144.271 37.6238 143.525 37.5181 142.712 37.3156C141.905 37.1161 141.122 36.7169 140.376 36.127C139.636 35.543 139.019 34.6802 138.554 33.5591C138.084 32.4351 137.844 30.9061 137.844 29.0161V15.9445C137.844 15.566 137.534 15.2578 137.157 15.2578H135.727C135.347 15.2578 135.04 15.566 135.04 15.9445V29.0161C135.04 30.6977 135.221 32.1269 135.578 33.2598C135.937 34.4043 136.569 35.4638 137.458 36.4146C138.443 37.4301 139.61 38.1256 140.923 38.4866C142.221 38.8417 143.473 39.0207 144.642 39.0207C146.078 39.0207 147.435 38.7302 148.681 38.1608C149.918 37.5944 151.017 36.8431 151.944 35.9363C152.406 35.4814 152.824 35.0089 153.178 34.5305C153.266 34.4073 153.403 34.3985 153.5 34.4307C153.602 34.466 153.71 34.5569 153.71 34.7154V38.0464C153.71 38.425 154.02 38.7331 154.397 38.7331H155.827C156.207 38.7331 156.514 38.425 156.514 38.0464V15.9445C156.514 15.566 156.204 15.2578 155.827 15.2578H155.833H155.83Z" fill="black"/>
<path d="M175.507 15.6716C175.071 15.4368 174.609 15.2666 174.141 15.1669C173.53 15.0348 172.892 14.9702 172.243 14.9702C171.062 14.9702 169.907 15.2256 168.807 15.7362C167.714 16.241 166.737 16.9189 165.904 17.7495C165.521 18.131 165.173 18.536 164.869 18.9469C164.772 19.076 164.632 19.0907 164.532 19.0554C164.486 19.0408 164.334 18.9733 164.334 18.7796V15.9475C164.334 15.5689 164.024 15.2608 163.646 15.2608H162.263C161.883 15.2608 161.576 15.5689 161.576 15.9475V38.0523C161.576 38.4309 161.886 38.739 162.263 38.739H163.646C164.026 38.739 164.334 38.4309 164.334 38.0523V26.9529C164.334 25.7174 164.407 24.5875 164.547 23.5897C164.687 22.6065 164.933 21.7584 165.281 21.0716C165.623 20.3262 166.123 19.5778 166.766 18.8588C167.407 18.1427 168.182 17.5411 169.076 17.0745C169.962 16.6108 170.93 16.376 171.954 16.376C172.483 16.376 173.045 16.4317 173.629 16.5403C174.042 16.6196 174.448 16.7604 174.837 16.9571C175.007 17.0422 175.205 17.0598 175.384 16.9952C175.562 16.9336 175.703 16.8045 175.781 16.6313L175.814 16.5638C175.963 16.2351 175.828 15.8477 175.51 15.6746L175.507 15.6716Z" fill="black"/>
<path d="M199.3 15.2578H197.87C197.49 15.2578 197.183 15.566 197.183 15.9446V18.5448C197.183 18.6915 197.087 18.7825 196.996 18.8148C196.908 18.85 196.777 18.85 196.674 18.7414C195.736 17.7465 194.622 16.916 193.367 16.2615C191.706 15.4016 189.873 14.9644 187.923 14.9644C185.712 14.9644 183.665 15.5073 181.84 16.5785C180.019 17.6497 178.551 19.1112 177.478 20.9278C176.404 22.7474 175.858 24.7841 175.858 26.9911C175.858 29.198 176.401 31.2377 177.478 33.0543C178.551 34.871 180.019 36.3354 181.84 37.4037C183.665 38.4749 185.709 39.0178 187.923 39.0178C189.876 39.0178 191.706 38.5805 193.367 37.7207C194.622 37.0721 195.733 36.2356 196.677 35.2408C196.777 35.1351 196.908 35.1351 196.999 35.1674C197.087 35.2026 197.183 35.2936 197.183 35.4374V38.0376C197.183 38.4162 197.493 38.7243 197.87 38.7243H199.3C199.681 38.7243 199.988 38.4162 199.988 38.0376V15.9358C199.988 15.5572 199.678 15.249 199.3 15.249V15.2578ZM187.923 16.3701C190.028 16.3701 191.902 16.8866 193.484 17.9021C195.037 18.8999 196.268 20.1707 197.139 21.6879C197.166 21.732 197.177 21.7848 197.177 21.8405V32.2003C197.177 32.2561 197.166 32.306 197.137 32.3529C196.259 33.8379 195.028 35.094 193.478 36.0889C191.894 37.1073 190.022 37.6209 187.917 37.6209C186.349 37.6209 184.984 37.3039 183.861 36.6847C182.732 36.0625 181.788 35.229 181.054 34.2165C180.317 33.1982 179.767 32.0477 179.419 30.7946C179.071 29.5356 178.896 28.2619 178.896 26.997C178.896 25.7321 179.071 24.4584 179.419 23.1994C179.764 21.9433 180.308 20.7899 181.03 19.7745C181.75 18.762 182.691 17.9314 183.835 17.3092C184.972 16.6871 186.346 16.373 187.914 16.373L187.923 16.3701Z" fill="black"/>
<path d="M26.9708 5.86957C28.5857 5.86957 29.8949 4.55562 29.8949 2.93478C29.8949 1.31395 28.5857 0 26.9708 0C25.3558 0 24.0466 1.31395 24.0466 2.93478C24.0466 4.55562 25.3558 5.86957 26.9708 5.86957Z" fill="#0052FF" fill-opacity="0.85"/>
<path d="M14.9819 9.09466C16.5968 9.09466 17.906 7.78072 17.906 6.15988C17.906 4.53904 16.5968 3.2251 14.9819 3.2251C13.3669 3.2251 12.0577 4.53904 12.0577 6.15988C12.0577 7.78072 13.3669 9.09466 14.9819 9.09466Z" fill="#0052FF" fill-opacity="0.75"/>
<path d="M6.20649 17.9023C7.82144 17.9023 9.13062 16.5883 9.13062 14.9675C9.13062 13.3467 7.82144 12.0327 6.20649 12.0327C4.59153 12.0327 3.28235 13.3467 3.28235 14.9675C3.28235 16.5883 4.59153 17.9023 6.20649 17.9023Z" fill="#0052FF" fill-opacity="0.65"/>
<path d="M2.99286 29.935C4.60782 29.935 5.917 28.621 5.917 27.0002C5.917 25.3794 4.60782 24.0654 2.99286 24.0654C1.37791 24.0654 0.0687256 25.3794 0.0687256 27.0002C0.0687256 28.621 1.37791 29.935 2.99286 29.935Z" fill="#0052FF" fill-opacity="0.55"/>
<path d="M6.20649 41.9672C7.82144 41.9672 9.13062 40.6533 9.13062 39.0324C9.13062 37.4116 7.82144 36.0977 6.20649 36.0977C4.59153 36.0977 3.28235 37.4116 3.28235 39.0324C3.28235 40.6533 4.59153 41.9672 6.20649 41.9672Z" fill="#0052FF" fill-opacity="0.45"/>
<path d="M14.9819 50.7748C16.5968 50.7748 17.906 49.4609 17.906 47.8401C17.906 46.2192 16.5968 44.9053 14.9819 44.9053C13.3669 44.9053 12.0577 46.2192 12.0577 47.8401C12.0577 49.4609 13.3669 50.7748 14.9819 50.7748Z" fill="#0052FF" fill-opacity="0.35"/>
<path d="M26.9708 53.9999C28.5857 53.9999 29.8949 52.686 29.8949 51.0652C29.8949 49.4443 28.5857 48.1304 26.9708 48.1304C25.3558 48.1304 24.0466 49.4443 24.0466 51.0652C24.0466 52.686 25.3558 53.9999 26.9708 53.9999Z" fill="#0052FF" fill-opacity="0.25"/>
<path d="M38.9598 50.7748C40.5747 50.7748 41.8839 49.4609 41.8839 47.8401C41.8839 46.2192 40.5747 44.9053 38.9598 44.9053C37.3448 44.9053 36.0356 46.2192 36.0356 47.8401C36.0356 49.4609 37.3448 50.7748 38.9598 50.7748Z" fill="#0052FF" fill-opacity="0.15"/>
<path d="M47.738 41.9672C49.3529 41.9672 50.6621 40.6533 50.6621 39.0324C50.6621 37.4116 49.3529 36.0977 47.738 36.0977C46.123 36.0977 44.8138 37.4116 44.8138 39.0324C44.8138 40.6533 46.123 41.9672 47.738 41.9672Z" fill="#0052FF" fill-opacity="0.1"/>
<path d="M50.9487 29.935C52.5636 29.935 53.8728 28.621 53.8728 27.0002C53.8728 25.3794 52.5636 24.0654 50.9487 24.0654C49.3337 24.0654 48.0245 25.3794 48.0245 27.0002C48.0245 28.621 49.3337 29.935 50.9487 29.935Z" fill="#0052FF"/>
<path d="M47.738 17.9023C49.3529 17.9023 50.6621 16.5883 50.6621 14.9675C50.6621 13.3467 49.3529 12.0327 47.738 12.0327C46.123 12.0327 44.8138 13.3467 44.8138 14.9675C44.8138 16.5883 46.123 17.9023 47.738 17.9023Z" fill="#0052FF" fill-opacity="0.97"/>
<path d="M38.9598 9.09466C40.5747 9.09466 41.8839 7.78072 41.8839 6.15988C41.8839 4.53904 40.5747 3.2251 38.9598 3.2251C37.3448 3.2251 36.0356 4.53904 36.0356 6.15988C36.0356 7.78072 37.3448 9.09466 38.9598 9.09466Z" fill="#0052FF" fill-opacity="0.9"/>
</svg>
