<svg width="243" height="80" viewBox="0 0 243 80" fill="none" xmlns="http://www.w3.org/2000/svg">
<path d="M242.857 0H0V80H242.857V0Z" fill="white"/>
<path d="M69.0285 34.871C69.7142 33.771 70.1999 32.4567 70.1999 31.071C70.1999 27.271 67.0856 24.1567 63.2856 24.1567C60.7285 24.1567 58.5142 25.5425 57.3428 27.6853L44.5571 47.5995C44.5571 47.5995 44.4856 47.7424 44.4142 47.8139L44.2713 48.0282C43.6428 49.071 43.2999 50.2424 43.2999 51.5567C43.2999 55.3567 46.4142 58.471 50.2142 58.471C52.6285 58.471 54.7713 57.2282 55.9571 55.3568L69.0285 34.8996V34.871Z" fill="black"/>
<path d="M48.7141 34.871C49.3999 33.771 49.8856 32.4567 49.8856 31.071C49.8856 27.271 46.7713 24.1567 42.9713 24.1567C40.4141 24.1567 38.1999 25.5425 37.0284 27.6853L24.2427 47.5995C24.2427 47.5995 24.1713 47.7425 24.0999 47.7425L23.957 47.9567C23.3284 48.9995 22.9856 50.171 22.9856 51.4853C22.9856 55.2853 26.0999 58.3995 29.8999 58.3995C32.3142 58.3995 34.457 57.1567 35.6427 55.2853L48.7141 34.8996V34.871Z" fill="black"/>
<path d="M82.2429 47.9994L82.1 47.7279C82.1 47.7279 82.0286 47.585 81.9572 47.5136L69.5143 28.0137C70 28.9137 70.2001 29.9422 70.2001 31.0565C70.2001 32.4422 69.7858 33.7565 69.0286 34.8565L63.2858 43.8422L70.5429 55.2422C71.7858 57.1137 73.8572 58.3565 76.2858 58.3565C80.0858 58.3565 83.2001 55.2422 83.2001 51.4422C83.2715 50.1993 82.8572 49.0279 82.2286 47.9851L82.2429 47.9994Z" fill="#878787"/>
<path d="M91.0857 29.3428H91.5714C92.1999 29.3428 92.6142 29.8285 92.8142 30.7999V51.3285H104.357C105.257 51.5428 105.743 51.9571 105.743 52.5713V53.057C105.471 53.8856 105.057 54.2999 104.5 54.2999H91.0143C90.1857 54.0284 89.7714 53.6142 89.7714 53.057V30.5856C90.0428 29.7571 90.4571 29.3428 91.0857 29.3428Z" fill="black"/>
<path d="M115.414 28.6572H115.686C116.586 28.6572 117.143 29.6287 117.486 31.4858L122.186 47.3144H122.329C125.643 35.5001 127.371 29.4858 127.514 29.2715C127.929 28.8572 128.271 28.7144 128.557 28.7144H129.043C129.8 28.7144 130.429 29.7572 130.771 31.7572C134.914 45.443 137.057 52.4286 137.057 52.6286V53.0429C136.786 53.8715 136.371 54.2858 135.814 54.2858H135.329C134.571 54.2858 133.943 53.243 133.6 51.243L128.9 35.6144H128.828C125.586 47.3001 123.857 53.3858 123.571 53.8001C123.157 54.1429 122.886 54.2858 122.6 54.2858H122.114C121.286 54.2858 120.729 53.1858 120.314 51.0429L115.686 35.6287H115.614C112.3 47.5858 110.5 53.6715 110.357 53.8144C109.943 54.1572 109.6 54.3 109.386 54.3H108.9C108.071 54.0286 107.657 53.6143 107.657 53.0572V52.6429C111.943 37.2287 114.229 29.4144 114.357 29.2858C114.629 28.8715 115.043 28.6572 115.4 28.6572H115.414Z" fill="black"/>
<path d="M142.657 32.3133V51.3277H149.571C153.1 51.3277 155.514 49.5276 156.757 45.999C156.9 45.2419 156.971 44.4847 156.971 43.8562V39.7133C156.971 36.1848 155.171 33.7705 151.643 32.5276C150.886 32.3848 150.128 32.3133 149.5 32.3133H142.657ZM140.857 29.3419H150.257C153.5 29.3419 156.271 30.9991 158.614 34.3848C159.514 36.1134 159.928 37.6991 159.928 39.0133V44.6134C159.928 47.8562 158.271 50.6276 154.886 52.9705C153.157 53.8705 151.571 54.2848 150.257 54.2848H140.857C140.028 54.0134 139.614 53.599 139.614 53.0419V30.5705C139.886 29.7419 140.3 29.3276 140.857 29.3276V29.3419Z" fill="black"/>
<path d="M162.771 37.086H163.257C164.086 37.3003 164.5 37.7718 164.5 38.5432C165.886 37.5718 167.129 37.086 168.3 37.086H169.129C171.057 37.086 172.929 38.1289 174.657 40.1289C176.243 38.1289 177.971 37.086 179.914 37.086H180.886C183.3 37.086 185.314 38.3289 186.829 40.7432C187.386 41.9146 187.729 43.1003 187.729 44.3432V53.0574C187.457 53.886 187.043 54.3003 186.486 54.3003H186C185.171 54.086 184.757 53.6146 184.757 52.8432V45.5146C184.757 42.8146 184.071 41.2289 182.614 40.6718C182.057 40.2575 181.3 40.1146 180.329 40.1146C178.329 40.1146 176.871 41.4289 176.186 44.1289L176.114 45.2289V53.1146C175.843 53.9432 175.429 54.3575 174.871 54.3575H174.386C173.757 54.3575 173.343 53.8717 173.143 52.9003V46.4003C173.143 43.4289 172.386 41.5575 170.857 40.8004C170.3 40.3861 169.614 40.1718 168.857 40.1718C166.786 40.1718 165.329 41.4861 164.643 44.1861L164.571 45.286V52.9574C164.571 53.7146 164.157 54.2003 163.329 54.4146H162.843C162.014 54.1432 161.6 53.7289 161.6 53.1718V38.3146C161.814 37.4861 162.229 37.0718 162.771 37.0718V37.086Z" fill="black"/>
<path d="M192.486 49.3146C192.486 50.0717 193.386 50.6289 195.186 51.1146C195.6 51.186 196.086 51.2574 196.643 51.2574C199.271 50.986 200.586 50.286 200.586 49.1146V45.6575L194.157 47.2432C193.057 47.8003 192.5 48.486 192.5 49.3146H192.486ZM196.086 37.086H197.057C199.414 37.086 201.271 37.986 202.8 39.7146C203.357 40.4717 203.629 41.1718 203.629 41.8575V53.0574C203.357 53.886 202.943 54.3003 202.386 54.3003H201.9C201.143 54.086 200.8 53.7432 200.8 53.3289C199.557 53.9574 198.314 54.3003 197.071 54.3003H196.1C193.743 54.3003 191.886 53.4003 190.357 51.6718C189.8 50.9146 189.529 50.2146 189.529 49.5289V48.7717C189.529 46.7003 191.114 45.1717 194.229 44.1432C198.443 43.3146 200.586 42.686 200.586 42.2718V42.2003C200.586 41.1003 199.271 40.3289 196.643 40.0575H196.5C194.571 40.0575 193.257 40.6147 192.557 41.7861C192.214 42.5432 191.729 42.9574 191.1 42.9574H191.029C190.057 42.7432 189.571 42.2718 189.571 41.5718V41.4289C189.571 40.4575 190.329 39.4289 191.857 38.386C193.171 37.486 194.629 37.0718 196.071 37.0718L196.086 37.086Z" fill="black"/>
<path d="M206.6 36.7427H207.086C207.571 36.7427 208.4 37.5713 209.571 39.2998C211.571 41.7141 212.543 42.957 212.543 43.0998H212.686C215.043 40.057 216.628 37.9855 217.6 37.0141L218.157 36.7998H218.643C219.471 37.0713 219.886 37.4855 219.886 38.0427V38.5284C219.886 38.7998 218.843 40.257 216.7 42.8141L214.486 45.5855C218.086 49.9427 219.871 52.2284 219.871 52.4999V53.0569C219.6 53.8855 219.186 54.2998 218.628 54.2998H218.143C217.657 54.2998 216.828 53.4712 215.657 51.7427C213.657 49.3284 212.686 48.0856 212.686 47.9427H212.543C210.186 50.9856 208.6 53.0569 207.628 54.0283L207.071 54.2427H206.586C205.757 53.9712 205.343 53.557 205.343 52.9998V52.5141C205.343 52.2426 206.386 50.7855 208.528 48.2284L210.743 45.4569C207.143 41.0998 205.357 38.8141 205.357 38.5427V37.9855C205.628 37.157 206.043 36.7427 206.6 36.7427Z" fill="black"/>
</svg>
