<svg width="115" height="80" viewBox="0 0 115 80" fill="none" xmlns="http://www.w3.org/2000/svg">
<path d="M114.286 0H0V80H114.286V0Z" fill="white"/>
<path d="M67.0286 49.456C67.8572 50.7275 68.7572 51.9131 69.7286 53.0703L70.9286 54.2988H62.8143L59.2429 48.9703L56.0143 44.1988H50.0715V54.3274C47.7001 52.1274 45.4715 49.9132 43.2715 47.6703V27.2131L58.4143 27.1846C59.7715 27.1846 61.0858 27.3417 62.3858 27.6703C65.4143 28.456 67.8286 30.3703 68.6286 33.4703C68.9572 34.7417 68.9429 36.0274 68.5572 37.2989C67.7572 40.1132 65.6429 42.1275 62.9429 43.1132L67.0286 49.4702V49.456ZM61.5286 34.7989C61.3143 33.9417 60.7286 33.2703 59.9 32.956C59.3857 32.7703 58.8858 32.7131 58.3286 32.6703H50.0858V38.8846H57.9857C58.7286 38.8417 59.4143 38.7274 60.0715 38.3846C61.3858 37.6846 61.8715 36.1989 61.5286 34.7846V34.7989Z" fill="black"/>
<path d="M79.5571 43.3999V38.1714H91.7714V50.8999C90.3714 52.2284 88.7142 53.2428 86.8856 53.9285C83.7142 55.0714 80.2713 55.2284 76.9999 54.4713C75.2285 54.0427 73.5856 53.3571 72.0571 52.3713C68.6285 50.1571 66.2142 46.5857 65.7 42.4857C67.8142 40.9857 69.2428 38.7714 69.5856 36.1714C69.7285 34.7571 69.5428 33.3856 69.0428 32.0428C70.7571 30.0571 72.9714 28.5142 75.4142 27.4999C78.9714 26.0142 83.0285 26.0428 86.6142 27.3857C88.4571 28.0857 90.0999 29.1713 91.4571 30.5713L89.1428 32.8571L86.957 35.0142C85.357 33.4285 83.2428 32.4571 80.9856 32.3714C78.1428 32.2571 75.4285 33.6428 73.8713 36.0142C73.1999 37.0285 72.7857 38.1285 72.5714 39.3285C72.2571 41.0856 72.5285 42.8571 73.3142 44.4571C74.6428 47.1428 77.2856 48.6285 80.2285 48.8285C81.2571 48.8999 82.2428 48.8285 83.2428 48.6142C84.0714 48.4285 84.8285 48.1428 85.5713 47.7142V43.4142H79.5856L79.5571 43.3999Z" fill="black"/>
<path d="M42.2857 48.2567L48.2286 54.2853H22.5143V27.2139H29.1857V48.2567H42.2857Z" fill="black"/>
</svg>
