<svg width="319" height="80" viewBox="0 0 319 80" fill="none" xmlns="http://www.w3.org/2000/svg">
<path d="M318.514 0H0V80H318.514V0Z" fill="white"/>
<path d="M29.6518 52.2335L44.5777 63.7314L57.6468 53.5761L57.6611 45.7775L37.8503 30.3945L44.6491 25.0669L66.0167 41.4782L66.0596 57.7896L44.5777 74.2867L22.8673 57.6182L29.6518 52.2335Z" fill="black"/>
<path d="M59.2894 27.7807L44.3634 16.2828L31.2801 26.4381V34.2367L51.0908 49.6197L44.2777 54.9473L22.9101 38.5359L22.8673 22.2246L44.3634 5.72754L66.0596 22.3817L59.2894 27.7807Z" fill="black"/>
<path d="M91.3978 34.8076C91.3121 34.979 91.2121 35.0932 91.1121 35.1647C91.0121 35.2361 90.8693 35.2646 90.7265 35.2646C90.5837 35.2646 90.4122 35.2075 90.2122 35.0932C90.0266 34.979 89.7981 34.8504 89.541 34.7076C89.2839 34.5648 88.9839 34.4362 88.6411 34.3219C88.2983 34.2076 87.8984 34.1505 87.4271 34.1505C86.9986 34.1505 86.6415 34.2077 86.3273 34.3077C86.013 34.4076 85.7559 34.5505 85.5417 34.7361C85.3275 34.9218 85.1703 35.1361 85.056 35.3932C84.9418 35.6502 84.8989 35.9217 84.8989 36.2216C84.8989 36.6072 85.0132 36.9214 85.2274 37.1785C85.4417 37.4356 85.7274 37.6499 86.0845 37.8356C86.4415 38.0213 86.8414 38.1784 87.2985 38.3212C87.7556 38.4641 88.2127 38.6212 88.684 38.7783C89.1554 38.9354 89.6124 39.1354 90.0694 39.3496C90.5265 39.5639 90.9264 39.8352 91.2835 40.1638C91.6405 40.4923 91.9263 40.8922 92.1405 41.3635C92.3548 41.8348 92.469 42.4205 92.469 43.0918C92.469 43.8345 92.3404 44.5201 92.0833 45.1629C91.8262 45.8056 91.4549 46.3626 90.9693 46.8483C90.4837 47.3339 89.8838 47.7052 89.1839 47.9766C88.484 48.248 87.6842 48.3909 86.77 48.3909C86.2558 48.3909 85.7416 48.3337 85.2274 48.2337C84.7275 48.1337 84.2419 47.9909 83.7706 47.8052C83.3135 47.6195 82.8707 47.391 82.4708 47.1197C82.0709 46.8626 81.7138 46.5626 81.3853 46.2341L82.2708 44.7772C82.3565 44.6772 82.4565 44.5772 82.5708 44.5058C82.685 44.4344 82.8136 44.3915 82.9565 44.3915C83.1421 44.3915 83.3421 44.463 83.5706 44.6201C83.7849 44.7772 84.0419 44.9486 84.3419 45.1343C84.6418 45.32 84.9846 45.4913 85.3988 45.6484C85.7987 45.8056 86.2844 45.877 86.8557 45.877C87.727 45.877 88.3983 45.6771 88.8696 45.2629C89.341 44.8486 89.5838 44.263 89.5838 43.4917C89.5838 43.0632 89.4695 42.7061 89.2553 42.4347C89.041 42.1634 88.7554 41.9349 88.3983 41.7492C88.0413 41.5635 87.6413 41.4064 87.1842 41.2778C86.7272 41.1493 86.2701 41.0065 85.7988 40.8636C85.3274 40.7065 84.8703 40.5351 84.4133 40.3209C83.9562 40.1066 83.5563 39.8352 83.1992 39.4925C82.8422 39.1497 82.5565 38.7354 82.3423 38.2212C82.128 37.707 82.0137 37.0786 82.0137 36.3358C82.0137 35.736 82.128 35.1646 82.3708 34.5933C82.6136 34.022 82.9565 33.5221 83.4135 33.0936C83.8706 32.6508 84.4276 32.308 85.0989 32.0366C85.756 31.7795 86.5272 31.6367 87.3699 31.6367C88.3412 31.6367 89.2267 31.7938 90.0408 32.0937C90.855 32.3937 91.5549 32.8222 92.1262 33.365L91.3835 34.8076H91.3978Z" fill="black"/>
<path d="M104.41 48.1772H103.153C102.896 48.1772 102.681 48.1343 102.524 48.0629C102.367 47.9772 102.267 47.8201 102.181 47.5773L101.939 46.7489C101.639 47.006 101.353 47.2488 101.067 47.4487C100.782 47.6487 100.496 47.8201 100.196 47.9487C99.8962 48.0915 99.5676 48.1914 99.2391 48.2486C98.9106 48.3057 98.525 48.3486 98.1108 48.3486C97.6252 48.3486 97.1681 48.2771 96.7539 48.1486C96.3397 48.02 95.9826 47.8201 95.6826 47.5487C95.3827 47.2773 95.1542 46.9488 94.9828 46.5632C94.8114 46.1632 94.74 45.7061 94.74 45.192C94.74 44.7492 94.8542 44.3207 95.0828 43.8922C95.3113 43.4637 95.6969 43.0781 96.2254 42.7353C96.7539 42.3925 97.468 42.1069 98.3679 41.8783C99.2534 41.6498 100.368 41.5355 101.682 41.5355V40.8499C101.682 40.0643 101.524 39.493 101.196 39.1074C100.867 38.7217 100.396 38.536 99.7676 38.536C99.3105 38.536 98.9392 38.5932 98.6393 38.6931C98.3393 38.7931 98.068 38.9217 97.8537 39.0502C97.6252 39.1788 97.4252 39.3073 97.2395 39.4073C97.0539 39.5073 96.8396 39.5644 96.6111 39.5644C96.4254 39.5644 96.254 39.5216 96.1254 39.4216C95.9969 39.3216 95.8826 39.2073 95.7969 39.0645L95.2828 38.1647C96.6111 36.9363 98.2251 36.3364 100.11 36.3364C100.796 36.3364 101.396 36.4507 101.924 36.665C102.453 36.8935 102.91 37.1934 103.281 37.5934C103.653 37.9933 103.938 38.4646 104.124 39.0074C104.31 39.5644 104.41 40.1643 104.41 40.8213V48.1486V48.1772ZM98.9677 46.4347C99.2534 46.4347 99.5249 46.406 99.7534 46.3632C99.9962 46.3061 100.225 46.2347 100.439 46.1347C100.653 46.0347 100.867 45.9061 101.067 45.749C101.267 45.5919 101.467 45.4205 101.667 45.2063V43.2638C100.853 43.2638 100.168 43.3209 99.6248 43.4209C99.082 43.5208 98.6393 43.6494 98.3108 43.8065C97.9823 43.9636 97.7395 44.1493 97.6109 44.3636C97.4681 44.5778 97.3966 44.8064 97.3966 45.0635C97.3966 45.5634 97.5395 45.9061 97.8394 46.1204C98.1251 46.3346 98.5107 46.4347 98.982 46.4347H98.9677Z" fill="black"/>
<path d="M111.866 36.3795C112.366 36.3795 112.837 36.4366 113.265 36.5366C113.694 36.6366 114.108 36.7937 114.465 36.9794H117.807V38.0221C117.807 38.1935 117.765 38.3363 117.665 38.4363C117.579 38.5362 117.422 38.6077 117.208 38.6363L116.165 38.8219C116.236 39.0219 116.293 39.2219 116.336 39.4504C116.379 39.6646 116.393 39.8932 116.393 40.136C116.393 40.7073 116.279 41.2215 116.051 41.6929C115.822 42.1499 115.508 42.5498 115.094 42.8783C114.694 43.2068 114.208 43.4497 113.651 43.6354C113.094 43.8068 112.494 43.9067 111.851 43.9067C111.409 43.9067 110.994 43.8638 110.58 43.7782C110.223 43.9924 110.037 44.2495 110.037 44.5209C110.037 44.7637 110.152 44.9351 110.366 45.0351C110.58 45.1351 110.866 45.2208 111.209 45.2637C111.551 45.3065 111.951 45.3351 112.408 45.3351C112.865 45.3351 113.308 45.3493 113.78 45.3922C114.251 45.435 114.708 45.4922 115.151 45.5921C115.594 45.6921 115.993 45.8349 116.351 46.0349C116.708 46.2349 116.979 46.5206 117.193 46.8634C117.407 47.2204 117.522 47.6632 117.522 48.2203C117.522 48.7345 117.393 49.2344 117.136 49.72C116.879 50.2056 116.522 50.6341 116.036 51.0197C115.565 51.3911 114.965 51.7053 114.279 51.9339C113.594 52.1624 112.794 52.2766 111.908 52.2766C111.023 52.2766 110.266 52.191 109.609 52.0196C108.952 51.8482 108.423 51.6197 107.995 51.334C107.566 51.0483 107.252 50.7198 107.038 50.3485C106.824 49.9771 106.724 49.5914 106.724 49.1915C106.724 48.6488 106.895 48.1917 107.224 47.8203C107.552 47.4489 108.009 47.1633 108.609 46.9348C108.323 46.7776 108.095 46.5634 107.923 46.3063C107.752 46.0492 107.666 45.7064 107.666 45.2779C107.666 45.1065 107.695 44.9209 107.752 44.7352C107.809 44.5495 107.909 44.3638 108.023 44.1924C108.152 44.0067 108.309 43.8353 108.495 43.6782C108.68 43.521 108.909 43.3639 109.166 43.2497C108.58 42.9355 108.109 42.5069 107.781 41.9785C107.452 41.45 107.281 40.8358 107.281 40.1217C107.281 39.5503 107.395 39.0362 107.623 38.5648C107.852 38.1077 108.181 37.7078 108.581 37.3793C108.995 37.0508 109.48 36.808 110.037 36.6223C110.594 36.4509 111.209 36.3652 111.88 36.3652L111.866 36.3795ZM114.936 48.6773C114.936 48.4487 114.865 48.2631 114.737 48.106C114.608 47.9632 114.422 47.8489 114.179 47.7632C113.951 47.6775 113.665 47.6204 113.365 47.5775C113.051 47.5347 112.723 47.5203 112.365 47.5203H111.28C110.909 47.5203 110.552 47.4775 110.195 47.3918C109.88 47.5632 109.623 47.7775 109.437 48.006C109.252 48.2345 109.152 48.5202 109.152 48.8201C109.152 49.0201 109.209 49.22 109.309 49.3914C109.409 49.5628 109.566 49.7199 109.795 49.8485C110.023 49.977 110.309 50.0771 110.666 50.1485C111.023 50.2199 111.451 50.2628 111.966 50.2628C112.48 50.2628 112.937 50.2199 113.308 50.1342C113.68 50.0485 113.994 49.9485 114.237 49.8057C114.479 49.6629 114.665 49.4915 114.779 49.2915C114.894 49.0915 114.951 48.8773 114.951 48.6488L114.936 48.6773ZM111.866 42.0927C112.208 42.0927 112.508 42.0499 112.765 41.95C113.023 41.85 113.237 41.7214 113.408 41.5643C113.58 41.3929 113.708 41.1929 113.794 40.9644C113.88 40.7359 113.922 40.4788 113.922 40.1931C113.922 39.6218 113.751 39.1647 113.408 38.8362C113.065 38.5077 112.551 38.3363 111.866 38.3363C111.18 38.3363 110.666 38.5077 110.323 38.8362C109.98 39.1647 109.809 39.6218 109.809 40.1931C109.809 40.4645 109.852 40.7216 109.937 40.9501C110.023 41.1786 110.152 41.3786 110.323 41.55C110.494 41.7214 110.709 41.85 110.966 41.95C111.223 42.0499 111.523 42.0927 111.866 42.0927Z" fill="black"/>
<path d="M125.063 36.3926C125.792 36.3926 126.463 36.5068 127.077 36.7497C127.691 36.9782 128.22 37.321 128.663 37.778C129.105 38.2208 129.448 38.7779 129.705 39.4349C129.962 40.0919 130.077 40.8346 130.077 41.6631C130.077 41.8773 130.077 42.0487 130.048 42.1915C130.019 42.3344 129.991 42.4343 129.948 42.52C129.905 42.6057 129.834 42.6628 129.748 42.6914C129.662 42.72 129.562 42.7486 129.434 42.7486H122.264C122.349 43.9341 122.664 44.8196 123.221 45.3767C123.778 45.9337 124.52 46.2194 125.435 46.2194C125.892 46.2194 126.277 46.1623 126.606 46.0623C126.934 45.9623 127.22 45.8338 127.463 45.7052C127.706 45.5767 127.92 45.4624 128.106 45.3481C128.291 45.2482 128.463 45.191 128.648 45.191C128.763 45.191 128.863 45.2196 128.948 45.2624C129.034 45.3053 129.105 45.3767 129.162 45.4481L129.977 46.4622C129.662 46.8193 129.32 47.1335 128.934 47.3763C128.548 47.6191 128.148 47.8191 127.734 47.9619C127.32 48.1047 126.891 48.219 126.463 48.2762C126.034 48.3333 125.606 48.3619 125.206 48.3619C124.392 48.3619 123.649 48.2333 122.949 47.9619C122.249 47.6905 121.65 47.3049 121.135 46.7765C120.621 46.248 120.221 45.6052 119.921 44.8339C119.621 44.0626 119.479 43.1628 119.479 42.1487C119.479 41.3632 119.607 40.6061 119.864 39.9205C120.121 39.2206 120.493 38.6208 120.964 38.1066C121.45 37.5924 122.021 37.1781 122.721 36.8782C123.421 36.5783 124.192 36.4211 125.063 36.4211V36.3926ZM125.12 38.3922C124.306 38.3922 123.663 38.6208 123.206 39.0778C122.749 39.5349 122.449 40.1919 122.321 41.0346H127.563C127.563 40.6775 127.52 40.3347 127.42 40.0062C127.32 39.692 127.177 39.4063 126.963 39.1635C126.763 38.9207 126.506 38.735 126.192 38.5922C125.877 38.4494 125.52 38.378 125.106 38.378L125.12 38.3922Z" fill="black"/>
<path d="M152.658 48.177H150.301C150.044 48.177 149.816 48.1055 149.644 47.977C149.473 47.8484 149.359 47.6771 149.273 47.4914L148.045 44.1491H141.274L140.046 47.4914C139.989 47.6628 139.86 47.8199 139.689 47.9627C139.518 48.1055 139.289 48.177 139.032 48.177H136.661L143.088 31.8228H146.202L152.629 48.177H152.658ZM142.074 42.0066H147.288L145.302 36.5648C145.216 36.322 145.117 36.0363 145.002 35.7078C144.888 35.3793 144.788 35.0222 144.674 34.6365C144.574 35.0222 144.46 35.3793 144.36 35.7078C144.26 36.0363 144.16 36.3363 144.06 36.5791L142.074 41.9924V42.0066Z" fill="black"/>
<path d="M157.857 31.3799V48.1912H155.058V31.3799H157.857Z" fill="black"/>
<path d="M164.685 31.3799V48.1912H161.885V31.3799H164.685Z" fill="black"/>
<path d="M171.94 33.1932C171.94 33.4361 171.898 33.6646 171.798 33.8788C171.698 34.0931 171.569 34.2788 171.412 34.4359C171.255 34.593 171.055 34.7215 170.841 34.8215C170.626 34.9215 170.384 34.9643 170.141 34.9643C169.898 34.9643 169.669 34.9215 169.455 34.8215C169.241 34.7215 169.055 34.6073 168.898 34.4359C168.741 34.2645 168.612 34.0931 168.512 33.8788C168.412 33.6646 168.37 33.4361 168.37 33.1932C168.37 32.9504 168.412 32.7076 168.512 32.4933C168.612 32.2791 168.727 32.0791 168.898 31.922C169.055 31.7649 169.241 31.6364 169.455 31.5364C169.669 31.4364 169.898 31.3936 170.141 31.3936C170.384 31.3936 170.626 31.4364 170.841 31.5364C171.055 31.6364 171.255 31.7506 171.412 31.922C171.569 32.0791 171.698 32.2648 171.798 32.4933C171.898 32.7076 171.94 32.9504 171.94 33.1932ZM171.526 36.5783V48.1763H168.727V36.5783H171.526Z" fill="black"/>
<path d="M184.467 48.1772H183.21C182.953 48.1772 182.739 48.1343 182.582 48.0629C182.425 47.9772 182.325 47.8201 182.239 47.5773L181.996 46.7489C181.696 47.006 181.41 47.2488 181.125 47.4487C180.839 47.6487 180.553 47.8201 180.254 47.9487C179.954 48.0915 179.625 48.1914 179.297 48.2486C178.968 48.3057 178.582 48.3486 178.168 48.3486C177.683 48.3486 177.225 48.2771 176.811 48.1486C176.397 48.02 176.04 47.8201 175.74 47.5487C175.44 47.2773 175.212 46.9488 175.04 46.5632C174.869 46.1632 174.797 45.7061 174.797 45.192C174.797 44.7492 174.912 44.3207 175.14 43.8922C175.369 43.4637 175.754 43.0781 176.283 42.7353C176.811 42.3925 177.525 42.1069 178.425 41.8783C179.311 41.6498 180.425 41.5355 181.739 41.5355V40.8499C181.739 40.0643 181.582 39.493 181.253 39.1074C180.925 38.736 180.454 38.536 179.825 38.536C179.368 38.536 178.997 38.5932 178.697 38.6931C178.397 38.7931 178.14 38.9217 177.911 39.0502C177.683 39.1788 177.483 39.3073 177.297 39.4073C177.111 39.5073 176.897 39.5644 176.668 39.5644C176.483 39.5644 176.311 39.5216 176.183 39.4216C176.054 39.3216 175.94 39.2073 175.854 39.0645L175.34 38.1647C176.668 36.9363 178.282 36.3364 180.168 36.3364C180.853 36.3364 181.453 36.4507 181.982 36.665C182.51 36.8935 182.967 37.1934 183.339 37.5934C183.71 37.9933 183.996 38.4646 184.181 39.0074C184.367 39.5644 184.467 40.1643 184.467 40.8213V48.1486V48.1772ZM179.039 46.4347C179.325 46.4347 179.597 46.406 179.825 46.3632C180.068 46.3061 180.296 46.2347 180.511 46.1347C180.725 46.0347 180.939 45.9061 181.139 45.749C181.339 45.5919 181.539 45.4205 181.739 45.2063V43.2638C180.925 43.2638 180.239 43.3209 179.696 43.4209C179.154 43.5208 178.711 43.6494 178.382 43.8065C178.054 43.9636 177.811 44.1493 177.683 44.3636C177.54 44.5778 177.468 44.8064 177.468 45.0635C177.468 45.5634 177.611 45.9061 177.897 46.1204C178.182 46.3346 178.568 46.4347 179.039 46.4347Z" fill="black"/>
<path d="M187.923 48.1762V36.5783H189.637C189.994 36.5783 190.237 36.7496 190.351 37.0924L190.537 38.0066C190.766 37.7638 191.023 37.5495 191.28 37.3496C191.537 37.1496 191.808 36.9782 192.108 36.8354C192.394 36.6925 192.708 36.5782 193.037 36.5068C193.365 36.4354 193.737 36.3926 194.122 36.3926C194.751 36.3926 195.322 36.5069 195.808 36.7211C196.293 36.9354 196.707 37.2353 197.036 37.6209C197.365 38.0066 197.607 38.4779 197.779 39.0064C197.95 39.5349 198.036 40.1348 198.036 40.7918V48.1762H195.236V40.7918C195.236 40.0777 195.079 39.5349 194.751 39.1492C194.422 38.7636 193.937 38.5636 193.28 38.5636C192.794 38.5636 192.351 38.6779 191.923 38.8921C191.494 39.1064 191.094 39.4063 190.723 39.792V48.1905H187.923V48.1762Z" fill="black"/>
<path d="M209.634 39.035C209.548 39.135 209.476 39.2206 209.391 39.2778C209.305 39.3349 209.191 39.3635 209.048 39.3635C208.905 39.3635 208.762 39.3206 208.634 39.2349C208.505 39.1492 208.334 39.0492 208.148 38.935C207.962 38.8207 207.734 38.7207 207.477 38.635C207.22 38.5493 206.891 38.5065 206.506 38.5065C206.02 38.5065 205.591 38.5922 205.22 38.7779C204.849 38.9493 204.549 39.2064 204.292 39.5349C204.035 39.8634 203.863 40.2633 203.749 40.7346C203.635 41.206 203.563 41.7344 203.563 42.3343C203.563 42.9342 203.635 43.5056 203.763 43.9912C203.892 44.4769 204.092 44.8767 204.335 45.2053C204.577 45.5338 204.892 45.7766 205.234 45.948C205.577 46.1194 205.991 46.2051 206.434 46.2051C206.877 46.2051 207.234 46.148 207.52 46.048C207.805 45.948 208.034 45.8195 208.22 45.6909C208.405 45.5624 208.577 45.4338 208.705 45.3338C208.848 45.2196 209.005 45.1768 209.177 45.1768C209.405 45.1768 209.576 45.2624 209.691 45.4338L210.491 46.4479C210.176 46.805 209.848 47.1192 209.491 47.362C209.134 47.6048 208.748 47.8049 208.362 47.9477C207.977 48.0905 207.577 48.2047 207.163 48.2619C206.748 48.319 206.334 48.3476 205.934 48.3476C205.22 48.3476 204.549 48.2191 203.906 47.9477C203.278 47.6763 202.721 47.2907 202.249 46.7765C201.778 46.2623 201.407 45.6338 201.135 44.8911C200.864 44.1483 200.721 43.3056 200.721 42.3486C200.721 41.4916 200.849 40.7061 201.092 39.9777C201.335 39.2492 201.692 38.6208 202.178 38.0923C202.663 37.5638 203.235 37.1496 203.949 36.8496C204.663 36.5497 205.463 36.3926 206.363 36.3926C207.263 36.3926 207.991 36.5354 208.648 36.8068C209.305 37.0925 209.891 37.4924 210.405 38.0066L209.676 39.0207L209.634 39.035Z" fill="black"/>
<path d="M217.775 36.3926C218.504 36.3926 219.175 36.5068 219.789 36.7497C220.403 36.9782 220.932 37.321 221.374 37.778C221.817 38.2208 222.16 38.7779 222.417 39.4349C222.66 40.0919 222.789 40.8346 222.789 41.6631C222.789 41.8773 222.789 42.0487 222.76 42.1915C222.746 42.3344 222.703 42.4343 222.66 42.52C222.617 42.6057 222.546 42.6628 222.46 42.6914C222.374 42.72 222.274 42.7486 222.146 42.7486H214.976C215.061 43.9341 215.376 44.8196 215.933 45.3767C216.49 45.9337 217.232 46.2194 218.146 46.2194C218.604 46.2194 218.989 46.1623 219.318 46.0623C219.646 45.9623 219.932 45.8338 220.175 45.7052C220.418 45.5767 220.632 45.4624 220.817 45.3481C221.003 45.2339 221.175 45.191 221.36 45.191C221.474 45.191 221.574 45.2196 221.66 45.2624C221.746 45.3053 221.817 45.3767 221.874 45.4481L222.689 46.4622C222.374 46.8193 222.032 47.1335 221.646 47.3763C221.26 47.6191 220.86 47.8191 220.446 47.9619C220.032 48.1047 219.603 48.219 219.175 48.2762C218.746 48.3333 218.318 48.3619 217.918 48.3619C217.118 48.3619 216.361 48.2333 215.661 47.9619C214.961 47.6905 214.361 47.3049 213.847 46.7765C213.333 46.248 212.933 45.6052 212.633 44.8339C212.333 44.0626 212.19 43.1628 212.19 42.1487C212.19 41.3632 212.319 40.6061 212.576 39.9205C212.833 39.2206 213.205 38.6208 213.676 38.1066C214.147 37.5924 214.733 37.1781 215.433 36.8782C216.118 36.5783 216.904 36.4211 217.775 36.4211V36.3926ZM217.832 38.3922C217.018 38.3922 216.375 38.6208 215.918 39.0778C215.461 39.5349 215.161 40.1919 215.033 41.0346H220.275C220.275 40.6775 220.232 40.3347 220.132 40.0062C220.032 39.692 219.889 39.4063 219.675 39.1635C219.475 38.9207 219.218 38.735 218.904 38.5922C218.589 38.4494 218.232 38.378 217.818 38.378L217.832 38.3922Z" fill="black"/>
<path d="M238.5 45.9485C239.185 45.9485 239.785 45.8914 240.285 45.7629C240.799 45.6343 241.285 45.4629 241.742 45.2487V42.2778H239.7C239.5 42.2778 239.343 42.2207 239.243 42.1207C239.128 42.0064 239.071 41.8778 239.071 41.7207V40.0067H244.513V46.6198C244.099 46.9198 243.67 47.1769 243.213 47.4055C242.771 47.634 242.285 47.8054 241.771 47.9482C241.257 48.0911 240.714 48.2053 240.142 48.2767C239.557 48.3481 238.943 48.391 238.271 48.391C237.086 48.391 235.986 48.191 234.986 47.7625C233.986 47.3483 233.115 46.777 232.387 46.0342C231.658 45.2915 231.087 44.406 230.673 43.3919C230.259 42.3635 230.059 41.2494 230.059 40.0353C230.059 38.8212 230.259 37.6786 230.658 36.6502C231.058 35.6218 231.63 34.7362 232.358 34.0078C233.087 33.2651 233.986 32.6938 235.029 32.2939C236.072 31.8796 237.257 31.6797 238.557 31.6797C239.857 31.6797 241.042 31.8796 242.028 32.2796C242.999 32.6795 243.828 33.1937 244.513 33.8222L243.628 35.2076C243.456 35.4933 243.228 35.6218 242.942 35.6218C242.756 35.6218 242.571 35.5647 242.385 35.4361C242.142 35.2933 241.899 35.1505 241.642 35.0076C241.385 34.8648 241.114 34.7362 240.8 34.6363C240.5 34.5363 240.157 34.4506 239.771 34.3792C239.385 34.3078 238.957 34.2792 238.457 34.2792C237.657 34.2792 236.914 34.4077 236.272 34.6934C235.629 34.9791 235.058 35.3504 234.601 35.8646C234.144 36.3646 233.787 36.9787 233.544 37.6786C233.301 38.3927 233.172 39.1783 233.172 40.0496C233.172 40.9923 233.301 41.835 233.572 42.5634C233.829 43.2919 234.201 43.9203 234.686 44.4202C235.172 44.9201 235.729 45.3058 236.386 45.5772C237.043 45.8485 237.757 45.9771 238.528 45.9771L238.5 45.9485Z" fill="black"/>
<path d="M247.884 48.1761V36.5781H249.527C249.812 36.5781 250.012 36.6353 250.126 36.7352C250.241 36.8352 250.312 37.0209 250.355 37.278L250.526 38.6778C250.941 37.9636 251.426 37.3923 251.983 36.9781C252.54 36.5639 253.169 36.3496 253.854 36.3496C254.426 36.3496 254.897 36.4782 255.283 36.7495L254.926 38.8349C254.897 38.9777 254.854 39.0634 254.783 39.1205C254.711 39.1777 254.611 39.2062 254.483 39.2062C254.369 39.2062 254.211 39.1777 254.026 39.1205C253.826 39.0634 253.569 39.0348 253.24 39.0348C252.655 39.0348 252.155 39.192 251.741 39.5205C251.326 39.849 250.969 40.306 250.684 40.9345V48.1618H247.884V48.1761Z" fill="black"/>
<path d="M262.781 36.3926C263.652 36.3926 264.438 36.5354 265.138 36.8068C265.838 37.0925 266.438 37.4781 266.938 37.9923C267.438 38.5065 267.823 39.1349 268.095 39.8634C268.366 40.6061 268.509 41.4345 268.509 42.3343C268.509 43.2342 268.38 44.0912 268.095 44.8197C267.823 45.5624 267.438 46.1908 266.938 46.705C266.438 47.2192 265.838 47.6191 265.138 47.9048C264.438 48.1905 263.652 48.319 262.781 48.319C261.91 48.319 261.124 48.1762 260.425 47.9048C259.71 47.6191 259.11 47.2335 258.611 46.705C258.111 46.1908 257.725 45.5624 257.439 44.8197C257.168 44.077 257.025 43.2485 257.025 42.3343C257.025 41.4202 257.168 40.5918 257.439 39.8634C257.711 39.1207 258.096 38.4922 258.611 37.9923C259.11 37.4781 259.71 37.0782 260.425 36.8068C261.139 36.5211 261.924 36.3926 262.781 36.3926ZM262.781 46.2051C263.752 46.2051 264.467 45.8766 264.924 45.2339C265.381 44.5911 265.624 43.6341 265.624 42.3772C265.624 41.1203 265.395 40.1776 264.924 39.5206C264.467 38.8636 263.738 38.5351 262.781 38.5351C261.824 38.5351 261.082 38.8636 260.61 39.5206C260.139 40.1776 259.91 41.1346 259.91 42.3772C259.91 43.6199 260.139 44.5768 260.61 45.2196C261.082 45.8766 261.796 46.2051 262.781 46.2051Z" fill="black"/>
<path d="M273.951 36.579V43.949C273.951 44.6632 274.108 45.206 274.436 45.5916C274.765 45.9773 275.25 46.1772 275.907 46.1772C276.393 46.1772 276.836 46.063 277.264 45.8487C277.693 45.6345 278.093 45.3345 278.464 44.9632V36.5647H281.264V48.1626H279.55C279.193 48.1626 278.95 47.9912 278.836 47.6484L278.65 46.72C278.407 46.9628 278.164 47.1771 277.907 47.377C277.65 47.577 277.379 47.7484 277.093 47.8912C276.807 48.034 276.493 48.1341 276.15 48.2198C275.808 48.3055 275.45 48.334 275.065 48.334C274.436 48.334 273.865 48.2198 273.379 48.0055C272.894 47.7913 272.48 47.4913 272.151 47.0914C271.822 46.7057 271.565 46.2344 271.394 45.6916C271.223 45.1489 271.137 44.5633 271.137 43.9062V36.5361H273.936L273.951 36.579Z" fill="black"/>
<path d="M284.949 51.9767V36.5795H286.663C286.849 36.5795 287.006 36.6223 287.12 36.708C287.248 36.7937 287.334 36.9222 287.363 37.0936L287.591 38.1649C288.063 37.6364 288.591 37.1936 289.205 36.8651C289.805 36.5366 290.519 36.3652 291.333 36.3652C291.962 36.3652 292.548 36.4938 293.076 36.7652C293.604 37.0365 294.047 37.4079 294.433 37.9078C294.819 38.4077 295.104 39.0219 295.318 39.7646C295.533 40.493 295.633 41.3358 295.633 42.2927C295.633 43.164 295.518 43.9639 295.276 44.7066C295.047 45.4493 294.704 46.092 294.276 46.6348C293.847 47.1775 293.319 47.6061 292.705 47.906C292.09 48.2059 291.405 48.3631 290.634 48.3631C289.977 48.3631 289.419 48.2631 288.962 48.0631C288.505 47.8631 288.091 47.5918 287.734 47.2347V51.991H284.935L284.949 51.9767ZM290.391 38.5648C289.805 38.5648 289.32 38.6934 288.905 38.9362C288.491 39.179 288.105 39.5218 287.763 39.9646V45.1637C288.077 45.5493 288.42 45.835 288.791 45.9778C289.162 46.1349 289.562 46.2063 289.991 46.2063C290.419 46.2063 290.791 46.1206 291.133 45.9635C291.476 45.8064 291.762 45.5636 292.005 45.2351C292.248 44.9065 292.419 44.5066 292.548 44.0067C292.676 43.5068 292.733 42.9354 292.733 42.2641C292.733 41.5928 292.676 41.0072 292.576 40.5359C292.462 40.0645 292.305 39.6789 292.105 39.3933C291.905 39.0933 291.648 38.879 291.362 38.7505C291.076 38.6077 290.748 38.5506 290.376 38.5506L290.391 38.5648Z" fill="black"/>
</svg>
